<?xml version="1.0" encoding="UTF-8" standalone="no"?>
<!DOCTYPE svg PUBLIC "-//W3C//DTD SVG 1.0//EN" "http://www.w3.org/TR/2001/REC-SVG-20010904/DTD/svg10.dtd">
<svg xmlns="http://www.w3.org/2000/svg" version="1.0" viewBox="0.00 0.00 500.00 500.00">
<path fill="#010102" d="
  M 500.00 192.91
  L 500.00 201.80
  Q 498.19 209.30 491.55 214.56
  Q 479.92 223.75 475.96 226.41
  Q 454.04 241.17 433.26 257.50
  C 422.02 266.33 409.74 273.44 398.46 282.16
  C 386.60 291.32 374.62 300.13 362.14 308.87
  Q 360.81 309.80 361.53 311.25
  C 363.39 314.97 364.28 319.41 365.59 323.55
  C 367.37 329.16 369.30 334.70 371.04 340.31
  C 371.29 341.14 371.98 341.86 371.92 343.02
  Q 371.90 343.56 372.25 343.98
  Q 372.97 344.83 372.89 345.96
  Q 372.85 346.55 373.23 347.00
  Q 373.99 347.87 373.91 349.05
  A 1.33 1.32 -65.0 0 0 374.26 350.02
  Q 374.93 350.74 374.88 351.75
  Q 374.86 352.26 375.12 352.70
  C 377.35 356.43 378.17 361.15 379.48 365.27
  Q 382.51 374.80 385.57 384.32
  Q 387.03 388.86 388.75 393.31
  Q 390.76 398.52 391.91 402.28
  C 393.35 407.01 395.34 411.99 395.94 416.88
  Q 396.16 418.63 396.84 420.59
  C 399.47 428.28 403.62 441.61 408.52 455.41
  Q 410.62 461.31 411.70 467.49
  C 414.13 481.35 399.45 492.41 386.60 487.59
  Q 383.33 486.37 381.56 485.18
  C 373.02 479.42 365.03 474.92 356.03 467.85
  Q 346.63 460.47 342.64 457.54
  C 321.35 441.88 299.75 426.66 278.44 411.03
  C 273.74 407.58 268.37 403.11 263.19 399.31
  C 259.82 396.83 254.98 394.47 251.11 391.36
  A 1.67 1.67 0.0 0 0 249.08 391.32
  C 244.47 394.75 238.81 397.67 233.74 401.72
  C 204.27 425.23 172.16 445.33 142.61 468.73
  C 134.86 474.87 126.43 479.98 117.91 485.40
  C 110.32 490.23 100.79 489.86 94.16 483.74
  C 89.33 479.28 86.70 472.85 88.59 466.29
  C 89.11 464.49 88.94 462.62 89.91 460.80
  Q 90.18 460.30 90.07 459.74
  Q 89.85 458.63 90.75 458.01
  A 0.77 0.77 0.0 0 0 91.07 457.25
  Q 90.83 455.92 91.78 455.02
  A 1.06 1.06 0.0 0 0 92.09 454.05
  C 91.84 452.78 92.74 452.10 93.02 451.24
  Q 97.42 437.92 101.89 424.61
  C 102.19 423.71 101.89 422.81 102.71 422.00
  Q 103.07 421.63 103.04 421.11
  Q 102.98 420.00 103.66 419.09
  Q 103.96 418.69 103.98 418.19
  Q 104.15 414.22 105.65 410.56
  C 106.16 409.32 106.05 408.06 106.89 406.86
  A 1.27 1.23 59.4 0 0 107.10 405.99
  Q 106.96 404.82 107.74 404.04
  Q 108.16 403.63 108.10 403.04
  Q 107.99 401.96 108.64 401.15
  A 1.44 1.39 -24.0 0 0 108.94 400.41
  C 109.21 397.80 110.62 395.22 111.21 393.46
  Q 114.98 382.19 118.79 370.93
  C 119.11 369.99 119.04 368.87 119.77 367.96
  Q 120.07 367.57 120.08 367.08
  C 120.08 365.87 120.73 365.24 120.94 364.23
  Q 122.26 357.97 124.55 353.29
  Q 125.12 352.12 125.19 351.21
  A 1.61 1.56 -22.9 0 1 125.58 350.29
  Q 126.22 349.55 126.14 348.53
  Q 126.09 347.97 126.45 347.52
  C 127.39 346.36 126.77 345.35 127.49 344.31
  Q 127.77 343.92 127.86 343.63
  Q 130.72 334.86 133.72 326.14
  C 134.14 324.92 134.04 323.73 134.50 322.42
  C 135.87 318.59 136.91 314.71 138.49 311.17
  Q 139.07 309.87 137.91 309.03
  C 127.33 301.44 116.82 294.06 106.40 286.01
  C 98.08 279.59 92.17 274.82 84.00 270.02
  Q 76.41 265.57 56.73 249.81
  Q 47.30 242.25 28.46 229.55
  C 20.86 224.43 14.40 219.38 7.66 213.85
  Q 1.84 209.07 0.00 201.88
  L 0.00 192.71
  C 1.08 188.56 3.45 186.39 6.80 183.73
  C 11.57 179.94 16.50 179.02 22.50 179.02
  Q 101.88 178.98 180.80 179.02
  Q 181.63 179.02 181.89 178.23
  Q 184.55 170.22 186.74 162.54
  C 187.14 161.12 186.92 159.41 187.32 158.26
  C 188.67 154.36 189.72 150.85 191.39 146.61
  C 192.33 144.22 193.03 141.59 193.86 139.36
  Q 195.21 135.70 196.35 131.97
  Q 199.47 121.78 202.85 111.67
  C 203.07 111.01 203.06 109.87 203.68 109.12
  Q 204.00 108.74 204.03 108.25
  Q 204.10 107.28 204.67 106.18
  C 206.16 103.30 207.03 100.02 208.29 96.50
  C 208.95 94.64 209.25 92.63 209.82 90.95
  Q 214.36 77.68 218.58 64.31
  Q 218.92 63.25 219.84 61.73
  Q 220.11 61.29 220.06 60.77
  Q 219.96 59.83 220.62 59.16
  Q 221.00 58.78 221.05 58.25
  L 221.13 57.47
  Q 221.19 56.95 221.48 56.51
  C 222.23 55.37 222.12 54.03 222.51 52.90
  Q 224.58 46.87 226.41 40.78
  C 226.70 39.79 227.12 39.63 227.09 38.24
  Q 227.08 37.62 227.69 37.11
  A 1.03 1.03 0.0 0 0 228.06 36.24
  Q 227.97 34.92 228.65 33.82
  Q 228.92 33.36 228.95 32.82
  C 229.41 23.40 235.33 16.05 243.77 12.22
  Q 244.26 11.99 244.79 12.06
  Q 245.71 12.16 246.27 11.48
  A 1.00 0.98 -70.2 0 1 247.04 11.11
  L 252.69 11.16
  Q 253.27 11.16 253.69 11.56
  Q 254.42 12.24 255.48 12.05
  A 1.24 1.22 -34.5 0 1 256.32 12.20
  Q 257.78 13.06 259.28 13.80
  C 261.99 15.13 264.14 17.80 266.25 19.91
  C 267.94 21.60 268.62 23.62 269.76 25.69
  Q 270.01 26.14 269.94 26.65
  Q 269.80 27.57 270.44 28.22
  Q 270.78 28.56 270.80 29.05
  L 271.01 33.06
  A 1.30 1.27 -65.8 0 0 271.28 33.79
  C 272.04 34.75 271.89 35.76 272.20 36.70
  Q 274.88 44.90 277.63 53.08
  C 277.94 54.01 277.74 55.43 278.58 56.42
  Q 278.93 56.82 278.87 57.35
  Q 278.73 58.48 279.49 59.21
  Q 279.85 59.55 279.84 60.04
  Q 279.84 61.14 280.67 62.50
  Q 281.49 63.85 282.98 68.69
  Q 286.48 80.10 290.16 91.46
  Q 291.07 94.28 293.89 102.54
  Q 294.90 105.47 295.20 106.38
  Q 300.71 122.84 303.26 130.00
  C 303.90 131.78 304.16 133.55 304.68 134.98
  Q 306.47 139.94 308.17 144.92
  Q 309.84 149.83 311.43 154.77
  C 311.85 156.10 311.81 157.52 312.18 158.79
  Q 315.05 168.71 318.04 178.11
  Q 318.29 178.90 319.11 178.93
  Q 329.36 179.26 339.75 179.22
  Q 408.00 178.99 476.25 179.02
  C 483.09 179.02 488.87 179.79 494.11 184.23
  Q 498.53 187.97 500.00 192.91
  Z
  M 364.21 429.24
  L 344.36 365.47
  Q 342.06 358.09 339.17 350.24
  C 336.25 342.30 331.41 327.55 328.09 316.00
  C 324.97 305.13 330.13 290.69 339.04 283.79
  Q 344.40 279.63 349.95 275.74
  Q 370.94 261.00 391.44 245.59
  C 396.85 241.52 404.93 234.84 412.33 230.11
  C 413.55 229.34 414.91 228.79 416.02 228.03
  Q 425.88 221.28 435.67 213.83
  A 0.45 0.45 0.0 0 0 435.43 213.02
  Q 434.81 212.97 434.00 212.97
  Q 378.12 213.06 322.25 212.75
  Q 314.62 212.71 309.01 211.16
  C 290.44 206.04 285.18 187.49 280.63 171.38
  Q 278.20 162.74 271.37 143.36
  C 271.01 142.35 271.02 140.80 270.67 139.57
  Q 266.45 124.67 261.46 110.00
  C 259.65 104.67 257.66 100.17 256.16 94.25
  Q 254.71 88.53 250.93 78.42
  Q 250.78 78.01 250.35 77.92
  Q 249.98 77.84 249.61 77.89
  Q 249.13 77.96 249.00 78.43
  C 247.66 83.10 245.88 87.59 244.62 92.31
  Q 243.43 96.74 242.41 99.58
  C 237.81 112.36 233.25 125.33 229.77 138.46
  C 226.22 151.89 221.35 165.00 217.25 178.28
  C 212.97 192.15 208.28 204.58 193.43 210.06
  Q 185.60 212.96 179.75 212.96
  Q 123.50 213.02 67.25 212.95
  Q 65.64 212.94 64.49 213.22
  Q 63.65 213.42 64.35 213.92
  Q 70.50 218.35 76.67 222.76
  Q 77.11 223.08 89.25 231.19
  Q 96.07 235.75 104.21 242.30
  Q 114.37 250.47 142.29 269.92
  Q 155.88 279.39 160.86 283.64
  Q 165.34 287.46 166.65 289.59
  C 171.06 296.77 174.47 306.81 172.24 315.26
  C 168.67 328.77 162.21 344.93 157.09 361.27
  C 153.40 373.06 148.89 384.88 145.83 396.83
  C 142.82 408.53 138.74 419.93 134.95 431.30
  Q 134.74 431.93 135.39 431.80
  Q 136.97 431.49 138.49 430.25
  Q 144.48 425.36 150.51 420.53
  Q 157.72 414.76 186.44 394.37
  Q 205.91 380.56 225.15 366.41
  Q 225.20 366.38 229.63 362.84
  C 239.60 354.88 254.31 353.44 265.62 359.71
  Q 266.76 360.34 276.30 367.40
  Q 292.78 379.61 309.40 391.63
  C 310.91 392.72 312.52 394.40 314.39 395.54
  Q 318.21 397.87 318.30 397.93
  Q 335.99 410.39 353.28 423.39
  Q 353.65 423.67 353.85 424.09
  Q 354.12 424.68 354.63 424.94
  C 356.40 425.86 357.22 427.24 358.97 428.14
  Q 360.64 429.00 361.79 430.59
  A 1.37 1.35 75.5 0 0 362.69 431.13
  Q 363.58 431.25 364.19 431.88
  A 0.51 0.50 31.0 0 0 365.04 431.67
  Q 365.33 430.65 364.63 429.80
  A 0.81 0.04 50.6 0 1 364.21 429.24
  Z"
/>
</svg>
