<?xml version="1.0" encoding="UTF-8"?>
<!DOCTYPE svg PUBLIC "-//W3C//DTD SVG 1.1//EN" "http://www.w3.org/Graphics/SVG/1.1/DTD/svg11.dtd">
<svg xmlns="http://www.w3.org/2000/svg" version="1.1" width="1464px" height="496px" style="shape-rendering:geometricPrecision; text-rendering:geometricPrecision; image-rendering:optimizeQuality; fill-rule:evenodd; clip-rule:evenodd" xmlns:xlink="http://www.w3.org/1999/xlink">
<g><path style="opacity:0.973" fill="#e3e3e3" d="M 327.5,122.5 C 329.927,122.523 332.26,123.023 334.5,124C 370.543,141.07 406.543,158.237 442.5,175.5C 443.7,213.87 442.867,252.203 440,290.5C 438.514,315.128 431.181,337.795 418,358.5C 411.085,367.417 402.918,374.917 393.5,381C 390.364,382.041 387.864,381.207 386,378.5C 374.725,360.894 363.058,343.56 351,326.5C 344.333,319.167 337.667,311.833 331,304.5C 319.501,287.668 317.667,269.834 325.5,251C 326.448,250.517 327.448,250.351 328.5,250.5C 327.849,264.09 332.849,274.923 343.5,283C 350.412,286.372 357.245,289.872 364,293.5C 368,304.167 372,314.833 376,325.5C 378.565,327.179 381.398,327.846 384.5,327.5C 382.902,322.299 380.735,317.299 378,312.5C 377.231,307.522 379.064,306.355 383.5,309C 390.03,313.696 396.697,318.196 403.5,322.5C 408.873,318.129 413.539,313.129 417.5,307.5C 407.042,284.291 396.875,260.957 387,237.5C 386.508,232.449 386.508,227.449 387,222.5C 373.333,211.167 359.667,199.833 346,188.5C 345.333,187.5 345.333,186.5 346,185.5C 357.544,176.363 360.378,165.03 354.5,151.5C 353.277,150.386 351.944,150.219 350.5,151C 342.359,159.23 334.025,167.23 325.5,175C 324.216,175.684 323.049,175.517 322,174.5C 318.688,156.566 320.522,139.233 327.5,122.5 Z"/></g>
<g><path style="opacity:0.922" fill="#dfdfe0" d="M 290.5,124.5 C 292.722,124.178 294.556,124.845 296,126.5C 299.678,142.88 303.512,159.213 307.5,175.5C 306.96,176.748 306.293,177.915 305.5,179C 299.233,182.648 292.566,184.648 285.5,185C 277.949,168.231 270.949,151.231 264.5,134C 264.354,131.812 265.354,130.479 267.5,130C 275.329,128.291 282.996,126.458 290.5,124.5 Z"/></g>
<g><path style="opacity:0.959" fill="#e3e3e3" d="M 228.5,137.5 C 233.223,136.553 237.056,137.886 240,141.5C 250.667,157.5 261.333,173.5 272,189.5C 272.706,191.971 272.373,194.305 271,196.5C 268.131,199.704 264.965,202.537 261.5,205C 258.697,205.755 256.03,205.422 253.5,204C 237.333,187.833 221.167,171.667 205,155.5C 201.671,151.498 201.837,147.665 205.5,144C 213.233,141.654 220.9,139.487 228.5,137.5 Z"/></g>
<g><path style="opacity:0.921" fill="#dededf" d="M 186.5,176.5 C 207.066,189.053 227.4,202.053 247.5,215.5C 248.614,216.723 248.781,218.056 248,219.5C 244.833,224 241.667,228.5 238.5,233C 220.361,227.564 202.361,221.397 184.5,214.5C 183.921,201.759 184.588,189.092 186.5,176.5 Z"/></g>
<g><path style="opacity:0.951" fill="#fefffe" d="M 1277.5,207.5 C 1285.42,207.185 1293.25,207.518 1301,208.5C 1301.67,245.833 1301.67,283.167 1301,320.5C 1294.26,321.839 1287.43,322.339 1280.5,322C 1279.14,320.055 1278.3,317.888 1278,315.5C 1258.64,329.576 1242.97,326.242 1231,305.5C 1223.73,285.985 1225.4,267.318 1236,249.5C 1248.13,236.446 1261.46,235.113 1276,245.5C 1276.33,245.167 1276.67,244.833 1277,244.5C 1277.5,232.171 1277.67,219.838 1277.5,207.5 Z M 1260.5,258.5 C 1268.81,257.396 1274.31,260.73 1277,268.5C 1277.67,276.833 1277.67,285.167 1277,293.5C 1274.87,302.989 1269.03,306.489 1259.5,304C 1255.57,302.407 1253.07,299.573 1252,295.5C 1251.33,286.5 1251.33,277.5 1252,268.5C 1253.26,263.745 1256.09,260.412 1260.5,258.5 Z"/></g>
<g><path style="opacity:0.907" fill="#fefffe" d="M 983.5,208.5 C 996.497,207.325 1002,212.992 1000,225.5C 994.505,232.58 987.672,234.08 979.5,230C 971.886,221.12 973.22,213.954 983.5,208.5 Z"/></g>
<g><path style="opacity:0.908" fill="#fefffe" d="M 1197.5,208.5 C 1209.21,207.055 1215.04,212.055 1215,223.5C 1210.02,232.492 1202.85,234.659 1193.5,230C 1188.4,225.752 1187.24,220.585 1190,214.5C 1192.11,211.878 1194.61,209.878 1197.5,208.5 Z"/></g>
<g><path style="opacity:0.964" fill="#fefffe" d="M 501.5,213.5 C 531.5,213.5 561.5,213.5 591.5,213.5C 591.829,219.537 591.496,225.537 590.5,231.5C 579.885,232.477 569.219,232.81 558.5,232.5C 557.957,262.164 557.457,291.831 557,321.5C 549.27,321.715 541.437,321.715 533.5,321.5C 533.719,291.823 533.386,262.156 532.5,232.5C 522.133,232.681 511.8,232.181 501.5,231C 500.187,225.167 500.187,219.334 501.5,213.5 Z"/></g>
<g><path style="opacity:0.974" fill="#fefffe" d="M 893.5,213.5 C 901.5,213.5 909.5,213.5 917.5,213.5C 917.333,242.835 917.5,272.169 918,301.5C 918.5,302 919,302.5 919.5,303C 934.496,303.5 949.496,303.667 964.5,303.5C 964.5,309.5 964.5,315.5 964.5,321.5C 940.5,321.5 916.5,321.5 892.5,321.5C 892.174,285.427 892.507,249.427 893.5,213.5 Z"/></g>
<g><path style="opacity:0.892" fill="#e2e2e2" d="M 362.5,219.5 C 368.695,223.182 374.195,227.849 379,233.5C 379.507,234.996 379.007,236.163 377.5,237C 371.505,239.618 366.338,238.451 362,233.5C 359.921,228.725 360.088,224.059 362.5,219.5 Z"/></g>
<g><path style="opacity:0.954" fill="#fefffe" d="M 1039.5,238.5 C 1048.51,238.671 1056.68,241.338 1064,246.5C 1065.26,243.572 1067.43,241.739 1070.5,241C 1076.08,240.194 1081.58,240.361 1087,241.5C 1087.67,278.5 1087.67,315.5 1087,352.5C 1079.25,353.482 1071.42,353.815 1063.5,353.5C 1063.5,341.833 1063.5,330.167 1063.5,318.5C 1041.01,329.615 1024.85,323.615 1015,300.5C 1009.94,282.43 1012.28,265.43 1022,249.5C 1026.74,243.887 1032.58,240.221 1039.5,238.5 Z M 1046.5,258.5 C 1055.07,256.952 1060.57,260.286 1063,268.5C 1063.67,277.5 1063.67,286.5 1063,295.5C 1059.77,304.121 1053.6,306.954 1044.5,304C 1040.83,302.332 1038.67,299.499 1038,295.5C 1037.07,285.093 1037.41,274.759 1039,264.5C 1041.13,261.847 1043.63,259.847 1046.5,258.5 Z"/></g>
<g><path style="opacity:0.943" fill="#fefffe" d="M 622.5,239.5 C 649.998,237.837 664.998,250.67 667.5,278C 667.259,281.783 666.592,285.45 665.5,289C 648.682,289.014 632.015,289.681 615.5,291C 625.576,307.703 638.243,309.87 653.5,297.5C 657.099,300.595 660.599,303.929 664,307.5C 664.667,308.833 664.667,310.167 664,311.5C 642.653,329.118 621.653,328.785 601,310.5C 590.349,294.466 588.683,277.466 596,259.5C 602.089,249.055 610.922,242.388 622.5,239.5 Z M 625.5,258.5 C 636.153,257.386 641.986,262.052 643,272.5C 634.559,273.523 626.059,274.023 617.5,274C 616.558,267.052 619.225,261.886 625.5,258.5 Z"/></g>
<g><path style="opacity:0.947" fill="#fefffe" d="M 703.5,239.5 C 717.88,237.195 730.047,241.195 740,251.5C 741.893,254.618 743.226,257.951 744,261.5C 744.098,281.547 744.931,301.547 746.5,321.5C 738.804,321.831 731.138,321.497 723.5,320.5C 723.135,319.098 722.301,318.098 721,317.5C 709.095,324.767 696.928,325.267 684.5,319C 673.04,307.993 671.54,295.827 680,282.5C 684.857,278.488 690.357,275.654 696.5,274C 704.372,273.049 712.205,272.216 720,271.5C 720.94,259.765 715.773,255.265 704.5,258C 701.77,260.13 699.77,262.797 698.5,266C 690.92,266.813 683.42,266.647 676,265.5C 676.161,259.006 678.661,253.506 683.5,249C 689.616,244.44 696.282,241.273 703.5,239.5 Z M 708.5,285.5 C 720.432,284.709 723.932,289.709 719,300.5C 712.508,307.883 705.841,308.216 699,301.5C 698.253,293.765 701.42,288.432 708.5,285.5 Z"/></g>
<g><path style="opacity:0.963" fill="#fefffe" d="M 798.5,239.5 C 803.93,239.161 809.264,239.661 814.5,241C 819.175,243.336 823.508,246.169 827.5,249.5C 835.79,241.015 845.79,237.848 857.5,240C 867.579,243.749 873.745,250.915 876,261.5C 877.641,281.48 877.807,301.48 876.5,321.5C 868.5,321.5 860.5,321.5 852.5,321.5C 852.667,302.497 852.5,283.497 852,264.5C 850.065,260.198 846.732,258.198 842,258.5C 836.015,258.814 832.015,261.814 830,267.5C 829.5,285.497 829.333,303.497 829.5,321.5C 821.833,321.5 814.167,321.5 806.5,321.5C 806.667,303.164 806.5,284.83 806,266.5C 804.226,260.895 800.393,258.229 794.5,258.5C 789.034,257.977 785.534,260.311 784,265.5C 783.5,284.164 783.333,302.83 783.5,321.5C 775.5,321.5 767.5,321.5 759.5,321.5C 759.5,294.833 759.5,268.167 759.5,241.5C 766.472,240.492 773.472,240.325 780.5,241C 781.956,243.266 782.79,245.766 783,248.5C 787.853,244.828 793.019,241.828 798.5,239.5 Z"/></g>
<g><path style="opacity:0.951" fill="#fefffe" d="M 976.5,240.5 C 984.167,240.5 991.833,240.5 999.5,240.5C 999.937,267.169 1000.1,293.835 1000,320.5C 991.919,321.482 983.752,321.816 975.5,321.5C 975.176,294.426 975.509,267.426 976.5,240.5 Z"/></g>
<g><path style="opacity:0.958" fill="#fefffe" d="M 1103.5,240.5 C 1110.56,240.203 1117.56,240.536 1124.5,241.5C 1125.46,261.161 1126.29,280.827 1127,300.5C 1135.01,307.433 1142.34,306.766 1149,298.5C 1149.33,279.833 1149.67,261.167 1150,242.5C 1154.33,241.005 1158.83,240.339 1163.5,240.5C 1166.75,240.521 1169.92,240.854 1173,241.5C 1173.5,268.165 1173.67,294.831 1173.5,321.5C 1166.83,322.001 1160.16,322.168 1153.5,322C 1151.59,320.299 1150.42,318.133 1150,315.5C 1135.72,327.755 1121.72,327.421 1108,314.5C 1105.2,310.557 1103.2,306.223 1102,301.5C 1101.33,282.5 1101.33,263.5 1102,244.5C 1102.41,243.099 1102.91,241.766 1103.5,240.5 Z"/></g>
<g><path style="opacity:0.969" fill="#fefffe" d="M 1190.5,240.5 C 1198.17,240.5 1205.83,240.5 1213.5,240.5C 1213.5,267.5 1213.5,294.5 1213.5,321.5C 1205.5,321.5 1197.5,321.5 1189.5,321.5C 1189.18,294.426 1189.51,267.426 1190.5,240.5 Z"/></g>
<g><path style="opacity:0.916" fill="#dfdfe0" d="M 182.5,241.5 C 198.205,243.339 213.872,245.506 229.5,248C 230.167,248.667 230.833,249.333 231.5,250C 229.905,256.545 228.071,263.045 226,269.5C 224.933,270.191 223.766,270.691 222.5,271C 209.18,272.281 195.847,272.948 182.5,273C 181.178,262.5 181.178,252 182.5,241.5 Z"/></g>
<g><path style="opacity:0.92" fill="#dfdfe0" d="M 218.5,289.5 C 219.833,289.5 221.167,289.5 222.5,289.5C 222.95,297.839 223.116,306.172 223,314.5C 213.25,320.626 203.417,326.626 193.5,332.5C 191.578,330.997 190.412,328.997 190,326.5C 187.195,318.284 185.195,309.95 184,301.5C 195.555,297.372 207.055,293.372 218.5,289.5 Z"/></g>
<g><path style="opacity:0.883" fill="#e3e3e3" d="M 393.5,294.5 C 398.959,297.069 403.959,300.402 408.5,304.5C 409.583,305.365 409.749,306.365 409,307.5C 404.864,308.809 400.698,308.809 396.5,307.5C 395.016,303.905 393.683,300.238 392.5,296.5C 392.863,295.817 393.196,295.15 393.5,294.5 Z"/></g>
<g><path style="opacity:0.909" fill="#e3e3e3" d="M 222.5,342.5 C 223.833,342.5 225.167,342.5 226.5,342.5C 229.643,354.07 232.309,365.737 234.5,377.5C 233.448,377.649 232.448,377.483 231.5,377C 223.935,370.39 216.601,363.556 209.5,356.5C 213.855,351.813 218.188,347.146 222.5,342.5 Z"/></g>
</svg>
