<?xml version="1.0" encoding="UTF-8" standalone="no"?>
<!DOCTYPE svg PUBLIC "-//W3C//DTD SVG 1.0//EN" "http://www.w3.org/TR/2001/REC-SVG-20010904/DTD/svg10.dtd">
<svg xmlns="http://www.w3.org/2000/svg" version="1.0" viewBox="0.00 0.00 501.00 498.00">
<g stroke-width="2.00" fill="none" stroke-linecap="butt">
<path stroke="#7f6824" vector-effect="non-scaling-stroke" d="
  M 196.19 180.64
  L 170.62 180.64
  A 1.34 1.34 0.0 0 0 169.28 181.98
  L 169.27 186.76
  Q 169.27 187.30 168.74 187.30
  L 163.94 187.35
  A 1.19 1.19 0.0 0 0 162.77 188.54
  L 162.75 194.30"
/>
<path stroke="#7b4907" vector-effect="non-scaling-stroke" d="
  M 162.75 194.30
  L 162.71 200.65"
/>
<path stroke="#7f6824" vector-effect="non-scaling-stroke" d="
  M 162.71 200.65
  L 162.64 220.54"
/>
<path stroke="#7b4907" vector-effect="non-scaling-stroke" d="
  M 162.64 220.54
  L 162.73 239.55
  A 1.04 1.04 0.0 0 0 163.77 240.59
  L 168.72 240.59
  A 0.62 0.62 0.0 0 1 169.34 241.22
  L 169.28 246.18
  A 1.01 1.01 0.0 0 0 170.31 247.20
  L 175.33 247.07
  A 0.59 0.58 88.6 0 1 175.93 247.65
  L 176.00 252.33
  A 1.42 1.41 0.0 0 0 177.41 253.73
  L 195.68 253.81"
/>
<path stroke="#7f6824" vector-effect="non-scaling-stroke" d="
  M 195.68 253.81
  L 208.19 253.91
  A 0.63 0.63 0.0 0 1 208.82 254.52
  L 209.01 259.55
  A 0.85 0.84 -89.3 0 0 209.79 260.36
  L 214.74 260.73
  Q 215.22 260.76 215.26 261.24
  L 215.62 265.59
  A 1.42 1.42 0.0 0 0 217.09 266.89
  L 221.14 266.72
  A 0.88 0.88 0.0 0 0 221.97 265.89
  L 222.19 261.15"
/>
<path stroke="#7b4907" vector-effect="non-scaling-stroke" d="
  M 222.19 261.15
  L 222.26 255.14
  Q 222.29 253.37 220.51 253.35
  L 216.29 253.32
  A 0.52 0.52 0.0 0 1 215.77 252.79
  L 215.86 248.04
  A 1.16 1.16 0.0 0 0 214.71 246.86
  L 208.87 246.80"
/>
<path stroke="#7f6824" vector-effect="non-scaling-stroke" d="
  M 208.87 246.80
  L 196.66 246.79"
/>
<path stroke="#7b4907" vector-effect="non-scaling-stroke" d="
  M 196.66 246.79
  L 183.19 246.76
  A 0.50 0.50 0.0 0 1 182.69 246.24
  L 182.92 241.14
  A 0.89 0.89 0.0 0 0 182.02 240.21
  L 176.77 240.27
  A 0.50 0.50 0.0 0 1 176.27 239.77
  L 176.25 201.24
  A 0.51 0.50 -0.0 0 1 176.76 200.74
  L 180.91 200.74
  Q 182.82 200.75 182.79 198.84
  L 182.71 194.75
  Q 182.70 194.20 183.25 194.20
  L 195.14 194.18
  A 0.47 0.46 88.8 0 1 195.61 194.64
  L 195.67 199.61
  A 1.19 1.19 0.0 0 0 196.86 200.78
  L 201.64 200.77
  Q 202.26 200.77 202.26 201.39
  L 202.25 219.81
  Q 202.25 220.41 201.65 220.40
  L 195.86 220.28"
/>
<path stroke="#7b4907" vector-effect="non-scaling-stroke" d="
  M 195.86 220.28
  L 195.75 226.52
  Q 195.74 227.07 195.18 227.07
  L 190.39 227.03
  A 1.34 1.34 0.0 0 0 189.04 228.36
  L 188.99 239.80
  A 0.81 0.81 0.0 0 0 189.80 240.62
  L 202.05 240.58
  A 0.63 0.62 90.0 0 0 202.67 239.95
  L 202.65 234.36
  A 0.61 0.60 -0.0 0 1 203.26 233.76
  L 207.75 233.81
  A 1.55 1.55 0.0 0 0 209.31 232.25
  L 209.25 221.23
  Q 209.25 220.70 209.77 220.70
  L 214.85 220.70
  Q 215.38 220.70 215.38 221.22
  L 215.43 232.20
  A 1.60 1.60 0.0 0 0 216.95 233.79
  L 221.41 234.04
  A 0.62 0.61 -88.5 0 1 221.99 234.66
  L 221.92 252.88
  A 0.79 0.78 2.8 0 0 222.63 253.66
  L 227.17 254.06
  A 0.92 0.91 -89.3 0 1 228.00 254.92
  L 228.68 265.46
  A 1.45 1.45 0.0 0 0 229.94 266.80
  L 234.30 267.34
  A 0.79 0.78 -89.1 0 1 234.98 268.05
  L 235.31 271.74
  A 1.62 1.61 2.6 0 0 236.63 273.18
  L 241.31 274.04"
/>
<path stroke="#753d01" vector-effect="non-scaling-stroke" d="
  M 241.31 274.04
  L 242.01 278.09
  A 2.51 2.50 87.5 0 0 244.27 280.16
  L 248.31 280.48"
/>
<path stroke="#7b4907" vector-effect="non-scaling-stroke" d="
  M 248.31 280.48
  L 248.42 306.47"
/>
<path stroke="#753d01" vector-effect="non-scaling-stroke" d="
  M 248.42 306.47
  L 237.02 306.30
  Q 235.48 306.28 235.48 307.82
  L 235.50 319.48"
/>
<path stroke="#7b4907" vector-effect="non-scaling-stroke" d="
  M 235.50 319.48
  L 230.53 319.45
  Q 228.56 319.43 228.61 321.40
  L 228.73 325.76
  Q 228.74 326.25 228.24 326.25
  L 223.39 326.21
  Q 222.14 326.20 222.14 327.46
  L 222.14 339.33"
/>
<path stroke="#7f6824" vector-effect="non-scaling-stroke" d="
  M 222.14 339.33
  L 209.96 339.42
  Q 208.88 339.43 208.87 340.50
  L 208.80 346.49"
/>
<path stroke="#7b4907" vector-effect="non-scaling-stroke" d="
  M 208.80 346.49
  L 208.89 365.63
  A 0.58 0.58 0.0 0 0 209.46 366.21
  L 215.85 366.24"
/>
<path stroke="#7f6824" vector-effect="non-scaling-stroke" d="
  M 215.85 366.24
  L 242.55 366.24"
/>
<path stroke="#7b4907" vector-effect="non-scaling-stroke" d="
  M 242.55 366.24
  L 275.01 366.25"
/>
<path stroke="#753d01" vector-effect="non-scaling-stroke" d="
  M 275.01 366.25
  L 308.84 366.21"
/>
<path stroke="#7b4907" vector-effect="non-scaling-stroke" d="
  M 308.84 366.21
  L 314.36 366.08
  Q 314.92 366.06 314.92 365.50
  L 314.93 346.96"
/>
<path stroke="#7f6824" vector-effect="non-scaling-stroke" d="
  M 314.93 346.96
  L 314.91 340.94
  Q 314.90 339.45 313.41 339.45
  L 301.48 339.48"
/>
<path stroke="#7b4907" vector-effect="non-scaling-stroke" d="
  M 301.48 339.48
  L 301.62 327.60
  A 1.38 1.38 0.0 0 0 300.23 326.21
  L 295.50 326.24
  Q 295.01 326.24 295.01 325.75
  L 295.01 320.56
  Q 295.01 320.08 294.55 319.92
  C 292.31 319.15 290.39 319.88 288.45 319.46"
/>
<path stroke="#753d01" vector-effect="non-scaling-stroke" d="
  M 288.45 319.46
  L 288.42 308.10
  Q 288.41 306.28 286.59 306.30
  L 275.30 306.40"
/>
<path stroke="#7b4907" vector-effect="non-scaling-stroke" d="
  M 275.30 306.40
  L 275.37 280.29"
/>
<path stroke="#753d01" vector-effect="non-scaling-stroke" d="
  M 275.37 280.29
  C 279.02 280.37 282.11 281.33 282.13 275.94
  Q 282.13 274.50 283.54 274.20
  L 287.83 273.29"
/>
<path stroke="#7b4907" vector-effect="non-scaling-stroke" d="
  M 287.83 273.29
  L 288.87 267.89
  A 0.69 0.69 0.0 0 1 289.47 267.33
  L 293.20 266.93
  A 1.97 1.97 0.0 0 0 294.96 265.03
  L 295.29 254.24
  Q 295.31 253.78 295.76 253.78
  L 300.71 253.83
  A 0.72 0.71 90.0 0 1 301.42 254.55
  L 301.35 265.56
  A 1.45 1.45 0.0 0 0 302.82 267.02
  L 306.55 266.97
  Q 308.30 266.95 308.28 265.20
  L 308.24 260.98
  A 0.53 0.52 -89.5 0 1 308.77 260.45
  L 313.11 260.49
  A 1.83 1.83 0.0 0 0 314.96 258.57
  L 314.74 254.28
  A 0.49 0.49 0.0 0 1 315.23 253.77
  L 346.20 253.74
  A 1.67 1.66 89.7 0 0 347.86 252.05
  L 347.81 247.77
  A 0.56 0.55 -1.0 0 1 348.36 247.21
  L 353.29 247.13
  A 0.93 0.93 0.0 0 0 354.20 246.22
  L 354.34 241.13
  Q 354.35 240.61 354.87 240.60
  L 359.70 240.55
  A 1.05 1.04 89.7 0 0 360.73 239.50
  L 360.79 194.31"
/>
<path stroke="#7f6824" vector-effect="non-scaling-stroke" d="
  M 360.79 194.31
  L 360.76 187.95
  Q 360.76 187.39 360.20 187.39
  L 354.90 187.31
  Q 354.37 187.30 354.36 186.77
  L 354.25 181.40
  A 0.86 0.85 89.3 0 0 353.40 180.56
  L 321.72 180.55
  A 0.74 0.73 0.0 0 0 320.98 181.28
  L 320.96 186.67
  Q 320.96 187.31 320.32 187.30
  L 315.46 187.22
  Q 314.54 187.21 314.54 188.13
  L 314.52 194.40"
/>
<path stroke="#7b4907" vector-effect="non-scaling-stroke" d="
  M 314.52 194.40
  L 314.47 206.69
  Q 314.47 207.19 313.97 207.19
  L 308.78 207.14
  Q 308.27 207.13 308.27 206.62
  L 308.27 195.28"
/>
<path stroke="#753d01" vector-effect="non-scaling-stroke" d="
  M 308.27 195.28
  L 308.31 181.08"
/>
<path stroke="#7b4907" vector-effect="non-scaling-stroke" d="
  M 308.31 181.08
  L 314.25 180.95
  Q 314.95 180.93 314.94 180.24
  L 314.86 168.61
  Q 314.85 167.64 313.88 167.64
  L 235.43 167.32"
/>
<path stroke="#7f6824" vector-effect="non-scaling-stroke" d="
  M 235.43 167.32
  L 222.12 167.39"
/>
<path stroke="#7b4907" vector-effect="non-scaling-stroke" d="
  M 222.12 167.39
  L 210.58 167.46
  Q 208.79 167.46 208.79 169.25
  L 208.78 180.37
  Q 208.78 180.96 209.37 180.97
  L 214.91 181.05
  A 0.61 0.61 0.0 0 1 215.51 181.66
  L 215.40 206.96
  Q 215.40 207.18 215.18 207.18
  L 209.66 207.11
  A 0.29 0.28 0.0 0 1 209.37 206.83
  L 209.23 187.71
  A 0.51 0.51 0.0 0 0 208.70 187.20
  L 203.38 187.36
  A 0.73 0.72 89.3 0 1 202.63 186.62
  L 202.69 181.29
  Q 202.70 180.71 202.12 180.70
  L 196.19 180.64"
/>
<path stroke="#f9b02b" vector-effect="non-scaling-stroke" d="
  M 222.12 167.39
  L 222.69 181.02"
/>
<path stroke="#c87109" vector-effect="non-scaling-stroke" d="
  M 222.69 181.02
  Q 221.92 182.31 221.96 186.07
  A 1.33 1.33 0.0 0 0 223.24 187.39
  L 228.70 187.62"
/>
<path stroke="#f9b02b" vector-effect="non-scaling-stroke" d="
  M 228.70 187.62
  Q 228.89 209.84 228.71 231.75
  Q 228.70 232.61 229.51 233.79"
/>
<path stroke="#c87109" vector-effect="non-scaling-stroke" d="
  M 229.51 233.79
  Q 227.17 235.46 230.00 239.75
  Q 230.26 240.14 230.73 240.15
  L 236.97 240.27"
/>
<path stroke="#f9b02b" vector-effect="non-scaling-stroke" d="
  M 236.97 240.27
  Q 236.34 240.36 235.90 240.68
  Q 235.50 240.96 235.52 241.45
  L 235.95 258.89
  A 1.77 1.77 0.0 0 0 238.07 260.58
  Q 241.83 259.82 242.06 263.17
  C 242.30 266.62 244.84 266.75 247.29 267.65
  A 2.27 2.25 -80.5 0 1 248.78 269.75
  Q 248.81 271.71 250.13 273.32"
/>
<path stroke="#ef8507" vector-effect="non-scaling-stroke" d="
  M 250.13 273.32
  L 241.31 274.04"
/>
<path stroke="#f9b02b" vector-effect="non-scaling-stroke" d="
  M 196.66 246.79
  L 195.68 253.81"
/>
<path stroke="#f9b02b" vector-effect="non-scaling-stroke" d="
  M 162.64 220.54
  Q 162.75 221.27 163.00 221.33
  Q 163.53 221.47 163.82 221.01
  Q 164.07 220.64 164.52 220.60
  L 168.24 220.28
  A 1.29 1.27 -2.5 0 0 169.42 219.01
  L 169.48 201.39
  A 0.65 0.65 0.0 0 0 168.84 200.74
  L 162.71 200.65"
/>
<path stroke="#f9b02b" vector-effect="non-scaling-stroke" d="
  M 162.75 194.30
  L 168.40 194.07
  A 0.92 0.91 -89.3 0 0 169.28 193.21
  L 169.60 188.71
  A 1.25 1.24 -88.0 0 1 170.84 187.55
  L 194.93 187.48
  A 1.15 1.15 0.0 0 0 196.08 186.35
  L 196.19 180.64"
/>
<path stroke="#f9b02b" vector-effect="non-scaling-stroke" d="
  M 249.24 187.66
  Q 248.59 190.25 248.59 193.50
  Q 248.58 213.60 248.66 233.66"
/>
<path stroke="#cc9026" vector-effect="non-scaling-stroke" d="
  M 248.66 233.66
  L 229.51 233.79"
/>
<path stroke="#f3a425" vector-effect="non-scaling-stroke" d="
  M 255.35 273.45
  L 250.13 273.32"
/>
<path stroke="#c26503" vector-effect="non-scaling-stroke" d="
  M 287.66 240.44
  L 275.52 240.43"
/>
<path stroke="#cc9026" vector-effect="non-scaling-stroke" d="
  M 248.93 240.51
  L 236.97 240.27"
/>
<path stroke="#f9b02b" vector-effect="non-scaling-stroke" d="
  M 235.43 167.32
  L 235.57 180.88"
/>
<path stroke="#cc9026" vector-effect="non-scaling-stroke" d="
  M 235.57 180.88
  L 222.69 181.02"
/>
<path stroke="#ef8507" vector-effect="non-scaling-stroke" d="
  M 275.37 280.29
  L 268.63 280.35"
/>
<path stroke="#f3a425" vector-effect="non-scaling-stroke" d="
  M 268.63 280.35
  Q 265.22 279.75 261.79 280.25"
/>
<path stroke="#ef8507" vector-effect="non-scaling-stroke" d="
  M 261.79 280.25
  Q 255.15 279.55 248.31 280.48"
/>
<path stroke="#c26503" vector-effect="non-scaling-stroke" d="
  M 300.69 180.91
  Q 302.97 185.15 301.04 187.66"
/>
<path stroke="#c87109" vector-effect="non-scaling-stroke" d="
  M 301.04 187.66
  L 294.33 187.54"
/>
<path stroke="#c26503" vector-effect="non-scaling-stroke" d="
  M 294.33 187.54
  L 281.37 187.51"
/>
<path stroke="#c87109" vector-effect="non-scaling-stroke" d="
  M 281.37 187.51
  L 262.11 187.68"
/>
<path stroke="#cc9026" vector-effect="non-scaling-stroke" d="
  M 262.11 187.68
  L 255.05 187.61"
/>
<path stroke="#c87109" vector-effect="non-scaling-stroke" d="
  M 255.05 187.61
  L 249.24 187.66"
/>
<path stroke="#cc9026" vector-effect="non-scaling-stroke" d="
  M 249.24 187.66
  L 228.70 187.62"
/>
<path stroke="#f9b02b" vector-effect="non-scaling-stroke" d="
  M 208.87 246.80
  L 209.35 252.85
  A 0.74 0.72 3.7 0 0 209.94 253.51
  C 212.32 254.00 214.96 253.53 215.29 257.01
  Q 215.42 258.31 215.78 259.58
  Q 215.92 260.09 216.45 260.18
  L 222.19 261.15"
/>
<path stroke="#f9b02b" vector-effect="non-scaling-stroke" d="
  M 255.05 187.61
  L 255.08 233.58"
/>
<path stroke="#c87109" vector-effect="non-scaling-stroke" d="
  M 255.08 233.58
  L 248.66 233.66"
/>
<path stroke="#ef8507" vector-effect="non-scaling-stroke" d="
  M 287.83 273.29
  L 275.63 272.80
  A 1.07 1.06 5.7 0 1 274.62 271.57
  Q 274.89 269.85 274.56 268.16
  Q 274.45 267.61 273.92 267.44
  Q 272.19 266.89 270.40 267.11
  A 1.83 1.82 -7.2 0 0 268.81 269.15
  L 269.18 272.00
  A 0.97 0.96 -4.6 0 1 268.25 273.09
  L 255.35 273.45"
/>
<path stroke="#f9b02b" vector-effect="non-scaling-stroke" d="
  M 255.35 273.45
  L 254.83 268.36
  A 1.20 1.20 0.0 0 0 253.85 267.30
  C 251.86 266.93 249.09 266.77 248.92 264.00
  Q 248.20 252.35 248.93 240.51"
/>
<path stroke="#c87109" vector-effect="non-scaling-stroke" d="
  M 248.93 240.51
  L 275.52 240.43"
/>
<path stroke="#ef8507" vector-effect="non-scaling-stroke" d="
  M 275.52 240.43
  L 275.08 264.79
  A 2.30 2.29 1.3 0 0 277.32 267.12
  L 279.67 267.18
  A 2.28 2.27 89.8 0 0 282.00 264.83
  L 281.88 261.04
  A 0.81 0.81 0.0 0 1 282.72 260.20
  L 286.66 260.33
  A 1.80 1.79 -0.7 0 0 288.51 258.44
  C 288.20 252.27 288.48 246.55 287.66 240.44"
/>
<path stroke="#c87109" vector-effect="non-scaling-stroke" d="
  M 287.66 240.44
  L 293.56 240.25
  Q 294.07 240.24 294.30 239.78
  Q 296.15 236.18 293.94 233.81"
/>
<path stroke="#f9b02b" vector-effect="non-scaling-stroke" d="
  M 262.11 187.68
  L 262.09 233.72"
/>
<path stroke="#cc9026" vector-effect="non-scaling-stroke" d="
  M 262.09 233.72
  L 255.08 233.58"
/>
<path stroke="#ef8507" vector-effect="non-scaling-stroke" d="
  M 281.37 187.51
  L 281.90 233.72"
/>
<path stroke="#c87109" vector-effect="non-scaling-stroke" d="
  M 281.90 233.72
  L 262.09 233.72"
/>
<path stroke="#ef8507" vector-effect="non-scaling-stroke" d="
  M 294.33 187.54
  C 294.51 189.47 294.99 191.26 294.94 193.16
  Q 294.40 215.29 294.97 231.25
  Q 295.01 232.28 296.03 232.94
  Q 296.55 233.28 295.94 233.40
  L 293.94 233.81"
/>
<path stroke="#c26503" vector-effect="non-scaling-stroke" d="
  M 293.94 233.81
  L 281.90 233.72"
/>
<path stroke="#ef8507" vector-effect="non-scaling-stroke" d="
  M 308.31 181.08
  L 300.69 180.91"
/>
<path stroke="#c87109" vector-effect="non-scaling-stroke" d="
  M 300.69 180.91
  L 235.57 180.88"
/>
<path stroke="#f9b02b" vector-effect="non-scaling-stroke" d="
  M 261.79 280.25
  L 261.70 306.34"
/>
<path stroke="#ef8507" vector-effect="non-scaling-stroke" d="
  M 261.70 306.34
  L 248.42 306.47"
/>
<path stroke="#ef8507" vector-effect="non-scaling-stroke" d="
  M 275.30 306.40
  L 268.75 306.29"
/>
<path stroke="#f9b02b" vector-effect="non-scaling-stroke" d="
  M 268.63 280.35
  L 268.75 306.29"
/>
<path stroke="#f3a425" vector-effect="non-scaling-stroke" d="
  M 268.75 306.29
  L 261.70 306.34"
/>
<path stroke="#ef8507" vector-effect="non-scaling-stroke" d="
  M 308.27 195.28
  Q 306.66 193.65 303.02 193.94
  A 1.77 1.77 0.0 0 1 301.24 191.51
  Q 302.40 188.70 301.04 187.66"
/>
<path stroke="#f9b02b" vector-effect="non-scaling-stroke" d="
  M 360.79 194.31
  L 355.76 193.69
  A 1.21 1.20 -89.4 0 1 354.70 192.60
  L 354.29 188.31
  A 0.96 0.96 0.0 0 0 353.33 187.44
  L 322.02 187.46
  Q 321.26 187.46 321.21 188.23
  L 320.91 193.00
  A 1.20 1.19 -89.4 0 1 319.78 194.12
  L 314.52 194.40"
/>
<path stroke="#ef8507" vector-effect="non-scaling-stroke" d="
  M 288.45 319.46
  L 254.84 319.89"
/>
<path stroke="#f3a425" vector-effect="non-scaling-stroke" d="
  M 254.84 319.89
  L 241.71 320.10"
/>
<path stroke="#ef8507" vector-effect="non-scaling-stroke" d="
  M 241.71 320.10
  L 235.50 319.48"
/>
<path stroke="#f9b02b" vector-effect="non-scaling-stroke" d="
  M 314.93 346.96
  L 308.60 346.37"
/>
<path stroke="#f3a425" vector-effect="non-scaling-stroke" d="
  M 308.60 346.37
  L 274.62 346.26"
/>
<path stroke="#f9b02b" vector-effect="non-scaling-stroke" d="
  M 274.62 346.26
  L 243.19 346.15
  Q 242.17 346.15 242.19 347.16
  L 242.55 366.24"
/>
<path stroke="#f9b02b" vector-effect="non-scaling-stroke" d="
  M 215.85 366.24
  L 215.66 347.64
  Q 215.65 346.25 214.26 346.07
  Q 211.74 345.75 208.80 346.49"
/>
<path stroke="#f9b02b" vector-effect="non-scaling-stroke" d="
  M 301.48 339.48
  L 249.78 339.58
  A 1.08 1.08 0.0 0 1 248.70 338.50
  L 248.74 327.04
  A 0.73 0.73 0.0 0 1 249.46 326.31
  L 254.43 326.23
  A 0.71 0.70 3.3 0 0 255.12 325.62
  Q 255.59 322.26 254.84 319.89"
/>
<path stroke="#f9b02b" vector-effect="non-scaling-stroke" d="
  M 241.71 320.10
  Q 242.55 323.36 242.12 325.62
  A 1.14 1.13 -82.5 0 1 240.93 326.54
  L 236.74 326.27
  A 1.22 1.22 0.0 0 0 235.45 327.51
  L 235.64 338.58
  A 1.14 1.14 0.0 0 1 234.46 339.74
  L 222.14 339.33"
/>
<path stroke="#ef8507" vector-effect="non-scaling-stroke" d="
  M 308.60 346.37
  Q 307.22 356.30 308.84 366.21"
/>
<path stroke="#ef8507" vector-effect="non-scaling-stroke" d="
  M 274.62 346.26
  L 275.01 366.25"
/>
<path stroke="#f9b02b" vector-effect="non-scaling-stroke" d="
  M 322.22 220.42
  Q 321.06 220.20 321.09 221.24
  Q 321.16 223.59 321.38 226.00
  Q 321.47 226.93 322.40 227.00
  L 326.91 227.35
  Q 327.44 227.39 327.58 227.90
  Q 328.16 229.97 328.02 232.13
  A 1.05 1.03 12.8 0 0 328.68 233.16
  Q 331.91 234.46 334.62 234.02"
/>
<path stroke="#7b4907" vector-effect="non-scaling-stroke" d="
  M 334.62 234.02
  L 334.67 239.98
  A 0.67 0.67 0.0 0 1 334.00 240.65
  L 321.97 240.66
  A 0.95 0.95 0.0 0 1 321.02 239.72
  L 320.98 234.49
  A 0.74 0.74 0.0 0 0 320.16 233.75
  C 318.36 233.94 314.30 234.78 314.45 231.76
  C 314.61 228.18 314.43 224.62 314.50 221.23
  Q 314.52 220.70 313.99 220.70
  L 308.78 220.74
  Q 308.29 220.74 308.29 221.23
  L 308.30 232.63
  Q 308.30 233.81 307.12 233.85
  L 302.06 234.05
  Q 301.68 234.06 301.68 234.44
  L 301.88 252.32
  Q 301.89 253.49 303.07 253.48
  L 306.90 253.44
  Q 307.97 253.42 307.97 252.35
  L 307.94 247.79
  A 0.91 0.90 -0.6 0 1 308.84 246.88
  L 340.43 246.77
  A 0.46 0.45 -0.7 0 0 340.88 246.32
  L 340.80 240.72
  A 0.55 0.54 -89.5 0 1 341.35 240.17
  L 346.65 240.20
  A 0.85 0.85 0.0 0 0 347.51 239.35
  L 347.50 201.46
  A 0.64 0.64 0.0 0 0 346.87 200.82
  L 342.47 200.73
  A 1.50 1.50 0.0 0 1 341.00 199.22
  L 341.02 194.72
  A 0.55 0.55 0.0 0 0 340.47 194.16
  L 328.52 194.19
  A 0.54 0.54 0.0 0 0 327.98 194.73
  L 328.03 199.08
  A 1.64 1.64 0.0 0 1 326.42 200.74
  L 322.00 200.80
  Q 321.49 200.81 321.48 201.32
  Q 321.30 210.86 321.28 219.75
  Q 321.28 220.41 322.22 220.42"
/>
<path stroke="#7f6824" vector-effect="non-scaling-stroke" d="
  M 334.62 234.02
  L 334.49 228.11
  Q 334.47 227.14 333.49 227.12
  L 328.53 227.03
  Q 328.03 227.02 328.03 226.53
  L 328.02 221.25
  A 0.69 0.69 0.0 0 0 327.34 220.56
  L 322.22 220.42"
/>
</g>
<path fill="#000000" d="
  M 209.23 167.02
  L 209.37 161.90
  A 0.73 0.73 0.0 0 1 210.10 161.19
  L 313.83 161.25
  A 0.58 0.58 0.0 0 1 314.41 161.83
  L 314.42 166.96
  A 0.79 0.79 0.0 0 0 315.21 167.75
  L 320.53 167.77
  Q 321.03 167.78 321.03 168.28
  L 321.07 173.28
  A 0.96 0.95 0.0 0 0 322.03 174.23
  L 353.32 174.29
  A 0.77 0.76 -0.0 0 1 354.09 175.05
  L 354.09 179.88
  A 0.89 0.89 0.0 0 0 354.98 180.77
  L 360.05 180.80
  A 0.52 0.51 -0.6 0 1 360.57 181.30
  L 360.71 186.74
  A 0.79 0.79 0.0 0 0 361.49 187.51
  L 366.74 187.60
  Q 367.36 187.61 367.36 188.24
  L 367.36 239.52
  A 0.62 0.62 0.0 0 1 366.74 240.14
  L 361.83 240.13
  A 1.15 1.15 0.0 0 0 360.68 241.26
  L 360.60 245.95
  A 0.79 0.78 -88.9 0 1 359.80 246.73
  L 355.04 246.65
  A 1.05 1.05 0.0 0 0 353.97 247.72
  L 354.03 252.78
  Q 354.04 253.35 353.47 253.34
  L 349.19 253.27
  A 1.76 1.75 0.0 0 0 347.39 255.06
  L 347.49 259.43
  Q 347.51 260.11 346.82 260.10
  L 315.49 260.06
  A 1.16 1.16 0.0 0 0 314.32 261.27
  L 314.50 265.50
  A 0.97 0.96 -0.3 0 1 313.50 266.50
  L 309.35 266.35
  A 1.34 1.34 0.0 0 0 307.97 267.65
  L 307.85 271.54
  Q 307.81 272.90 306.46 272.92
  L 303.09 272.98
  Q 301.68 273.00 301.69 271.59
  L 301.70 268.20
  Q 301.71 266.43 299.94 266.45
  L 296.33 266.50
  Q 294.67 266.52 294.60 268.17
  L 294.44 272.16
  A 0.68 0.67 88.0 0 1 293.85 272.80
  L 289.41 273.32
  Q 288.19 273.46 288.14 274.68
  L 287.98 278.67
  A 0.93 0.93 0.0 0 1 287.08 279.57
  L 282.60 279.76
  A 1.18 1.18 0.0 0 0 281.47 280.94
  L 281.52 299.39
  A 0.62 0.61 89.5 0 0 282.14 300.01
  L 287.51 299.99
  Q 288.04 299.98 288.04 300.51
  L 288.03 305.40
  A 1.35 1.35 0.0 0 0 289.40 306.75
  L 293.71 306.67
  A 0.80 0.79 89.3 0 1 294.51 307.46
  L 294.64 318.51
  A 1.40 1.40 0.0 0 0 296.06 319.90
  L 300.68 319.83
  Q 301.29 319.83 301.29 320.43
  L 301.27 325.41
  A 1.14 1.13 -0.0 0 0 302.41 326.54
  L 307.37 326.50
  Q 308.00 326.49 307.99 327.12
  L 307.99 332.24
  A 0.75 0.75 0.0 0 0 308.74 333.00
  L 313.96 332.99
  A 0.48 0.47 -0.0 0 1 314.44 333.46
  L 314.49 338.64
  A 0.92 0.91 0.3 0 0 315.39 339.54
  L 320.47 339.64
  Q 321.02 339.66 321.02 340.21
  L 321.01 372.24
  A 0.25 0.25 0.0 0 1 320.76 372.49
  L 203.28 372.49
  A 0.71 0.71 0.0 0 1 202.57 371.78
  L 202.56 340.27
  A 0.68 0.68 0.0 0 1 203.23 339.59
  L 208.55 339.53
  Q 209.11 339.52 209.13 338.96
  L 209.25 334.11
  A 1.15 1.14 -89.2 0 1 210.39 332.99
  L 215.27 332.97
  Q 215.75 332.97 215.75 332.48
  L 215.75 326.99
  Q 215.75 326.47 216.26 326.47
  L 220.99 326.49
  A 1.25 1.25 0.0 0 0 222.24 325.26
  L 222.33 320.49
  Q 222.35 319.83 223.01 319.84
  L 227.36 319.94
  A 1.55 1.54 0.4 0 0 228.94 318.39
  L 228.91 307.38
  Q 228.90 306.65 229.62 306.65
  L 234.18 306.64
  A 1.55 1.54 89.6 0 0 235.72 305.07
  L 235.64 300.57
  Q 235.63 300.03 236.18 300.02
  L 241.50 300.00
  A 0.75 0.75 0.0 0 0 242.24 299.25
  L 242.25 281.13
  A 1.25 1.24 -87.0 0 0 241.13 279.88
  L 236.55 279.39
  A 0.77 0.77 0.0 0 1 235.87 278.76
  L 235.13 274.36
  A 0.92 0.92 0.0 0 0 234.43 273.61
  L 230.00 272.54
  A 1.26 1.26 0.0 0 1 229.04 271.38
  L 228.87 268.15
  Q 228.78 266.63 227.27 266.55
  L 223.60 266.37
  Q 222.24 266.31 222.08 267.66
  L 221.54 272.14
  A 0.63 0.62 -84.7 0 1 220.88 272.70
  L 216.95 272.47
  A 0.94 0.94 0.0 0 1 216.12 271.83
  Q 215.43 269.73 215.76 267.53
  A 0.80 0.79 -83.9 0 0 215.03 266.62
  L 210.00 266.31
  A 0.80 0.80 0.0 0 1 209.25 265.51
  L 209.26 261.60
  A 1.47 1.47 0.0 0 0 207.79 260.13
  L 176.98 260.08
  Q 176.38 260.08 176.37 259.48
  L 176.27 254.65
  A 1.40 1.39 0.0 0 0 174.89 253.28
  L 170.51 253.22
  A 0.74 0.74 0.0 0 1 169.78 252.50
  L 169.62 248.00
  A 1.26 1.25 2.1 0 0 168.50 246.80
  L 163.84 246.29
  A 0.73 0.73 0.0 0 1 163.19 245.60
  L 163.04 241.69
  A 1.59 1.59 0.0 0 0 161.44 240.16
  L 157.29 240.18
  A 0.90 0.90 0.0 0 1 156.39 239.28
  L 156.42 188.25
  A 0.60 0.60 0.0 0 1 157.00 187.65
  L 162.37 187.46
  A 0.58 0.58 0.0 0 0 162.94 186.90
  L 163.11 181.90
  A 1.00 1.00 0.0 0 1 164.10 180.93
  L 168.58 180.85
  A 0.94 0.94 0.0 0 0 169.51 179.92
  L 169.55 175.17
  A 1.03 1.03 0.0 0 1 170.58 174.15
  L 201.99 174.24
  Q 202.62 174.24 202.62 173.62
  L 202.62 168.33
  Q 202.62 167.77 203.18 167.77
  L 208.49 167.74
  Q 209.21 167.74 209.23 167.02
  Z
  M 196.19 180.64
  L 170.62 180.64
  A 1.34 1.34 0.0 0 0 169.28 181.98
  L 169.27 186.76
  Q 169.27 187.30 168.74 187.30
  L 163.94 187.35
  A 1.19 1.19 0.0 0 0 162.77 188.54
  L 162.75 194.30
  L 162.71 200.65
  L 162.64 220.54
  L 162.73 239.55
  A 1.04 1.04 0.0 0 0 163.77 240.59
  L 168.72 240.59
  A 0.62 0.62 0.0 0 1 169.34 241.22
  L 169.28 246.18
  A 1.01 1.01 0.0 0 0 170.31 247.20
  L 175.33 247.07
  A 0.59 0.58 88.6 0 1 175.93 247.65
  L 176.00 252.33
  A 1.42 1.41 0.0 0 0 177.41 253.73
  L 195.68 253.81
  L 208.19 253.91
  A 0.63 0.63 0.0 0 1 208.82 254.52
  L 209.01 259.55
  A 0.85 0.84 -89.3 0 0 209.79 260.36
  L 214.74 260.73
  Q 215.22 260.76 215.26 261.24
  L 215.62 265.59
  A 1.42 1.42 0.0 0 0 217.09 266.89
  L 221.14 266.72
  A 0.88 0.88 0.0 0 0 221.97 265.89
  L 222.19 261.15
  L 222.26 255.14
  Q 222.29 253.37 220.51 253.35
  L 216.29 253.32
  A 0.52 0.52 0.0 0 1 215.77 252.79
  L 215.86 248.04
  A 1.16 1.16 0.0 0 0 214.71 246.86
  L 208.87 246.80
  L 196.66 246.79
  L 183.19 246.76
  A 0.50 0.50 0.0 0 1 182.69 246.24
  L 182.92 241.14
  A 0.89 0.89 0.0 0 0 182.02 240.21
  L 176.77 240.27
  A 0.50 0.50 0.0 0 1 176.27 239.77
  L 176.25 201.24
  A 0.51 0.50 -0.0 0 1 176.76 200.74
  L 180.91 200.74
  Q 182.82 200.75 182.79 198.84
  L 182.71 194.75
  Q 182.70 194.20 183.25 194.20
  L 195.14 194.18
  A 0.47 0.46 88.8 0 1 195.61 194.64
  L 195.67 199.61
  A 1.19 1.19 0.0 0 0 196.86 200.78
  L 201.64 200.77
  Q 202.26 200.77 202.26 201.39
  L 202.25 219.81
  Q 202.25 220.41 201.65 220.40
  L 195.86 220.28
  L 195.91 201.43
  A 1.12 1.11 89.5 0 0 194.78 200.31
  L 182.95 200.49
  A 0.57 0.56 -0.5 0 0 182.39 201.05
  L 182.41 226.75
  Q 182.41 227.35 183.00 227.35
  L 188.73 227.28
  A 0.76 0.76 0.0 0 0 189.48 226.52
  L 189.51 221.26
  Q 189.51 220.83 189.95 220.82
  C 191.86 220.80 194.19 221.19 195.86 220.28
  L 195.75 226.52
  Q 195.74 227.07 195.18 227.07
  L 190.39 227.03
  A 1.34 1.34 0.0 0 0 189.04 228.36
  L 188.99 239.80
  A 0.81 0.81 0.0 0 0 189.80 240.62
  L 202.05 240.58
  A 0.63 0.62 90.0 0 0 202.67 239.95
  L 202.65 234.36
  A 0.61 0.60 -0.0 0 1 203.26 233.76
  L 207.75 233.81
  A 1.55 1.55 0.0 0 0 209.31 232.25
  L 209.25 221.23
  Q 209.25 220.70 209.77 220.70
  L 214.85 220.70
  Q 215.38 220.70 215.38 221.22
  L 215.43 232.20
  A 1.60 1.60 0.0 0 0 216.95 233.79
  L 221.41 234.04
  A 0.62 0.61 -88.5 0 1 221.99 234.66
  L 221.92 252.88
  A 0.79 0.78 2.8 0 0 222.63 253.66
  L 227.17 254.06
  A 0.92 0.91 -89.3 0 1 228.00 254.92
  L 228.68 265.46
  A 1.45 1.45 0.0 0 0 229.94 266.80
  L 234.30 267.34
  A 0.79 0.78 -89.1 0 1 234.98 268.05
  L 235.31 271.74
  A 1.62 1.61 2.6 0 0 236.63 273.18
  L 241.31 274.04
  L 242.01 278.09
  A 2.51 2.50 87.5 0 0 244.27 280.16
  L 248.31 280.48
  L 248.42 306.47
  L 237.02 306.30
  Q 235.48 306.28 235.48 307.82
  L 235.50 319.48
  L 230.53 319.45
  Q 228.56 319.43 228.61 321.40
  L 228.73 325.76
  Q 228.74 326.25 228.24 326.25
  L 223.39 326.21
  Q 222.14 326.20 222.14 327.46
  L 222.14 339.33
  L 209.96 339.42
  Q 208.88 339.43 208.87 340.50
  L 208.80 346.49
  L 208.89 365.63
  A 0.58 0.58 0.0 0 0 209.46 366.21
  L 215.85 366.24
  L 242.55 366.24
  L 275.01 366.25
  L 308.84 366.21
  L 314.36 366.08
  Q 314.92 366.06 314.92 365.50
  L 314.93 346.96
  L 314.91 340.94
  Q 314.90 339.45 313.41 339.45
  L 301.48 339.48
  L 301.62 327.60
  A 1.38 1.38 0.0 0 0 300.23 326.21
  L 295.50 326.24
  Q 295.01 326.24 295.01 325.75
  L 295.01 320.56
  Q 295.01 320.08 294.55 319.92
  C 292.31 319.15 290.39 319.88 288.45 319.46
  L 288.42 308.10
  Q 288.41 306.28 286.59 306.30
  L 275.30 306.40
  L 275.37 280.29
  C 279.02 280.37 282.11 281.33 282.13 275.94
  Q 282.13 274.50 283.54 274.20
  L 287.83 273.29
  L 288.87 267.89
  A 0.69 0.69 0.0 0 1 289.47 267.33
  L 293.20 266.93
  A 1.97 1.97 0.0 0 0 294.96 265.03
  L 295.29 254.24
  Q 295.31 253.78 295.76 253.78
  L 300.71 253.83
  A 0.72 0.71 90.0 0 1 301.42 254.55
  L 301.35 265.56
  A 1.45 1.45 0.0 0 0 302.82 267.02
  L 306.55 266.97
  Q 308.30 266.95 308.28 265.20
  L 308.24 260.98
  A 0.53 0.52 -89.5 0 1 308.77 260.45
  L 313.11 260.49
  A 1.83 1.83 0.0 0 0 314.96 258.57
  L 314.74 254.28
  A 0.49 0.49 0.0 0 1 315.23 253.77
  L 346.20 253.74
  A 1.67 1.66 89.7 0 0 347.86 252.05
  L 347.81 247.77
  A 0.56 0.55 -1.0 0 1 348.36 247.21
  L 353.29 247.13
  A 0.93 0.93 0.0 0 0 354.20 246.22
  L 354.34 241.13
  Q 354.35 240.61 354.87 240.60
  L 359.70 240.55
  A 1.05 1.04 89.7 0 0 360.73 239.50
  L 360.79 194.31
  L 360.76 187.95
  Q 360.76 187.39 360.20 187.39
  L 354.90 187.31
  Q 354.37 187.30 354.36 186.77
  L 354.25 181.40
  A 0.86 0.85 89.3 0 0 353.40 180.56
  L 321.72 180.55
  A 0.74 0.73 0.0 0 0 320.98 181.28
  L 320.96 186.67
  Q 320.96 187.31 320.32 187.30
  L 315.46 187.22
  Q 314.54 187.21 314.54 188.13
  L 314.52 194.40
  L 314.47 206.69
  Q 314.47 207.19 313.97 207.19
  L 308.78 207.14
  Q 308.27 207.13 308.27 206.62
  L 308.27 195.28
  L 308.31 181.08
  L 314.25 180.95
  Q 314.95 180.93 314.94 180.24
  L 314.86 168.61
  Q 314.85 167.64 313.88 167.64
  L 235.43 167.32
  L 222.12 167.39
  L 210.58 167.46
  Q 208.79 167.46 208.79 169.25
  L 208.78 180.37
  Q 208.78 180.96 209.37 180.97
  L 214.91 181.05
  A 0.61 0.61 0.0 0 1 215.51 181.66
  L 215.40 206.96
  Q 215.40 207.18 215.18 207.18
  L 209.66 207.11
  A 0.29 0.28 0.0 0 1 209.37 206.83
  L 209.23 187.71
  A 0.51 0.51 0.0 0 0 208.70 187.20
  L 203.38 187.36
  A 0.73 0.72 89.3 0 1 202.63 186.62
  L 202.69 181.29
  Q 202.70 180.71 202.12 180.70
  L 196.19 180.64
  Z
  M 215.6538 234.6963
  A 1.20 1.20 0.0 0 0 214.4454 233.5047
  L 210.0455 233.5354
  A 1.20 1.20 0.0 0 0 208.8540 234.7438
  L 208.8862 239.3637
  A 1.20 1.20 0.0 0 0 210.0946 240.5553
  L 214.4945 240.5246
  A 1.20 1.20 0.0 0 0 215.6860 239.3162
  L 215.6538 234.6963
  Z"
/>
<path fill="#f5910d" d="
  M 222.12 167.39
  L 222.69 181.02
  Q 221.92 182.31 221.96 186.07
  A 1.33 1.33 0.0 0 0 223.24 187.39
  L 228.70 187.62
  Q 228.89 209.84 228.71 231.75
  Q 228.70 232.61 229.51 233.79
  Q 227.17 235.46 230.00 239.75
  Q 230.26 240.14 230.73 240.15
  L 236.97 240.27
  Q 236.34 240.36 235.90 240.68
  Q 235.50 240.96 235.52 241.45
  L 235.95 258.89
  A 1.77 1.77 0.0 0 0 238.07 260.58
  Q 241.83 259.82 242.06 263.17
  C 242.30 266.62 244.84 266.75 247.29 267.65
  A 2.27 2.25 -80.5 0 1 248.78 269.75
  Q 248.81 271.71 250.13 273.32
  L 241.31 274.04
  L 236.63 273.18
  A 1.62 1.61 2.6 0 1 235.31 271.74
  L 234.98 268.05
  A 0.79 0.78 -89.1 0 0 234.30 267.34
  L 229.94 266.80
  A 1.45 1.45 0.0 0 1 228.68 265.46
  L 228.00 254.92
  A 0.92 0.91 -89.3 0 0 227.17 254.06
  L 222.63 253.66
  A 0.79 0.78 2.8 0 1 221.92 252.88
  L 221.99 234.66
  A 0.62 0.61 -88.5 0 0 221.41 234.04
  L 216.95 233.79
  A 1.60 1.60 0.0 0 1 215.43 232.20
  L 215.38 221.22
  Q 215.38 220.70 214.85 220.70
  L 209.77 220.70
  Q 209.25 220.70 209.25 221.23
  L 209.31 232.25
  A 1.55 1.55 0.0 0 1 207.75 233.81
  L 203.26 233.76
  A 0.61 0.60 -0.0 0 0 202.65 234.36
  L 202.67 239.95
  A 0.63 0.62 -90.0 0 1 202.05 240.58
  L 189.80 240.62
  A 0.81 0.81 0.0 0 1 188.99 239.80
  L 189.04 228.36
  A 1.34 1.34 0.0 0 1 190.39 227.03
  L 195.18 227.07
  Q 195.74 227.07 195.75 226.52
  L 195.86 220.28
  L 201.65 220.40
  Q 202.25 220.41 202.25 219.81
  L 202.26 201.39
  Q 202.26 200.77 201.64 200.77
  L 196.86 200.78
  A 1.19 1.19 0.0 0 1 195.67 199.61
  L 195.61 194.64
  A 0.47 0.46 88.8 0 0 195.14 194.18
  L 183.25 194.20
  Q 182.70 194.20 182.71 194.75
  L 182.79 198.84
  Q 182.82 200.75 180.91 200.74
  L 176.76 200.74
  A 0.51 0.50 -0.0 0 0 176.25 201.24
  L 176.27 239.77
  A 0.50 0.50 0.0 0 0 176.77 240.27
  L 182.02 240.21
  A 0.89 0.89 0.0 0 1 182.92 241.14
  L 182.69 246.24
  A 0.50 0.50 0.0 0 0 183.19 246.76
  L 196.66 246.79
  L 195.68 253.81
  L 177.41 253.73
  A 1.42 1.41 0.0 0 1 176.00 252.33
  L 175.93 247.65
  A 0.59 0.58 88.6 0 0 175.33 247.07
  L 170.31 247.20
  A 1.01 1.01 0.0 0 1 169.28 246.18
  L 169.34 241.22
  A 0.62 0.62 0.0 0 0 168.72 240.59
  L 163.77 240.59
  A 1.04 1.04 0.0 0 1 162.73 239.55
  L 162.64 220.54
  Q 162.75 221.27 163.00 221.33
  Q 163.53 221.47 163.82 221.01
  Q 164.07 220.64 164.52 220.60
  L 168.24 220.28
  A 1.29 1.27 -2.5 0 0 169.42 219.01
  L 169.48 201.39
  A 0.65 0.65 0.0 0 0 168.84 200.74
  L 162.71 200.65
  L 162.75 194.30
  L 168.40 194.07
  A 0.92 0.91 -89.3 0 0 169.28 193.21
  L 169.60 188.71
  A 1.25 1.24 -88.0 0 1 170.84 187.55
  L 194.93 187.48
  A 1.15 1.15 0.0 0 0 196.08 186.35
  L 196.19 180.64
  L 202.12 180.70
  Q 202.70 180.71 202.69 181.29
  L 202.63 186.62
  A 0.73 0.72 89.3 0 0 203.38 187.36
  L 208.70 187.20
  A 0.51 0.51 0.0 0 1 209.23 187.71
  L 209.37 206.83
  A 0.29 0.28 0.0 0 0 209.66 207.11
  L 215.18 207.18
  Q 215.40 207.18 215.40 206.96
  L 215.51 181.66
  A 0.61 0.61 0.0 0 0 214.91 181.05
  L 209.37 180.97
  Q 208.78 180.96 208.78 180.37
  L 208.79 169.25
  Q 208.79 167.46 210.58 167.46
  L 222.12 167.39
  Z"
/>
<path fill="#fdcf48" d="
  M 235.43 167.32
  L 235.57 180.88
  L 222.69 181.02
  L 222.12 167.39
  L 235.43 167.32
  Z"
/>
<path fill="#f5910d" d="
  M 235.43 167.32
  L 313.88 167.64
  Q 314.85 167.64 314.86 168.61
  L 314.94 180.24
  Q 314.95 180.93 314.25 180.95
  L 308.31 181.08
  L 300.69 180.91
  L 235.57 180.88
  L 235.43 167.32
  Z"
/>
<path fill="#fdcf48" d="
  M 196.19 180.64
  L 196.08 186.35
  A 1.15 1.15 0.0 0 1 194.93 187.48
  L 170.84 187.55
  A 1.25 1.24 -88.0 0 0 169.60 188.71
  L 169.28 193.21
  A 0.92 0.91 -89.3 0 1 168.40 194.07
  L 162.75 194.30
  L 162.77 188.54
  A 1.19 1.19 0.0 0 1 163.94 187.35
  L 168.74 187.30
  Q 169.27 187.30 169.27 186.76
  L 169.28 181.98
  A 1.34 1.34 0.0 0 1 170.62 180.64
  L 196.19 180.64
  Z"
/>
<path fill="#fdcf48" d="
  M 360.79 194.31
  L 355.76 193.69
  A 1.21 1.20 -89.4 0 1 354.70 192.60
  L 354.29 188.31
  A 0.96 0.96 0.0 0 0 353.33 187.44
  L 322.02 187.46
  Q 321.26 187.46 321.21 188.23
  L 320.91 193.00
  A 1.20 1.19 -89.4 0 1 319.78 194.12
  L 314.52 194.40
  L 314.54 188.13
  Q 314.54 187.21 315.46 187.22
  L 320.32 187.30
  Q 320.96 187.31 320.96 186.67
  L 320.98 181.28
  A 0.74 0.73 -0.0 0 1 321.72 180.55
  L 353.40 180.56
  A 0.86 0.85 89.3 0 1 354.25 181.40
  L 354.36 186.77
  Q 354.37 187.30 354.90 187.31
  L 360.20 187.39
  Q 360.76 187.39 360.76 187.95
  L 360.79 194.31
  Z"
/>
<path fill="#9b5104" d="
  M 235.57 180.88
  L 300.69 180.91
  Q 302.97 185.15 301.04 187.66
  L 294.33 187.54
  L 281.37 187.51
  L 262.11 187.68
  L 255.05 187.61
  L 249.24 187.66
  L 228.70 187.62
  L 223.24 187.39
  A 1.33 1.33 0.0 0 1 221.96 186.07
  Q 221.92 182.31 222.69 181.02
  L 235.57 180.88
  Z"
/>
<path fill="#e97901" d="
  M 308.31 181.08
  L 308.27 195.28
  Q 306.66 193.65 303.02 193.94
  A 1.77 1.77 0.0 0 1 301.24 191.51
  Q 302.40 188.70 301.04 187.66
  Q 302.97 185.15 300.69 180.91
  L 308.31 181.08
  Z"
/>
<path fill="#fdcf48" d="
  M 249.24 187.66
  Q 248.59 190.25 248.59 193.50
  Q 248.58 213.60 248.66 233.66
  L 229.51 233.79
  Q 228.70 232.61 228.71 231.75
  Q 228.89 209.84 228.70 187.62
  L 249.24 187.66
  Z"
/>
<path fill="#f5910d" d="
  M 255.05 187.61
  L 255.08 233.58
  L 248.66 233.66
  Q 248.58 213.60 248.59 193.50
  Q 248.59 190.25 249.24 187.66
  L 255.05 187.61
  Z"
/>
<path fill="#fdcf48" d="
  M 255.05 187.61
  L 262.11 187.68
  L 262.09 233.72
  L 255.08 233.58
  L 255.05 187.61
  Z"
/>
<path fill="#f5910d" d="
  M 281.37 187.51
  L 281.90 233.72
  L 262.09 233.72
  L 262.11 187.68
  L 281.37 187.51
  Z"
/>
<path fill="#e97901" d="
  M 281.37 187.51
  L 294.33 187.54
  C 294.51 189.47 294.99 191.26 294.94 193.16
  Q 294.40 215.29 294.97 231.25
  Q 295.01 232.28 296.03 232.94
  Q 296.55 233.28 295.94 233.40
  L 293.94 233.81
  L 281.90 233.72
  L 281.37 187.51
  Z"
/>
<path fill="#f5910d" d="
  M 294.33 187.54
  L 301.04 187.66
  Q 302.40 188.70 301.24 191.51
  A 1.77 1.77 0.0 0 0 303.02 193.94
  Q 306.66 193.65 308.27 195.28
  L 308.27 206.62
  Q 308.27 207.13 308.78 207.14
  L 313.97 207.19
  Q 314.47 207.19 314.47 206.69
  L 314.52 194.40
  L 319.78 194.12
  A 1.20 1.19 -89.4 0 0 320.91 193.00
  L 321.21 188.23
  Q 321.26 187.46 322.02 187.46
  L 353.33 187.44
  A 0.96 0.96 0.0 0 1 354.29 188.31
  L 354.70 192.60
  A 1.21 1.20 -89.4 0 0 355.76 193.69
  L 360.79 194.31
  L 360.73 239.50
  A 1.05 1.04 89.7 0 1 359.70 240.55
  L 354.87 240.60
  Q 354.35 240.61 354.34 241.13
  L 354.20 246.22
  A 0.93 0.93 0.0 0 1 353.29 247.13
  L 348.36 247.21
  A 0.56 0.55 -1.0 0 0 347.81 247.77
  L 347.86 252.05
  A 1.67 1.66 89.7 0 1 346.20 253.74
  L 315.23 253.77
  A 0.49 0.49 0.0 0 0 314.74 254.28
  L 314.96 258.57
  A 1.83 1.83 0.0 0 1 313.11 260.49
  L 308.77 260.45
  A 0.53 0.52 -89.5 0 0 308.24 260.98
  L 308.28 265.20
  Q 308.30 266.95 306.55 266.97
  L 302.82 267.02
  A 1.45 1.45 0.0 0 1 301.35 265.56
  L 301.42 254.55
  A 0.72 0.71 90.0 0 0 300.71 253.83
  L 295.76 253.78
  Q 295.31 253.78 295.29 254.24
  L 294.96 265.03
  A 1.97 1.97 0.0 0 1 293.20 266.93
  L 289.47 267.33
  A 0.69 0.69 0.0 0 0 288.87 267.89
  L 287.83 273.29
  L 275.63 272.80
  A 1.07 1.06 5.7 0 1 274.62 271.57
  Q 274.89 269.85 274.56 268.16
  Q 274.45 267.61 273.92 267.44
  Q 272.19 266.89 270.40 267.11
  A 1.83 1.82 -7.2 0 0 268.81 269.15
  L 269.18 272.00
  A 0.97 0.96 -4.6 0 1 268.25 273.09
  L 255.35 273.45
  L 254.83 268.36
  A 1.20 1.20 0.0 0 0 253.85 267.30
  C 251.86 266.93 249.09 266.77 248.92 264.00
  Q 248.20 252.35 248.93 240.51
  L 275.52 240.43
  L 275.08 264.79
  A 2.30 2.29 1.3 0 0 277.32 267.12
  L 279.67 267.18
  A 2.28 2.27 89.8 0 0 282.00 264.83
  L 281.88 261.04
  A 0.81 0.81 0.0 0 1 282.72 260.20
  L 286.66 260.33
  A 1.80 1.79 -0.7 0 0 288.51 258.44
  C 288.20 252.27 288.48 246.55 287.66 240.44
  L 293.56 240.25
  Q 294.07 240.24 294.30 239.78
  Q 296.15 236.18 293.94 233.81
  L 295.94 233.40
  Q 296.55 233.28 296.03 232.94
  Q 295.01 232.28 294.97 231.25
  Q 294.40 215.29 294.94 193.16
  C 294.99 191.26 294.51 189.47 294.33 187.54
  Z
  M 322.22 220.42
  Q 321.06 220.20 321.09 221.24
  Q 321.16 223.59 321.38 226.00
  Q 321.47 226.93 322.40 227.00
  L 326.91 227.35
  Q 327.44 227.39 327.58 227.90
  Q 328.16 229.97 328.02 232.13
  A 1.05 1.03 12.8 0 0 328.68 233.16
  Q 331.91 234.46 334.62 234.02
  L 334.67 239.98
  A 0.67 0.67 0.0 0 1 334.00 240.65
  L 321.97 240.66
  A 0.95 0.95 0.0 0 1 321.02 239.72
  L 320.98 234.49
  A 0.74 0.74 0.0 0 0 320.16 233.75
  C 318.36 233.94 314.30 234.78 314.45 231.76
  C 314.61 228.18 314.43 224.62 314.50 221.23
  Q 314.52 220.70 313.99 220.70
  L 308.78 220.74
  Q 308.29 220.74 308.29 221.23
  L 308.30 232.63
  Q 308.30 233.81 307.12 233.85
  L 302.06 234.05
  Q 301.68 234.06 301.68 234.44
  L 301.88 252.32
  Q 301.89 253.49 303.07 253.48
  L 306.90 253.44
  Q 307.97 253.42 307.97 252.35
  L 307.94 247.79
  A 0.91 0.90 -0.6 0 1 308.84 246.88
  L 340.43 246.77
  A 0.46 0.45 -0.7 0 0 340.88 246.32
  L 340.80 240.72
  A 0.55 0.54 -89.5 0 1 341.35 240.17
  L 346.65 240.20
  A 0.85 0.85 0.0 0 0 347.51 239.35
  L 347.50 201.46
  A 0.64 0.64 0.0 0 0 346.87 200.82
  L 342.47 200.73
  A 1.50 1.50 0.0 0 1 341.00 199.22
  L 341.02 194.72
  A 0.55 0.55 0.0 0 0 340.47 194.16
  L 328.52 194.19
  A 0.54 0.54 0.0 0 0 327.98 194.73
  L 328.03 199.08
  A 1.64 1.64 0.0 0 1 326.42 200.74
  L 322.00 200.80
  Q 321.49 200.81 321.48 201.32
  Q 321.30 210.86 321.28 219.75
  Q 321.28 220.41 322.22 220.42
  Z"
/>
<path fill="#000000" d="
  M 334.62 234.02
  L 334.49 228.11
  Q 334.47 227.14 333.49 227.12
  L 328.53 227.03
  Q 328.03 227.02 328.03 226.53
  L 328.02 221.25
  A 0.69 0.69 0.0 0 0 327.34 220.56
  L 322.22 220.42
  Q 321.28 220.41 321.28 219.75
  Q 321.30 210.86 321.48 201.32
  Q 321.49 200.81 322.00 200.80
  L 326.42 200.74
  A 1.64 1.64 0.0 0 0 328.03 199.08
  L 327.98 194.73
  A 0.54 0.54 0.0 0 1 328.52 194.19
  L 340.47 194.16
  A 0.55 0.55 0.0 0 1 341.02 194.72
  L 341.00 199.22
  A 1.50 1.50 0.0 0 0 342.47 200.73
  L 346.87 200.82
  A 0.64 0.64 0.0 0 1 347.50 201.46
  L 347.51 239.35
  A 0.85 0.85 0.0 0 1 346.65 240.20
  L 341.35 240.17
  A 0.55 0.54 -89.5 0 0 340.80 240.72
  L 340.88 246.32
  A 0.46 0.45 -0.7 0 1 340.43 246.77
  L 308.84 246.88
  A 0.91 0.90 -0.6 0 0 307.94 247.79
  L 307.97 252.35
  Q 307.97 253.42 306.90 253.44
  L 303.07 253.48
  Q 301.89 253.49 301.88 252.32
  L 301.68 234.44
  Q 301.68 234.06 302.06 234.05
  L 307.12 233.85
  Q 308.30 233.81 308.30 232.63
  L 308.29 221.23
  Q 308.29 220.74 308.78 220.74
  L 313.99 220.70
  Q 314.52 220.70 314.50 221.23
  C 314.43 224.62 314.61 228.18 314.45 231.76
  C 314.30 234.78 318.36 233.94 320.16 233.75
  A 0.74 0.74 0.0 0 1 320.98 234.49
  L 321.02 239.72
  A 0.95 0.95 0.0 0 0 321.97 240.66
  L 334.00 240.65
  A 0.67 0.67 0.0 0 0 334.67 239.98
  L 334.62 234.02
  Z
  M 333.08 220.77
  A 1.05 1.05 0.0 0 1 334.15 221.78
  L 334.33 226.24
  A 1.05 1.05 0.0 0 0 335.35 227.24
  L 340.24 227.40
  A 1.05 1.05 0.0 0 0 341.32 226.36
  L 341.34 201.37
  A 1.05 1.05 0.0 0 0 340.30 200.32
  L 328.66 200.25
  A 1.05 1.05 0.0 0 0 327.61 201.29
  L 327.55 219.80
  A 1.05 1.05 0.0 0 0 328.62 220.85
  L 333.08 220.77
  Z
  M 314.7162 234.7683
  A 1.29 1.29 0.0 0 0 313.3951 233.5102
  L 309.2363 233.6118
  A 1.29 1.29 0.0 0 0 307.9782 234.9330
  L 308.0838 239.2517
  A 1.29 1.29 0.0 0 0 309.4049 240.5098
  L 313.5637 240.4082
  A 1.29 1.29 0.0 0 0 314.8218 239.0870
  L 314.7162 234.7683
  Z"
/>
<path fill="#fdcf48" d="
  M 162.64 220.54
  L 162.71 200.65
  L 168.84 200.74
  A 0.65 0.65 0.0 0 1 169.48 201.39
  L 169.42 219.01
  A 1.29 1.27 -2.5 0 1 168.24 220.28
  L 164.52 220.60
  Q 164.07 220.64 163.82 221.01
  Q 163.53 221.47 163.00 221.33
  Q 162.75 221.27 162.64 220.54
  Z"
/>
<path fill="#fdcf48" d="
  M 322.22 220.42
  L 327.34 220.56
  A 0.69 0.69 0.0 0 1 328.02 221.25
  L 328.03 226.53
  Q 328.03 227.02 328.53 227.03
  L 333.49 227.12
  Q 334.47 227.14 334.49 228.11
  L 334.62 234.02
  Q 331.91 234.46 328.68 233.16
  A 1.05 1.03 12.8 0 1 328.02 232.13
  Q 328.16 229.97 327.58 227.90
  Q 327.44 227.39 326.91 227.35
  L 322.40 227.00
  Q 321.47 226.93 321.38 226.00
  Q 321.16 223.59 321.09 221.24
  Q 321.06 220.20 322.22 220.42
  Z"
/>
<path fill="#9b5104" d="
  M 255.08 233.58
  L 262.09 233.72
  L 281.90 233.72
  L 293.94 233.81
  Q 296.15 236.18 294.30 239.78
  Q 294.07 240.24 293.56 240.25
  L 287.66 240.44
  L 275.52 240.43
  L 248.93 240.51
  L 236.97 240.27
  L 230.73 240.15
  Q 230.26 240.14 230.00 239.75
  Q 227.17 235.46 229.51 233.79
  L 248.66 233.66
  L 255.08 233.58
  Z"
/>
<path fill="#fdcf48" d="
  M 236.97 240.27
  L 248.93 240.51
  Q 248.20 252.35 248.92 264.00
  C 249.09 266.77 251.86 266.93 253.85 267.30
  A 1.20 1.20 0.0 0 1 254.83 268.36
  L 255.35 273.45
  L 250.13 273.32
  Q 248.81 271.71 248.78 269.75
  A 2.27 2.25 -80.5 0 0 247.29 267.65
  C 244.84 266.75 242.30 266.62 242.06 263.17
  Q 241.83 259.82 238.07 260.58
  A 1.77 1.77 0.0 0 1 235.95 258.89
  L 235.52 241.45
  Q 235.50 240.96 235.90 240.68
  Q 236.34 240.36 236.97 240.27
  Z"
/>
<path fill="#e97901" d="
  M 287.66 240.44
  C 288.48 246.55 288.20 252.27 288.51 258.44
  A 1.80 1.79 -0.7 0 1 286.66 260.33
  L 282.72 260.20
  A 0.81 0.81 0.0 0 0 281.88 261.04
  L 282.00 264.83
  A 2.28 2.27 89.8 0 1 279.67 267.18
  L 277.32 267.12
  A 2.30 2.29 1.3 0 1 275.08 264.79
  L 275.52 240.43
  L 287.66 240.44
  Z"
/>
<path fill="#fdcf48" d="
  M 196.66 246.79
  L 208.87 246.80
  L 209.35 252.85
  A 0.74 0.72 3.7 0 0 209.94 253.51
  C 212.32 254.00 214.96 253.53 215.29 257.01
  Q 215.42 258.31 215.78 259.58
  Q 215.92 260.09 216.45 260.18
  L 222.19 261.15
  L 221.97 265.89
  A 0.88 0.88 0.0 0 1 221.14 266.72
  L 217.09 266.89
  A 1.42 1.42 0.0 0 1 215.62 265.59
  L 215.26 261.24
  Q 215.22 260.76 214.74 260.73
  L 209.79 260.36
  A 0.85 0.84 -89.3 0 1 209.01 259.55
  L 208.82 254.52
  A 0.63 0.63 0.0 0 0 208.19 253.91
  L 195.68 253.81
  L 196.66 246.79
  Z"
/>
<path fill="#f5910d" d="
  M 208.87 246.80
  L 214.71 246.86
  A 1.16 1.16 0.0 0 1 215.86 248.04
  L 215.77 252.79
  A 0.52 0.52 0.0 0 0 216.29 253.32
  L 220.51 253.35
  Q 222.29 253.37 222.26 255.14
  L 222.19 261.15
  L 216.45 260.18
  Q 215.92 260.09 215.78 259.58
  Q 215.42 258.31 215.29 257.01
  C 214.96 253.53 212.32 254.00 209.94 253.51
  A 0.74 0.72 3.7 0 1 209.35 252.85
  L 208.87 246.80
  Z"
/>
<path fill="#e97901" d="
  M 287.83 273.29
  L 283.54 274.20
  Q 282.13 274.50 282.13 275.94
  C 282.11 281.33 279.02 280.37 275.37 280.29
  L 268.63 280.35
  Q 265.22 279.75 261.79 280.25
  Q 255.15 279.55 248.31 280.48
  L 244.27 280.16
  A 2.51 2.50 87.5 0 1 242.01 278.09
  L 241.31 274.04
  L 250.13 273.32
  L 255.35 273.45
  L 268.25 273.09
  A 0.97 0.96 -4.6 0 0 269.18 272.00
  L 268.81 269.15
  A 1.83 1.82 -7.2 0 1 270.40 267.11
  Q 272.19 266.89 273.92 267.44
  Q 274.45 267.61 274.56 268.16
  Q 274.89 269.85 274.62 271.57
  A 1.07 1.06 5.7 0 0 275.63 272.80
  L 287.83 273.29
  Z"
/>
<path fill="#f5910d" d="
  M 261.79 280.25
  L 261.70 306.34
  L 248.42 306.47
  L 248.31 280.48
  Q 255.15 279.55 261.79 280.25
  Z"
/>
<path fill="#fdcf48" d="
  M 268.63 280.35
  L 268.75 306.29
  L 261.70 306.34
  L 261.79 280.25
  Q 265.22 279.75 268.63 280.35
  Z"
/>
<path fill="#f5910d" d="
  M 275.37 280.29
  L 275.30 306.40
  L 268.75 306.29
  L 268.63 280.35
  L 275.37 280.29
  Z"
/>
<path fill="#e97901" d="
  M 248.42 306.47
  L 261.70 306.34
  L 268.75 306.29
  L 275.30 306.40
  L 286.59 306.30
  Q 288.41 306.28 288.42 308.10
  L 288.45 319.46
  L 254.84 319.89
  L 241.71 320.10
  L 235.50 319.48
  L 235.48 307.82
  Q 235.48 306.28 237.02 306.30
  L 248.42 306.47
  Z"
/>
<path fill="#f5910d" d="
  M 235.50 319.48
  L 241.71 320.10
  Q 242.55 323.36 242.12 325.62
  A 1.14 1.13 -82.5 0 1 240.93 326.54
  L 236.74 326.27
  A 1.22 1.22 0.0 0 0 235.45 327.51
  L 235.64 338.58
  A 1.14 1.14 0.0 0 1 234.46 339.74
  L 222.14 339.33
  L 222.14 327.46
  Q 222.14 326.20 223.39 326.21
  L 228.24 326.25
  Q 228.74 326.25 228.73 325.76
  L 228.61 321.40
  Q 228.56 319.43 230.53 319.45
  L 235.50 319.48
  Z"
/>
<path fill="#f5910d" d="
  M 288.45 319.46
  C 290.39 319.88 292.31 319.15 294.55 319.92
  Q 295.01 320.08 295.01 320.56
  L 295.01 325.75
  Q 295.01 326.24 295.50 326.24
  L 300.23 326.21
  A 1.38 1.38 0.0 0 1 301.62 327.60
  L 301.48 339.48
  L 249.78 339.58
  A 1.08 1.08 0.0 0 1 248.70 338.50
  L 248.74 327.04
  A 0.73 0.73 0.0 0 1 249.46 326.31
  L 254.43 326.23
  A 0.71 0.70 3.3 0 0 255.12 325.62
  Q 255.59 322.26 254.84 319.89
  L 288.45 319.46
  Z"
/>
<path fill="#fdcf48" d="
  M 254.84 319.89
  Q 255.59 322.26 255.12 325.62
  A 0.71 0.70 3.3 0 1 254.43 326.23
  L 249.46 326.31
  A 0.73 0.73 0.0 0 0 248.74 327.04
  L 248.70 338.50
  A 1.08 1.08 0.0 0 0 249.78 339.58
  L 301.48 339.48
  L 313.41 339.45
  Q 314.90 339.45 314.91 340.94
  L 314.93 346.96
  L 308.60 346.37
  L 274.62 346.26
  L 243.19 346.15
  Q 242.17 346.15 242.19 347.16
  L 242.55 366.24
  L 215.85 366.24
  L 215.66 347.64
  Q 215.65 346.25 214.26 346.07
  Q 211.74 345.75 208.80 346.49
  L 208.87 340.50
  Q 208.88 339.43 209.96 339.42
  L 222.14 339.33
  L 234.46 339.74
  A 1.14 1.14 0.0 0 0 235.64 338.58
  L 235.45 327.51
  A 1.22 1.22 0.0 0 1 236.74 326.27
  L 240.93 326.54
  A 1.14 1.13 -82.5 0 0 242.12 325.62
  Q 242.55 323.36 241.71 320.10
  L 254.84 319.89
  Z"
/>
<path fill="#f5910d" d="
  M 215.85 366.24
  L 209.46 366.21
  A 0.58 0.58 0.0 0 1 208.89 365.63
  L 208.80 346.49
  Q 211.74 345.75 214.26 346.07
  Q 215.65 346.25 215.66 347.64
  L 215.85 366.24
  Z"
/>
<path fill="#f5910d" d="
  M 274.62 346.26
  L 275.01 366.25
  L 242.55 366.24
  L 242.19 347.16
  Q 242.17 346.15 243.19 346.15
  L 274.62 346.26
  Z"
/>
<path fill="#e97901" d="
  M 274.62 346.26
  L 308.60 346.37
  Q 307.22 356.30 308.84 366.21
  L 275.01 366.25
  L 274.62 346.26
  Z"
/>
<path fill="#f5910d" d="
  M 314.93 346.96
  L 314.92 365.50
  Q 314.92 366.06 314.36 366.08
  L 308.84 366.21
  Q 307.22 356.30 308.60 346.37
  L 314.93 346.96
  Z"
/>
</svg>
