<?xml version="1.0" encoding="UTF-8" standalone="no"?>
<!DOCTYPE svg PUBLIC "-//W3C//DTD SVG 1.0//EN" "http://www.w3.org/TR/2001/REC-SVG-20010904/DTD/svg10.dtd">
<svg xmlns="http://www.w3.org/2000/svg" version="1.0" viewBox="0.00 0.00 248.00 240.00">
<g stroke-width="2.00" fill="none" stroke-linecap="butt">
<path stroke="#f9dd90" vector-effect="non-scaling-stroke" d="
  M 121.89 203.93
  Q 122.42 204.04 123.12 204.41
  Q 149.33 218.19 175.54 231.94
  C 183.33 236.03 193.37 231.96 194.94 223.44
  Q 195.48 220.51 194.04 212.10
  Q 189.55 185.81 185.01 159.49
  A 3.51 3.50 63.0 0 1 186.02 156.37
  Q 207.71 135.23 228.71 114.45
  C 234.76 108.46 233.51 98.56 227.05 94.42
  Q 224.04 92.49 214.03 91.05
  Q 188.36 87.35 162.27 83.59
  A 3.22 3.21 -9.0 0 1 159.84 81.83
  Q 146.52 54.91 132.97 27.93
  C 129.16 20.34 119.25 18.40 113.16 23.70
  Q 110.87 25.69 107.47 32.59
  Q 95.42 57.06 83.14 82.01
  A 2.76 2.76 0.0 0 1 81.06 83.53
  Q 52.92 87.61 24.62 91.74
  C 18.97 92.56 14.54 93.72 12.05 98.56
  Q 7.24 107.90 15.03 115.48
  Q 35.06 135.00 55.13 154.48
  C 57.09 156.39 58.37 157.30 57.95 159.75
  Q 53.10 187.76 48.37 215.80
  Q 47.52 220.86 47.98 223.23
  C 49.15 229.30 55.19 233.97 61.25 233.68
  Q 64.35 233.53 70.20 230.46
  Q 95.34 217.27 120.29 204.15
  A 2.37 2.37 0.0 0 1 121.89 203.93"
/>
<path stroke="#f9dd90" vector-effect="non-scaling-stroke" d="
  M 94.33 83.76
  C 92.00 88.56 89.37 93.09 84.75 93.76
  Q 56.13 97.91 27.49 102.00
  C 25.72 102.25 22.21 102.54 21.22 104.16
  Q 20.25 105.73 21.91 107.34
  Q 43.54 128.33 65.19 149.31
  Q 69.80 153.77 68.73 160.00
  Q 63.60 189.75 58.51 219.50
  C 57.69 224.34 62.62 222.55 64.69 221.45
  Q 90.17 207.91 115.74 194.54
  C 121.95 191.29 125.03 193.31 130.53 196.21
  Q 151.90 207.47 173.17 218.90
  Q 177.21 221.08 181.42 222.73
  A 2.31 2.31 0.0 0 0 184.54 220.19
  Q 179.55 190.36 174.33 159.99
  Q 173.36 154.32 176.31 151.07
  Q 180.15 146.82 189.84 137.59
  C 201.19 126.79 210.98 117.06 221.45 106.71
  C 222.66 105.51 222.00 103.66 220.36 103.14
  Q 219.44 102.85 218.47 102.71
  C 203.29 100.41 188.29 98.03 172.92 96.02
  Q 161.09 94.47 157.33 93.40
  Q 153.13 92.20 151.18 88.29
  Q 137.53 60.81 123.97 33.29
  C 122.77 30.87 120.28 30.86 119.07 33.30
  Q 106.62 58.49 94.33 83.76"
/>
</g>
<path fill="#ffffff" d="
  M 0.00 0.00
  L 248.00 0.00
  L 248.00 240.00
  L 0.00 240.00
  L 0.00 0.00
  Z
  M 121.89 203.93
  Q 122.42 204.04 123.12 204.41
  Q 149.33 218.19 175.54 231.94
  C 183.33 236.03 193.37 231.96 194.94 223.44
  Q 195.48 220.51 194.04 212.10
  Q 189.55 185.81 185.01 159.49
  A 3.51 3.50 63.0 0 1 186.02 156.37
  Q 207.71 135.23 228.71 114.45
  C 234.76 108.46 233.51 98.56 227.05 94.42
  Q 224.04 92.49 214.03 91.05
  Q 188.36 87.35 162.27 83.59
  A 3.22 3.21 -9.0 0 1 159.84 81.83
  Q 146.52 54.91 132.97 27.93
  C 129.16 20.34 119.25 18.40 113.16 23.70
  Q 110.87 25.69 107.47 32.59
  Q 95.42 57.06 83.14 82.01
  A 2.76 2.76 0.0 0 1 81.06 83.53
  Q 52.92 87.61 24.62 91.74
  C 18.97 92.56 14.54 93.72 12.05 98.56
  Q 7.24 107.90 15.03 115.48
  Q 35.06 135.00 55.13 154.48
  C 57.09 156.39 58.37 157.30 57.95 159.75
  Q 53.10 187.76 48.37 215.80
  Q 47.52 220.86 47.98 223.23
  C 49.15 229.30 55.19 233.97 61.25 233.68
  Q 64.35 233.53 70.20 230.46
  Q 95.34 217.27 120.29 204.15
  A 2.37 2.37 0.0 0 1 121.89 203.93
  Z"
/>
<path fill="#f2bb21" d="
  M 121.89 203.93
  A 2.37 2.37 0.0 0 0 120.29 204.15
  Q 95.34 217.27 70.20 230.46
  Q 64.35 233.53 61.25 233.68
  C 55.19 233.97 49.15 229.30 47.98 223.23
  Q 47.52 220.86 48.37 215.80
  Q 53.10 187.76 57.95 159.75
  C 58.37 157.30 57.09 156.39 55.13 154.48
  Q 35.06 135.00 15.03 115.48
  Q 7.24 107.90 12.05 98.56
  C 14.54 93.72 18.97 92.56 24.62 91.74
  Q 52.92 87.61 81.06 83.53
  A 2.76 2.76 0.0 0 0 83.14 82.01
  Q 95.42 57.06 107.47 32.59
  Q 110.87 25.69 113.16 23.70
  C 119.25 18.40 129.16 20.34 132.97 27.93
  Q 146.52 54.91 159.84 81.83
  A 3.22 3.21 -9.0 0 0 162.27 83.59
  Q 188.36 87.35 214.03 91.05
  Q 224.04 92.49 227.05 94.42
  C 233.51 98.56 234.76 108.46 228.71 114.45
  Q 207.71 135.23 186.02 156.37
  A 3.51 3.50 63.0 0 0 185.01 159.49
  Q 189.55 185.81 194.04 212.10
  Q 195.48 220.51 194.94 223.44
  C 193.37 231.96 183.33 236.03 175.54 231.94
  Q 149.33 218.19 123.12 204.41
  Q 122.42 204.04 121.89 203.93
  Z
  M 94.33 83.76
  C 92.00 88.56 89.37 93.09 84.75 93.76
  Q 56.13 97.91 27.49 102.00
  C 25.72 102.25 22.21 102.54 21.22 104.16
  Q 20.25 105.73 21.91 107.34
  Q 43.54 128.33 65.19 149.31
  Q 69.80 153.77 68.73 160.00
  Q 63.60 189.75 58.51 219.50
  C 57.69 224.34 62.62 222.55 64.69 221.45
  Q 90.17 207.91 115.74 194.54
  C 121.95 191.29 125.03 193.31 130.53 196.21
  Q 151.90 207.47 173.17 218.90
  Q 177.21 221.08 181.42 222.73
  A 2.31 2.31 0.0 0 0 184.54 220.19
  Q 179.55 190.36 174.33 159.99
  Q 173.36 154.32 176.31 151.07
  Q 180.15 146.82 189.84 137.59
  C 201.19 126.79 210.98 117.06 221.45 106.71
  C 222.66 105.51 222.00 103.66 220.36 103.14
  Q 219.44 102.85 218.47 102.71
  C 203.29 100.41 188.29 98.03 172.92 96.02
  Q 161.09 94.47 157.33 93.40
  Q 153.13 92.20 151.18 88.29
  Q 137.53 60.81 123.97 33.29
  C 122.77 30.87 120.28 30.86 119.07 33.30
  Q 106.62 58.49 94.33 83.76
  Z"
/>
<path fill="#ffffff" d="
  M 94.33 83.76
  Q 106.62 58.49 119.07 33.30
  C 120.28 30.86 122.77 30.87 123.97 33.29
  Q 137.53 60.81 151.18 88.29
  Q 153.13 92.20 157.33 93.40
  Q 161.09 94.47 172.92 96.02
  C 188.29 98.03 203.29 100.41 218.47 102.71
  Q 219.44 102.85 220.36 103.14
  C 222.00 103.66 222.66 105.51 221.45 106.71
  C 210.98 117.06 201.19 126.79 189.84 137.59
  Q 180.15 146.82 176.31 151.07
  Q 173.36 154.32 174.33 159.99
  Q 179.55 190.36 184.54 220.19
  A 2.31 2.31 0.0 0 1 181.42 222.73
  Q 177.21 221.08 173.17 218.90
  Q 151.90 207.47 130.53 196.21
  C 125.03 193.31 121.95 191.29 115.74 194.54
  Q 90.17 207.91 64.69 221.45
  C 62.62 222.55 57.69 224.34 58.51 219.50
  Q 63.60 189.75 68.73 160.00
  Q 69.80 153.77 65.19 149.31
  Q 43.54 128.33 21.91 107.34
  Q 20.25 105.73 21.22 104.16
  C 22.21 102.54 25.72 102.25 27.49 102.00
  Q 56.13 97.91 84.75 93.76
  C 89.37 93.09 92.00 88.56 94.33 83.76
  Z"
/>
</svg>
