<?xml version="1.0" encoding="UTF-8" standalone="no"?>
<!DOCTYPE svg PUBLIC "-//W3C//DTD SVG 1.0//EN" "http://www.w3.org/TR/2001/REC-SVG-20010904/DTD/svg10.dtd">
<svg xmlns="http://www.w3.org/2000/svg" version="1.0" viewBox="0.00 0.00 500.00 499.00">
<path fill="#000000" d="
  M 500.00 194.10
  L 500.00 197.30
  C 494.04 206.30 484.96 213.09 476.85 220.10
  Q 424.16 265.66 371.85 310.64
  A 3.29 3.27 -27.1 0 0 370.79 313.90
  C 373.20 324.14 375.98 334.79 378.16 344.21
  Q 391.99 404.00 406.19 463.71
  C 408.04 471.51 410.45 480.69 400.91 484.89
  Q 395.19 487.41 389.05 483.71
  Q 320.39 442.35 251.45 400.93
  A 3.38 3.37 44.9 0 0 247.98 400.93
  Q 184.28 439.26 120.65 477.69
  Q 114.78 481.23 108.74 484.45
  C 102.29 487.89 94.47 484.80 92.12 478.03
  C 90.97 474.71 91.56 471.26 92.38 467.76
  C 104.30 416.94 116.01 366.07 128.04 315.27
  C 128.68 312.57 128.77 311.50 126.42 309.65
  Q 121.39 305.68 119.89 304.37
  Q 83.57 272.88 47.25 241.37
  C 33.42 229.37 16.36 215.27 5.17 204.84
  Q 2.92 202.74 0.00 197.50
  L 0.00 193.72
  C 3.41 188.27 5.53 184.21 12.75 183.47
  C 21.62 182.55 30.63 181.99 39.39 181.08
  Q 47.45 180.24 55.52 179.62
  Q 66.76 178.75 77.99 177.83
  Q 125.49 173.92 172.75 169.89
  A 3.66 3.65 8.5 0 0 175.83 167.62
  Q 179.70 158.12 183.89 148.35
  Q 207.76 92.73 238.30 20.06
  C 242.65 9.72 255.82 8.96 260.54 19.49
  C 267.26 34.46 274.13 51.35 279.81 64.74
  Q 301.81 116.55 323.68 168.05
  A 3.10 3.09 -10.1 0 0 326.39 169.93
  Q 333.05 170.25 339.76 170.85
  Q 391.12 175.44 442.50 179.74
  Q 444.75 179.93 447.01 179.98
  C 450.55 180.06 453.95 180.71 457.47 180.93
  C 463.32 181.30 469.47 181.88 475.34 182.59
  C 479.98 183.15 484.35 183.16 488.98 184.13
  C 494.74 185.34 496.79 189.03 500.00 194.10
  Z"
/>
</svg>
