<?xml version="1.0" encoding="UTF-8" standalone="no"?>
<!DOCTYPE svg PUBLIC "-//W3C//DTD SVG 1.0//EN" "http://www.w3.org/TR/2001/REC-SVG-20010904/DTD/svg10.dtd">
<svg xmlns="http://www.w3.org/2000/svg" version="1.0" viewBox="0.00 0.00 248.00 240.00">
<path fill="#f1bb24" d="
  M 186.15 156.15
  C 184.99 157.27 184.72 158.12 185.05 160.00
  Q 189.62 186.34 194.14 212.72
  Q 195.48 220.55 194.96 223.34
  C 193.80 229.63 187.05 234.38 180.53 233.55
  Q 178.12 233.24 173.91 231.05
  Q 148.49 217.83 122.55 204.04
  A 2.18 2.18 0.0 0 0 120.51 204.04
  Q 95.57 217.19 70.30 230.38
  Q 64.29 233.51 61.03 233.57
  C 53.90 233.71 47.28 227.56 47.73 220.26
  Q 47.84 218.32 48.98 211.75
  Q 53.52 185.50 57.98 159.34
  A 3.24 3.23 27.2 0 0 57.06 156.48
  Q 35.70 135.56 14.97 115.57
  C 8.55 109.38 8.56 98.14 16.82 93.72
  Q 19.11 92.49 24.91 91.64
  Q 53.04 87.49 80.77 83.58
  A 3.35 3.34 -81.0 0 0 83.30 81.74
  Q 96.75 54.06 110.07 27.33
  Q 111.68 24.11 115.23 22.35
  C 121.99 19.01 130.04 21.40 133.44 28.31
  Q 146.61 55.14 159.87 81.91
  Q 160.60 83.40 162.24 83.63
  Q 190.08 87.57 218.12 91.66
  Q 224.30 92.57 226.81 94.10
  C 232.48 97.56 234.41 106.57 230.92 111.90
  Q 229.18 114.58 224.15 119.40
  Q 205.09 137.72 186.15 156.15
  Z
  M 159.60 94.01
  Q 153.47 93.11 150.30 86.73
  Q 136.98 59.88 123.81 32.92
  A 2.59 2.58 -23.0 0 0 120.59 31.63
  Q 119.81 31.92 119.12 33.30
  Q 105.59 60.47 92.19 87.71
  Q 89.59 93.00 84.50 93.74
  Q 54.00 98.22 23.49 102.63
  Q 21.49 102.92 21.10 104.55
  C 20.68 106.34 22.82 108.29 24.03 109.47
  Q 44.26 128.90 64.30 148.52
  C 67.07 151.23 69.61 154.70 69.00 158.25
  Q 63.65 189.49 58.43 220.00
  A 2.53 2.53 0.0 0 0 62.10 222.66
  Q 88.26 208.92 114.02 195.35
  Q 116.85 193.86 119.24 193.12
  C 123.52 191.79 127.55 194.67 131.54 196.74
  Q 153.29 208.04 174.89 219.65
  Q 178.12 221.38 181.33 222.76
  A 2.40 2.40 0.0 0 0 184.63 220.14
  Q 179.44 190.39 174.12 160.03
  Q 173.18 154.62 176.43 150.94
  Q 180.08 146.81 190.20 137.20
  C 201.15 126.81 210.92 117.03 221.26 106.98
  A 2.38 2.38 0.0 0 0 221.15 103.47
  Q 220.39 102.82 218.99 102.62
  Q 189.29 98.34 159.60 94.01
  Z"
/>
</svg>
