<?xml version="1.0" encoding="UTF-8" standalone="no"?>
<!DOCTYPE svg PUBLIC "-//W3C//DTD SVG 1.0//EN" "http://www.w3.org/TR/2001/REC-SVG-20010904/DTD/svg10.dtd">
<svg xmlns="http://www.w3.org/2000/svg" version="1.0" viewBox="0.00 0.00 586.00 426.00">
<g stroke-width="2.00" fill="none" stroke-linecap="butt">
<path stroke="#7f6824" vector-effect="non-scaling-stroke" d="
  M 257.26 91.74
  L 232.62 91.64
  Q 231.99 91.64 231.99 92.27
  L 231.98 97.41
  Q 231.97 98.05 231.34 98.02
  L 226.44 97.81
  A 0.56 0.55 0.5 0 0 225.86 98.37
  L 225.90 104.88"
/>
<path stroke="#7a4908" vector-effect="non-scaling-stroke" d="
  M 225.90 104.88
  L 225.84 111.29"
/>
<path stroke="#7f6824" vector-effect="non-scaling-stroke" d="
  M 225.84 111.29
  L 226.10 135.47"
/>
<path stroke="#7a4908" vector-effect="non-scaling-stroke" d="
  M 226.10 135.47
  L 226.00 147.63
  A 0.68 0.68 0.0 0 0 226.74 148.31
  L 230.94 147.96
  A 0.99 0.98 -2.4 0 1 232.01 148.94
  L 231.99 153.75
  A 0.92 0.91 -2.8 0 0 233.00 154.66
  L 237.41 154.20
  A 0.72 0.71 -2.5 0 1 238.20 154.92
  L 238.17 159.19
  A 1.49 1.48 -89.8 0 0 239.65 160.69
  L 257.57 160.73"
/>
<path stroke="#7f6824" vector-effect="non-scaling-stroke" d="
  M 257.57 160.73
  L 268.20 160.80
  A 0.99 0.99 0.0 0 1 269.18 161.76
  L 269.29 165.20
  A 1.73 1.72 -89.8 0 0 270.93 166.86
  L 274.54 167.04
  A 0.91 0.90 0.7 0 1 275.41 167.92
  L 275.48 172.00
  A 1.23 1.23 0.0 0 0 276.76 173.20
  L 280.84 173.02
  Q 281.99 172.97 281.98 171.81
  L 281.92 160.79"
/>
<path stroke="#7a4908" vector-effect="non-scaling-stroke" d="
  M 281.92 160.79
  L 286.34 160.89
  A 0.91 0.90 87.9 0 1 287.23 161.72
  L 288.08 171.73
  A 1.54 1.53 0.0 0 0 289.48 173.12
  L 292.91 173.42
  A 1.18 1.16 87.4 0 1 293.97 174.40
  L 294.58 178.11
  A 0.80 0.79 -89.6 0 0 295.22 178.77
  L 299.31 179.52"
/>
<path stroke="#753d01" vector-effect="non-scaling-stroke" d="
  M 299.31 179.52
  Q 300.15 185.58 303.98 185.73
  Q 305.10 185.77 305.44 186.00
  Q 306.17 186.47 306.23 187.46"
/>
<path stroke="#7a4908" vector-effect="non-scaling-stroke" d="
  M 306.23 187.46
  L 306.42 210.24"
/>
<path stroke="#753d01" vector-effect="non-scaling-stroke" d="
  M 306.42 210.24
  L 295.17 210.04
  Q 294.39 210.02 294.39 210.81
  L 294.41 222.50"
/>
<path stroke="#7a4908" vector-effect="non-scaling-stroke" d="
  M 294.41 222.50
  L 288.96 222.45
  A 1.10 1.09 90.0 0 0 287.86 223.56
  L 287.91 228.17
  A 0.79 0.79 0.0 0 1 287.06 228.97
  L 282.00 228.61
  Q 281.55 228.57 281.56 229.02
  L 281.73 241.30"
/>
<path stroke="#7f6824" vector-effect="non-scaling-stroke" d="
  M 281.73 241.30
  L 269.59 241.25
  Q 269.05 241.25 269.07 241.80
  L 269.29 248.09"
/>
<path stroke="#7a4908" vector-effect="non-scaling-stroke" d="
  M 269.29 248.09
  L 269.22 265.85
  A 0.86 0.85 89.7 0 0 270.08 266.71
  L 276.54 266.69"
/>
<path stroke="#7f6824" vector-effect="non-scaling-stroke" d="
  M 276.54 266.69
  L 300.87 266.67"
/>
<path stroke="#7a4908" vector-effect="non-scaling-stroke" d="
  M 300.87 266.67
  L 331.92 266.68"
/>
<path stroke="#753d01" vector-effect="non-scaling-stroke" d="
  M 331.92 266.68
  L 368.60 266.64
  A 0.60 0.59 -0.5 0 0 369.19 266.05
  L 369.21 248.06"
/>
<path stroke="#7f6824" vector-effect="non-scaling-stroke" d="
  M 369.21 248.06
  L 369.15 241.95
  A 0.68 0.68 0.0 0 0 368.46 241.28
  L 356.48 241.41"
/>
<path stroke="#7a4908" vector-effect="non-scaling-stroke" d="
  M 356.48 241.41
  L 356.53 229.25
  Q 356.53 228.72 356.00 228.73
  L 350.96 228.82
  A 0.61 0.60 0.4 0 1 350.34 228.20
  L 350.44 223.48
  A 0.93 0.93 0.0 0 0 349.48 222.53
  L 344.55 222.69
  Q 344.38 222.70 344.24 222.58
  Q 344.06 222.43 344.17 222.37"
/>
<path stroke="#753d01" vector-effect="non-scaling-stroke" d="
  M 344.17 222.37
  L 344.33 210.57
  Q 344.34 210.06 343.83 210.07
  L 332.01 210.14"
/>
<path stroke="#7a4908" vector-effect="non-scaling-stroke" d="
  M 332.01 210.14
  L 332.10 186.84"
/>
<path stroke="#753d01" vector-effect="non-scaling-stroke" d="
  M 332.10 186.84
  Q 333.71 185.59 336.51 185.35
  A 1.30 1.30 0.0 0 0 337.68 184.31
  L 338.34 181.07
  A 1.02 1.02 0.0 0 1 339.00 180.32
  L 341.73 179.35"
/>
<path stroke="#7a4908" vector-effect="non-scaling-stroke" d="
  M 341.73 179.35
  C 344.74 179.26 344.20 176.44 344.74 174.57
  Q 344.90 174.01 345.46 173.84
  L 348.83 172.84
  A 1.73 1.73 0.0 0 0 350.06 171.39
  L 351.20 162.49
  Q 351.37 161.10 352.76 160.92
  L 355.00 160.62
  Q 356.58 160.41 356.53 162.00
  L 356.25 171.26
  A 1.76 1.76 0.0 0 0 358.02 173.07
  L 361.28 173.04
  A 1.72 1.71 88.1 0 0 362.98 171.22
  L 362.74 167.50
  A 0.51 0.51 0.0 0 1 363.25 166.96
  L 366.63 167.00
  Q 369.03 167.03 369.03 164.62
  L 369.03 161.20
  Q 369.03 160.67 369.55 160.67
  L 399.74 160.50
  A 0.49 0.48 -90.0 0 0 400.22 160.01
  L 400.19 154.78
  A 0.50 0.50 0.0 0 1 400.72 154.28
  L 405.45 154.51
  A 0.71 0.71 0.0 0 0 406.19 153.80
  L 406.20 148.71
  Q 406.20 148.12 406.79 148.12
  L 411.56 148.16
  A 0.85 0.84 -89.7 0 0 412.41 147.31
  L 412.40 104.86"
/>
<path stroke="#7f6824" vector-effect="non-scaling-stroke" d="
  M 412.40 104.86
  L 412.50 98.22
  Q 412.50 97.71 412.00 97.74
  L 407.20 98.04
  A 0.85 0.85 0.0 0 1 406.29 97.20
  L 406.21 92.27
  A 0.69 0.68 -0.4 0 0 405.52 91.60
  L 375.47 91.73
  Q 374.93 91.73 374.89 92.27
  L 374.46 97.47
  Q 374.43 97.87 374.03 97.85
  L 369.57 97.68
  A 0.66 0.65 -88.3 0 0 368.89 98.33
  L 368.81 105.57"
/>
<path stroke="#7a4908" vector-effect="non-scaling-stroke" d="
  M 368.81 105.57
  L 368.74 115.75
  A 1.01 1.00 1.1 0 1 367.70 116.74
  L 363.93 116.63
  Q 362.77 116.59 362.78 115.44
  L 362.88 92.60
  Q 362.88 92.08 363.40 92.06
  L 368.08 91.88
  A 0.98 0.97 -0.6 0 0 369.02 90.93
  L 369.23 79.75
  Q 369.24 79.21 368.71 79.21
  L 358.00 79.27"
/>
<path stroke="#753d01" vector-effect="non-scaling-stroke" d="
  M 358.00 79.27
  L 344.54 79.21"
/>
<path stroke="#7a4908" vector-effect="non-scaling-stroke" d="
  M 344.54 79.21
  L 294.39 79.26"
/>
<path stroke="#7f6824" vector-effect="non-scaling-stroke" d="
  M 294.39 79.26
  L 281.62 79.26"
/>
<path stroke="#7a4908" vector-effect="non-scaling-stroke" d="
  M 281.62 79.26
  L 270.44 79.27
  A 1.21 1.20 -0.2 0 0 269.23 80.48
  L 269.29 91.30
  Q 269.29 91.80 269.80 91.82
  L 275.04 92.03
  Q 275.52 92.05 275.52 92.54
  L 275.43 116.02
  A 0.68 0.68 0.0 0 1 274.73 116.70
  L 270.44 116.62
  Q 269.81 116.61 269.80 115.97
  L 269.62 98.73
  A 1.06 1.06 0.0 0 0 268.48 97.68
  L 263.99 97.98
  Q 263.48 98.02 263.49 97.50
  L 263.59 93.01
  Q 263.62 91.54 262.15 91.59
  L 257.26 91.74"
/>
<path stroke="#f9b02c" vector-effect="non-scaling-stroke" d="
  M 281.62 79.26
  C 281.73 82.54 280.99 89.55 282.55 92.07"
/>
<path stroke="#c97109" vector-effect="non-scaling-stroke" d="
  M 282.55 92.07
  Q 282.22 92.09 281.89 92.31
  A 1.00 1.00 0.0 0 0 281.44 93.02
  Q 281.10 95.27 281.78 97.40
  A 0.82 0.82 0.0 0 0 282.53 97.96
  L 288.05 98.11"
/>
<path stroke="#f9b02c" vector-effect="non-scaling-stroke" d="
  M 288.05 98.11
  Q 288.00 119.42 288.07 140.43
  Q 288.08 141.73 289.80 141.93"
/>
<path stroke="#c97109" vector-effect="non-scaling-stroke" d="
  M 289.80 141.93
  Q 289.13 141.75 288.63 142.10
  Q 288.24 142.39 288.16 143.05
  Q 288.00 144.60 288.29 146.26
  A 1.79 1.79 0.0 0 0 290.54 147.67
  Q 292.75 147.05 294.63 147.98"
/>
<path stroke="#f9b02c" vector-effect="non-scaling-stroke" d="
  M 294.63 147.98
  Q 293.63 156.33 295.23 165.43
  A 1.86 1.86 0.0 0 0 296.92 166.96
  C 301.13 167.29 299.75 170.14 301.87 171.89
  C 303.20 172.99 304.79 172.88 306.25 174.26
  A 1.63 1.58 -75.7 0 1 306.73 175.10
  Q 307.26 177.49 308.22 178.89"
/>
<path stroke="#ef8609" vector-effect="non-scaling-stroke" d="
  M 308.22 178.89
  L 299.31 179.52"
/>
<path stroke="#f9b02c" vector-effect="non-scaling-stroke" d="
  M 281.92 160.79
  L 278.65 160.34"
/>
<path stroke="#7a4908" vector-effect="non-scaling-stroke" d="
  M 278.65 160.34
  L 281.03 160.26
  Q 281.58 160.24 281.58 159.69
  L 281.59 142.58
  A 0.53 0.53 0.0 0 0 281.10 142.05
  L 276.04 141.65
  A 0.60 0.60 0.0 0 1 275.48 141.05
  L 275.42 129.82
  A 0.43 0.43 0.0 0 0 274.98 129.39
  L 270.16 129.47
  Q 269.68 129.48 269.68 129.97
  L 269.78 140.71
  A 1.19 1.18 -88.6 0 1 268.53 141.91
  L 264.19 141.69
  A 0.63 0.63 0.0 0 0 263.53 142.31
  L 263.42 147.55
  A 0.69 0.69 0.0 0 1 262.73 148.22
  L 251.25 148.17
  A 0.67 0.66 -90.0 0 1 250.59 147.50
  L 250.63 137.16
  A 1.78 1.77 89.2 0 1 252.34 135.39
  L 256.22 135.24
  Q 256.91 135.22 256.88 134.53
  L 256.73 130.02
  A 0.95 0.95 0.0 0 1 257.73 129.04
  L 262.47 129.31
  A 0.54 0.54 0.0 0 0 263.04 128.77
  L 263.08 111.08
  Q 263.08 110.74 262.74 110.74
  L 258.23 110.71
  A 1.47 1.47 0.0 0 1 256.77 109.23
  L 256.82 105.03
  A 0.54 0.54 0.0 0 0 256.28 104.49
  L 245.25 104.48
  Q 244.69 104.48 244.65 105.04
  Q 244.54 106.64 244.78 108.25
  C 245.28 111.47 241.18 110.80 239.33 110.56
  A 0.69 0.67 -86.0 0 0 238.56 111.24
  L 238.64 147.17
  A 0.73 0.73 0.0 0 0 239.41 147.90
  L 243.96 147.69
  A 0.77 0.76 89.0 0 1 244.76 148.47
  L 244.72 153.24
  A 0.77 0.77 0.0 0 0 245.49 154.02
  L 256.76 154.02"
/>
<path stroke="#f9b02c" vector-effect="non-scaling-stroke" d="
  M 256.76 154.02
  L 257.57 160.73"
/>
<path stroke="#f9b02c" vector-effect="non-scaling-stroke" d="
  M 226.10 135.47
  Q 227.59 133.94 227.35 130.99
  A 1.02 1.01 71.0 0 1 227.80 130.06
  Q 229.13 129.16 230.75 128.87
  A 0.92 0.90 6.0 0 0 231.42 128.34
  Q 232.02 127.00 232.01 125.50
  Q 231.97 118.48 231.98 111.71
  A 1.13 1.13 0.0 0 0 230.97 110.59
  L 226.52 110.11
  Q 226.11 110.07 226.02 110.48
  L 225.84 111.29"
/>
<path stroke="#f9b02c" vector-effect="non-scaling-stroke" d="
  M 225.90 104.88
  L 231.10 103.95
  Q 231.59 103.86 231.67 103.36
  L 232.35 98.98
  Q 232.47 98.19 233.27 98.19
  L 255.95 98.15
  A 1.05 1.04 1.1 0 0 257.00 97.15
  L 257.26 91.74"
/>
<path stroke="#f9b02c" vector-effect="non-scaling-stroke" d="
  M 294.39 79.26
  L 294.44 91.95"
/>
<path stroke="#ce9025" vector-effect="non-scaling-stroke" d="
  M 294.44 91.95
  L 282.55 92.07"
/>
<path stroke="#f9b02c" vector-effect="non-scaling-stroke" d="
  M 306.93 148.03
  L 307.05 170.29
  A 2.44 2.42 5.2 0 0 309.04 172.66
  Q 313.61 173.52 313.22 178.95"
/>
<path stroke="#f4a525" vector-effect="non-scaling-stroke" d="
  M 313.22 178.95
  L 308.22 178.89"
/>
<path stroke="#7f6824" vector-effect="non-scaling-stroke" d="
  M 278.65 160.34
  L 276.53 160.20
  Q 275.94 160.16 275.94 159.57
  L 275.93 155.47
  A 1.35 1.34 0.2 0 0 274.59 154.13
  L 256.76 154.02"
/>
<path stroke="#c36502" vector-effect="non-scaling-stroke" d="
  M 344.24 147.70
  L 331.06 147.82"
/>
<path stroke="#c97109" vector-effect="non-scaling-stroke" d="
  M 331.06 147.82
  L 306.93 148.03"
/>
<path stroke="#ce9025" vector-effect="non-scaling-stroke" d="
  M 306.93 148.03
  L 294.63 147.98"
/>
<path stroke="#f9b02c" vector-effect="non-scaling-stroke" d="
  M 306.93 98.19
  L 306.96 141.59"
/>
<path stroke="#ce9025" vector-effect="non-scaling-stroke" d="
  M 306.96 141.59
  L 289.80 141.93"
/>
<path stroke="#ef8609" vector-effect="non-scaling-stroke" d="
  M 332.10 186.84
  Q 328.48 185.05 325.45 185.77"
/>
<path stroke="#f4a525" vector-effect="non-scaling-stroke" d="
  M 325.45 185.77
  Q 322.25 185.40 319.72 185.94"
/>
<path stroke="#ef8609" vector-effect="non-scaling-stroke" d="
  M 319.72 185.94
  Q 312.90 184.97 307.75 185.62
  Q 306.05 185.84 306.23 187.46"
/>
<path stroke="#c36502" vector-effect="non-scaling-stroke" d="
  M 350.34 97.99
  L 337.58 98.11"
/>
<path stroke="#c97109" vector-effect="non-scaling-stroke" d="
  M 337.58 98.11
  L 319.37 98.30"
/>
<path stroke="#ce9025" vector-effect="non-scaling-stroke" d="
  M 319.37 98.30
  L 312.58 98.24"
/>
<path stroke="#c97109" vector-effect="non-scaling-stroke" d="
  M 312.58 98.24
  L 306.93 98.19"
/>
<path stroke="#ce9025" vector-effect="non-scaling-stroke" d="
  M 306.93 98.19
  L 288.05 98.11"
/>
<path stroke="#ef8609" vector-effect="non-scaling-stroke" d="
  M 344.54 79.21
  L 344.38 91.99"
/>
<path stroke="#c97109" vector-effect="non-scaling-stroke" d="
  M 344.38 91.99
  L 294.44 91.95"
/>
<path stroke="#ef8609" vector-effect="non-scaling-stroke" d="
  M 331.06 147.82
  Q 331.96 159.31 331.43 171.26
  A 2.24 2.24 0.0 0 1 329.25 173.40
  Q 326.26 173.48 326.51 176.50
  A 1.98 1.98 0.0 0 1 324.85 178.63
  Q 318.68 179.62 313.22 178.95"
/>
<path stroke="#c36502" vector-effect="non-scaling-stroke" d="
  M 348.94 141.73
  L 337.89 141.74"
/>
<path stroke="#f9b02c" vector-effect="non-scaling-stroke" d="
  M 368.81 105.57
  Q 370.71 104.55 372.79 104.55
  Q 374.64 104.55 374.76 102.71
  L 375.01 99.01
  A 0.98 0.98 0.0 0 1 375.99 98.09
  L 404.91 98.23
  Q 405.50 98.24 405.75 98.77
  C 406.68 100.72 406.01 103.41 408.50 104.29
  Q 411.02 105.18 412.40 104.86"
/>
<path stroke="#ef8609" vector-effect="non-scaling-stroke" d="
  M 341.73 179.35
  L 333.15 178.50
  A 1.82 1.80 -9.3 0 1 331.67 177.45
  Q 330.73 175.38 332.39 174.15
  C 333.50 173.32 335.49 173.30 336.97 172.88
  A 0.95 0.94 89.0 0 0 337.63 172.19
  L 338.50 168.36
  A 1.09 1.05 -9.4 0 1 339.02 167.66
  C 341.49 166.29 343.74 167.32 343.97 163.50
  Q 344.40 156.33 343.90 150.79
  Q 343.83 149.99 343.97 149.23
  Q 344.11 148.45 344.24 147.70"
/>
<path stroke="#c97109" vector-effect="non-scaling-stroke" d="
  M 344.24 147.70
  L 349.09 147.61
  A 0.86 0.85 12.6 0 0 349.84 147.14
  Q 351.61 143.55 348.94 141.73"
/>
<path stroke="#ef8609" vector-effect="non-scaling-stroke" d="
  M 348.94 141.73
  L 351.75 141.60
  Q 352.17 141.58 351.83 141.32
  Q 350.29 140.17 350.27 137.75
  Q 350.03 112.49 350.34 97.99"
/>
<path stroke="#c97109" vector-effect="non-scaling-stroke" d="
  M 350.34 97.99
  L 355.17 97.92
  A 1.51 1.50 -81.9 0 0 356.60 96.84
  Q 357.62 93.46 355.35 92.03"
/>
<path stroke="#f9b02c" vector-effect="non-scaling-stroke" d="
  M 319.37 98.30
  Q 319.24 118.57 319.28 138.78
  Q 319.28 139.40 319.56 140.17
  Q 320.06 141.56 319.36 141.69"
/>
<path stroke="#ce9025" vector-effect="non-scaling-stroke" d="
  M 319.36 141.69
  L 312.51 141.56"
/>
<path stroke="#f9b02c" vector-effect="non-scaling-stroke" d="
  M 312.51 141.56
  L 312.58 98.24"
/>
<path stroke="#ef8609" vector-effect="non-scaling-stroke" d="
  M 337.58 98.11
  L 337.89 141.74"
/>
<path stroke="#c97109" vector-effect="non-scaling-stroke" d="
  M 337.89 141.74
  L 319.36 141.69"
/>
<path stroke="#c97109" vector-effect="non-scaling-stroke" d="
  M 312.51 141.56
  L 306.96 141.59"
/>
<path stroke="#f9b02c" vector-effect="non-scaling-stroke" d="
  M 319.72 185.94
  L 318.93 210.13"
/>
<path stroke="#ef8609" vector-effect="non-scaling-stroke" d="
  M 318.93 210.13
  L 306.42 210.24"
/>
<path stroke="#ef8609" vector-effect="non-scaling-stroke" d="
  M 332.01 210.14
  Q 329.04 210.78 325.46 210.15"
/>
<path stroke="#f9b02c" vector-effect="non-scaling-stroke" d="
  M 325.45 185.77
  L 325.46 210.15"
/>
<path stroke="#f4a525" vector-effect="non-scaling-stroke" d="
  M 325.46 210.15
  L 318.93 210.13"
/>
<path stroke="#ef8609" vector-effect="non-scaling-stroke" d="
  M 358.00 79.27
  Q 356.55 79.33 355.98 79.88
  Q 355.51 80.33 355.93 81.57
  C 357.00 84.68 356.47 87.88 356.63 91.10
  Q 356.64 91.33 356.82 91.49
  L 357.05 91.68
  Q 357.45 92.02 356.93 92.10
  Q 356.03 92.23 355.35 92.03"
/>
<path stroke="#c36502" vector-effect="non-scaling-stroke" d="
  M 355.35 92.03
  L 344.38 91.99"
/>
<path stroke="#ef8609" vector-effect="non-scaling-stroke" d="
  M 344.17 222.37
  L 313.12 222.89"
/>
<path stroke="#f4a525" vector-effect="non-scaling-stroke" d="
  M 313.12 222.89
  L 300.38 223.20"
/>
<path stroke="#ef8609" vector-effect="non-scaling-stroke" d="
  M 300.38 223.20
  L 294.41 222.50"
/>
<path stroke="#f4a525" vector-effect="non-scaling-stroke" d="
  M 369.21 248.06
  L 331.23 247.80"
/>
<path stroke="#f9b02c" vector-effect="non-scaling-stroke" d="
  M 331.23 247.80
  L 301.37 247.71
  A 0.65 0.65 0.0 0 0 300.72 248.37
  L 300.87 266.67"
/>
<path stroke="#f9b02c" vector-effect="non-scaling-stroke" d="
  M 276.54 266.69
  Q 276.07 266.44 275.57 266.38
  Q 275.32 266.35 275.19 266.13
  Q 274.96 265.72 275.37 265.92
  Q 275.79 266.13 275.79 265.66
  L 275.83 248.68
  Q 275.84 248.05 275.23 247.87
  Q 272.35 247.04 269.29 248.09"
/>
<path stroke="#f9b02c" vector-effect="non-scaling-stroke" d="
  M 300.38 223.20
  L 300.69 227.58
  A 1.35 1.35 0.0 0 1 299.33 229.03
  L 295.83 229.00
  A 1.18 1.17 -89.3 0 0 294.64 230.17
  L 294.51 240.56
  Q 294.50 241.72 293.33 241.68
  L 281.73 241.30"
/>
<path stroke="#f9b02c" vector-effect="non-scaling-stroke" d="
  M 356.48 241.41
  L 307.88 241.39
  A 1.18 1.18 0.0 0 1 306.70 240.19
  L 306.92 230.13
  A 1.08 1.08 0.0 0 1 307.86 229.08
  L 311.93 228.56
  Q 312.39 228.50 312.55 228.06
  Q 313.41 225.61 313.12 222.89"
/>
<path stroke="#ef8609" vector-effect="non-scaling-stroke" d="
  M 331.23 247.80
  L 331.92 266.68"
/>
<path stroke="#f9b02c" vector-effect="non-scaling-stroke" d="
  M 376.45 129.15
  C 374.27 129.20 374.83 133.40 375.27 134.55
  A 0.89 0.87 82.7 0 0 375.99 135.12
  L 379.50 135.51
  A 2.15 2.14 87.8 0 1 381.36 137.24
  L 381.92 140.22
  A 1.02 1.02 0.0 0 0 382.49 140.95
  Q 385.21 142.20 387.74 141.73"
/>
<path stroke="#7a4908" vector-effect="non-scaling-stroke" d="
  M 387.74 141.73
  L 387.68 147.56
  Q 387.67 148.22 387.01 148.22
  L 375.78 148.21
  A 0.94 0.93 89.7 0 1 374.85 147.28
  L 374.80 142.38
  A 0.64 0.64 0.0 0 0 374.13 141.75
  L 370.26 141.89
  Q 368.69 141.95 368.70 140.38
  L 368.74 129.96
  Q 368.74 129.42 368.21 129.43
  L 363.34 129.48
  Q 362.92 129.49 362.92 129.91
  L 362.82 140.39
  Q 362.81 141.84 361.36 141.87
  L 357.28 141.97
  Q 356.79 141.98 356.79 142.47
  L 356.93 159.58
  Q 356.93 160.22 357.58 160.21
  L 361.61 160.13
  A 0.76 0.76 0.0 0 0 362.36 159.39
  L 362.48 154.75
  A 0.76 0.76 0.0 0 1 363.25 154.01
  L 392.86 154.13
  A 0.75 0.75 0.0 0 0 393.62 153.39
  L 393.70 148.49
  A 0.76 0.76 0.0 0 1 394.51 147.74
  L 399.05 148.06
  A 0.86 0.85 1.9 0 0 399.97 147.20
  L 399.93 111.32
  A 0.71 0.71 0.0 0 0 399.20 110.61
  L 395.51 110.68
  A 1.72 1.72 0.0 0 1 393.75 108.97
  L 393.72 105.21
  A 0.75 0.75 0.0 0 0 392.96 104.47
  L 382.05 104.51
  A 0.68 0.67 89.2 0 0 381.39 105.20
  L 381.47 108.46
  Q 381.53 110.69 379.29 110.71
  L 375.76 110.73
  Q 375.26 110.73 375.26 111.24
  L 375.25 128.34
  Q 375.25 128.92 375.81 129.10
  Q 376.09 129.19 376.45 129.15"
/>
<path stroke="#7f6824" vector-effect="non-scaling-stroke" d="
  M 387.74 141.73
  L 387.71 136.37
  A 0.94 0.94 0.0 0 0 386.80 135.43
  L 382.14 135.27
  Q 381.53 135.24 381.53 134.64
  L 381.50 130.25
  A 1.08 1.08 0.0 0 0 380.42 129.17
  L 376.45 129.15"
/>
</g>
<path fill="#000000" d="
  M 406.90 155.56
  Q 407.22 158.23 405.66 160.45
  A 0.85 0.84 -69.9 0 1 404.90 160.81
  L 401.40 160.56
  A 0.89 0.89 0.0 0 0 400.45 161.55
  C 400.69 163.63 400.70 166.64 397.76 166.70
  C 388.77 166.89 379.00 167.78 370.11 166.69
  A 1.28 1.27 2.5 0 0 368.68 167.99
  L 368.78 171.31
  A 1.53 1.53 0.0 0 1 367.18 172.88
  L 364.29 172.73
  A 1.51 1.51 0.0 0 0 362.70 174.21
  L 362.64 177.24
  A 1.85 1.85 0.0 0 1 360.77 179.05
  L 357.64 179.03
  A 1.66 1.66 0.0 0 1 356.01 177.13
  L 356.41 174.25
  A 1.33 1.33 0.0 0 0 354.99 172.74
  L 351.95 172.97
  Q 350.44 173.08 350.58 174.59
  C 350.88 177.80 349.49 178.86 347.02 180.37
  C 345.27 181.44 344.73 182.44 343.75 184.09
  A 1.31 1.30 -81.4 0 1 342.94 184.69
  Q 341.12 185.15 339.24 184.98
  A 1.02 1.02 0.0 0 0 338.13 186.01
  L 338.33 202.52
  A 1.56 1.55 86.0 0 0 340.07 204.04
  Q 345.19 203.39 344.75 208.61
  Q 344.70 209.21 345.30 209.08
  Q 348.21 208.45 350.07 210.65
  A 1.77 1.75 24.9 0 1 350.48 211.75
  L 350.65 221.53
  A 0.87 0.86 2.2 0 0 351.44 222.38
  L 355.10 222.71
  A 1.76 1.76 0.0 0 1 356.65 224.06
  L 357.26 226.63
  Q 357.37 227.10 357.83 227.26
  C 360.18 228.05 362.11 228.55 363.77 230.59
  C 366.16 233.53 369.59 235.76 369.61 239.90
  A 0.73 0.72 -86.3 0 0 370.22 240.61
  L 374.17 241.22
  A 1.45 1.44 4.6 0 1 375.40 242.66
  L 375.30 271.62
  A 1.15 1.15 0.0 0 1 374.27 272.76
  Q 373.25 272.87 371.75 272.88
  Q 320.13 273.32 268.50 272.88
  Q 266.26 272.86 264.31 272.69
  A 1.13 1.13 0.0 0 1 263.27 271.56
  L 263.25 242.68
  A 1.45 1.45 0.0 0 1 264.28 241.29
  L 267.59 240.27
  A 0.88 0.85 -89.0 0 0 268.15 239.71
  L 269.31 235.98
  A 1.23 1.22 87.3 0 1 269.99 235.23
  Q 273.70 233.65 275.45 230.03
  Q 275.69 229.52 276.17 229.22
  Q 277.95 228.05 280.08 227.73
  A 1.19 1.18 5.6 0 0 281.00 226.98
  L 282.36 223.27
  A 0.77 0.76 6.7 0 1 283.00 222.77
  L 286.65 222.38
  A 1.25 1.24 84.6 0 0 287.75 221.04
  Q 287.30 216.06 288.35 211.16
  A 1.56 1.55 5.8 0 1 289.86 209.93
  L 293.24 209.91
  A 0.86 0.86 0.0 0 0 294.10 209.01
  L 293.95 205.68
  A 1.83 1.82 81.2 0 1 295.30 203.83
  L 298.47 202.98
  A 1.32 1.31 7.6 0 0 299.25 202.39
  C 301.00 199.47 300.67 190.60 300.69 186.88
  A 2.12 2.11 -86.9 0 0 298.80 184.76
  L 295.99 184.48
  A 0.92 0.91 87.4 0 1 295.19 183.74
  L 294.58 180.62
  A 2.15 2.15 0.0 0 0 292.89 178.93
  L 289.05 178.17
  A 0.82 0.80 0.1 0 1 288.42 177.55
  Q 288.13 176.29 288.30 174.97
  A 1.63 1.63 0.0 0 0 286.68 173.13
  L 283.22 173.15
  Q 281.77 173.16 282.28 174.52
  Q 283.70 178.33 280.24 179.10
  C 276.03 180.03 275.15 177.44 275.25 174.01
  A 1.33 1.33 0.0 0 0 273.86 172.64
  L 270.83 172.79
  A 1.40 1.40 0.0 0 1 269.56 170.67
  Q 271.48 167.52 268.26 166.06
  A 1.16 1.16 0.0 0 0 267.44 166.01
  Q 265.18 166.73 262.75 166.89
  Q 252.11 167.56 241.49 166.66
  Q 237.07 166.28 238.26 161.50
  A 0.80 0.80 0.0 0 0 237.39 160.51
  C 232.95 161.02 232.15 159.93 231.49 155.78
  Q 231.36 154.93 230.50 154.90
  Q 225.39 154.74 225.72 149.46
  A 1.44 1.43 0.9 0 0 224.24 147.94
  L 221.54 148.02
  A 1.69 1.69 0.0 0 1 219.80 146.33
  Q 219.75 123.68 219.85 101.98
  C 219.87 97.33 221.49 97.85 225.04 96.77
  Q 225.49 96.63 225.54 96.16
  L 225.83 93.61
  A 2.46 2.46 0.0 0 1 227.39 91.58
  Q 229.09 90.93 230.92 91.01
  A 0.94 0.93 -85.8 0 0 231.89 90.17
  L 232.23 86.83
  A 1.32 1.32 0.0 0 1 233.49 85.64
  Q 245.23 85.12 257.00 85.24
  Q 259.14 85.26 261.26 85.01
  C 263.30 84.77 263.27 81.51 263.82 79.93
  Q 264.01 79.40 264.54 79.26
  Q 266.08 78.84 267.63 79.15
  A 1.67 1.67 0.0 0 0 269.61 77.22
  Q 269.29 75.36 269.71 73.53
  Q 269.82 73.07 270.29 73.03
  Q 272.82 72.80 275.25 72.80
  Q 319.38 72.69 363.50 72.98
  C 369.68 73.02 367.94 75.26 371.60 77.69
  C 375.09 80.01 374.81 79.31 375.75 83.63
  Q 376.09 85.25 377.75 85.27
  L 404.25 85.57
  A 2.05 2.04 -1.0 0 1 406.26 87.50
  L 406.39 90.22
  A 1.09 1.08 -3.8 0 0 407.57 91.25
  Q 409.23 91.11 410.81 91.59
  A 2.49 2.46 1.2 0 1 412.50 93.33
  L 413.05 95.48
  Q 413.18 95.98 413.68 96.09
  Q 415.91 96.59 417.76 97.97
  A 2.53 2.53 0.0 0 1 418.77 100.05
  Q 418.24 120.88 418.85 142.00
  Q 418.93 144.51 418.43 146.95
  Q 418.33 147.45 417.87 147.70
  Q 415.88 148.75 413.65 148.19
  A 0.73 0.73 0.0 0 0 412.87 148.50
  Q 412.26 149.43 412.72 150.59
  A 1.05 1.02 -50.8 0 1 412.77 151.17
  Q 411.81 155.61 407.18 155.27
  Q 406.86 155.24 406.90 155.56
  Z
  M 257.26 91.74
  L 232.62 91.64
  Q 231.99 91.64 231.99 92.27
  L 231.98 97.41
  Q 231.97 98.05 231.34 98.02
  L 226.44 97.81
  A 0.56 0.55 0.5 0 0 225.86 98.37
  L 225.90 104.88
  L 225.84 111.29
  L 226.10 135.47
  L 226.00 147.63
  A 0.68 0.68 0.0 0 0 226.74 148.31
  L 230.94 147.96
  A 0.99 0.98 -2.4 0 1 232.01 148.94
  L 231.99 153.75
  A 0.92 0.91 -2.8 0 0 233.00 154.66
  L 237.41 154.20
  A 0.72 0.71 -2.5 0 1 238.20 154.92
  L 238.17 159.19
  A 1.49 1.48 -89.8 0 0 239.65 160.69
  L 257.57 160.73
  L 268.20 160.80
  A 0.99 0.99 0.0 0 1 269.18 161.76
  L 269.29 165.20
  A 1.73 1.72 -89.8 0 0 270.93 166.86
  L 274.54 167.04
  A 0.91 0.90 0.7 0 1 275.41 167.92
  L 275.48 172.00
  A 1.23 1.23 0.0 0 0 276.76 173.20
  L 280.84 173.02
  Q 281.99 172.97 281.98 171.81
  L 281.92 160.79
  L 286.34 160.89
  A 0.91 0.90 87.9 0 1 287.23 161.72
  L 288.08 171.73
  A 1.54 1.53 0.0 0 0 289.48 173.12
  L 292.91 173.42
  A 1.18 1.16 87.4 0 1 293.97 174.40
  L 294.58 178.11
  A 0.80 0.79 -89.6 0 0 295.22 178.77
  L 299.31 179.52
  Q 300.15 185.58 303.98 185.73
  Q 305.10 185.77 305.44 186.00
  Q 306.17 186.47 306.23 187.46
  L 306.42 210.24
  L 295.17 210.04
  Q 294.39 210.02 294.39 210.81
  L 294.41 222.50
  L 288.96 222.45
  A 1.10 1.09 90.0 0 0 287.86 223.56
  L 287.91 228.17
  A 0.79 0.79 0.0 0 1 287.06 228.97
  L 282.00 228.61
  Q 281.55 228.57 281.56 229.02
  L 281.73 241.30
  L 269.59 241.25
  Q 269.05 241.25 269.07 241.80
  L 269.29 248.09
  L 269.22 265.85
  A 0.86 0.85 89.7 0 0 270.08 266.71
  L 276.54 266.69
  L 300.87 266.67
  L 331.92 266.68
  L 368.60 266.64
  A 0.60 0.59 -0.5 0 0 369.19 266.05
  L 369.21 248.06
  L 369.15 241.95
  A 0.68 0.68 0.0 0 0 368.46 241.28
  L 356.48 241.41
  L 356.53 229.25
  Q 356.53 228.72 356.00 228.73
  L 350.96 228.82
  A 0.61 0.60 0.4 0 1 350.34 228.20
  L 350.44 223.48
  A 0.93 0.93 0.0 0 0 349.48 222.53
  L 344.55 222.69
  Q 344.38 222.70 344.24 222.58
  Q 344.06 222.43 344.17 222.37
  L 344.33 210.57
  Q 344.34 210.06 343.83 210.07
  L 332.01 210.14
  L 332.10 186.84
  Q 333.71 185.59 336.51 185.35
  A 1.30 1.30 0.0 0 0 337.68 184.31
  L 338.34 181.07
  A 1.02 1.02 0.0 0 1 339.00 180.32
  L 341.73 179.35
  C 344.74 179.26 344.20 176.44 344.74 174.57
  Q 344.90 174.01 345.46 173.84
  L 348.83 172.84
  A 1.73 1.73 0.0 0 0 350.06 171.39
  L 351.20 162.49
  Q 351.37 161.10 352.76 160.92
  L 355.00 160.62
  Q 356.58 160.41 356.53 162.00
  L 356.25 171.26
  A 1.76 1.76 0.0 0 0 358.02 173.07
  L 361.28 173.04
  A 1.72 1.71 88.1 0 0 362.98 171.22
  L 362.74 167.50
  A 0.51 0.51 0.0 0 1 363.25 166.96
  L 366.63 167.00
  Q 369.03 167.03 369.03 164.62
  L 369.03 161.20
  Q 369.03 160.67 369.55 160.67
  L 399.74 160.50
  A 0.49 0.48 -90.0 0 0 400.22 160.01
  L 400.19 154.78
  A 0.50 0.50 0.0 0 1 400.72 154.28
  L 405.45 154.51
  A 0.71 0.71 0.0 0 0 406.19 153.80
  L 406.20 148.71
  Q 406.20 148.12 406.79 148.12
  L 411.56 148.16
  A 0.85 0.84 -89.7 0 0 412.41 147.31
  L 412.40 104.86
  L 412.50 98.22
  Q 412.50 97.71 412.00 97.74
  L 407.20 98.04
  A 0.85 0.85 0.0 0 1 406.29 97.20
  L 406.21 92.27
  A 0.69 0.68 -0.4 0 0 405.52 91.60
  L 375.47 91.73
  Q 374.93 91.73 374.89 92.27
  L 374.46 97.47
  Q 374.43 97.87 374.03 97.85
  L 369.57 97.68
  A 0.66 0.65 -88.3 0 0 368.89 98.33
  L 368.81 105.57
  L 368.74 115.75
  A 1.01 1.00 1.1 0 1 367.70 116.74
  L 363.93 116.63
  Q 362.77 116.59 362.78 115.44
  L 362.88 92.60
  Q 362.88 92.08 363.40 92.06
  L 368.08 91.88
  A 0.98 0.97 -0.6 0 0 369.02 90.93
  L 369.23 79.75
  Q 369.24 79.21 368.71 79.21
  L 358.00 79.27
  L 344.54 79.21
  L 294.39 79.26
  L 281.62 79.26
  L 270.44 79.27
  A 1.21 1.20 -0.2 0 0 269.23 80.48
  L 269.29 91.30
  Q 269.29 91.80 269.80 91.82
  L 275.04 92.03
  Q 275.52 92.05 275.52 92.54
  L 275.43 116.02
  A 0.68 0.68 0.0 0 1 274.73 116.70
  L 270.44 116.62
  Q 269.81 116.61 269.80 115.97
  L 269.62 98.73
  A 1.06 1.06 0.0 0 0 268.48 97.68
  L 263.99 97.98
  Q 263.48 98.02 263.49 97.50
  L 263.59 93.01
  Q 263.62 91.54 262.15 91.59
  L 257.26 91.74
  Z"
/>
<path fill="#f49110" d="
  M 281.62 79.26
  C 281.73 82.54 280.99 89.55 282.55 92.07
  Q 282.22 92.09 281.89 92.31
  A 1.00 1.00 0.0 0 0 281.44 93.02
  Q 281.10 95.27 281.78 97.40
  A 0.82 0.82 0.0 0 0 282.53 97.96
  L 288.05 98.11
  Q 288.00 119.42 288.07 140.43
  Q 288.08 141.73 289.80 141.93
  Q 289.13 141.75 288.63 142.10
  Q 288.24 142.39 288.16 143.05
  Q 288.00 144.60 288.29 146.26
  A 1.79 1.79 0.0 0 0 290.54 147.67
  Q 292.75 147.05 294.63 147.98
  Q 293.63 156.33 295.23 165.43
  A 1.86 1.86 0.0 0 0 296.92 166.96
  C 301.13 167.29 299.75 170.14 301.87 171.89
  C 303.20 172.99 304.79 172.88 306.25 174.26
  A 1.63 1.58 -75.7 0 1 306.73 175.10
  Q 307.26 177.49 308.22 178.89
  L 299.31 179.52
  L 295.22 178.77
  A 0.80 0.79 -89.6 0 1 294.58 178.11
  L 293.97 174.40
  A 1.18 1.16 87.4 0 0 292.91 173.42
  L 289.48 173.12
  A 1.54 1.53 0.0 0 1 288.08 171.73
  L 287.23 161.72
  A 0.91 0.90 87.9 0 0 286.34 160.89
  L 281.92 160.79
  L 278.65 160.34
  L 281.03 160.26
  Q 281.58 160.24 281.58 159.69
  L 281.59 142.58
  A 0.53 0.53 0.0 0 0 281.10 142.05
  L 276.04 141.65
  A 0.60 0.60 0.0 0 1 275.48 141.05
  L 275.42 129.82
  A 0.43 0.43 0.0 0 0 274.98 129.39
  L 270.16 129.47
  Q 269.68 129.48 269.68 129.97
  L 269.78 140.71
  A 1.19 1.18 -88.6 0 1 268.53 141.91
  L 264.19 141.69
  A 0.63 0.63 0.0 0 0 263.53 142.31
  L 263.42 147.55
  A 0.69 0.69 0.0 0 1 262.73 148.22
  L 251.25 148.17
  A 0.67 0.66 -90.0 0 1 250.59 147.50
  L 250.63 137.16
  A 1.78 1.77 89.2 0 1 252.34 135.39
  L 256.22 135.24
  Q 256.91 135.22 256.88 134.53
  L 256.73 130.02
  A 0.95 0.95 0.0 0 1 257.73 129.04
  L 262.47 129.31
  A 0.54 0.54 0.0 0 0 263.04 128.77
  L 263.08 111.08
  Q 263.08 110.74 262.74 110.74
  L 258.23 110.71
  A 1.47 1.47 0.0 0 1 256.77 109.23
  L 256.82 105.03
  A 0.54 0.54 0.0 0 0 256.28 104.49
  L 245.25 104.48
  Q 244.69 104.48 244.65 105.04
  Q 244.54 106.64 244.78 108.25
  C 245.28 111.47 241.18 110.80 239.33 110.56
  A 0.69 0.67 -86.0 0 0 238.56 111.24
  L 238.64 147.17
  A 0.73 0.73 0.0 0 0 239.41 147.90
  L 243.96 147.69
  A 0.77 0.76 89.0 0 1 244.76 148.47
  L 244.72 153.24
  A 0.77 0.77 0.0 0 0 245.49 154.02
  L 256.76 154.02
  L 257.57 160.73
  L 239.65 160.69
  A 1.49 1.48 -89.8 0 1 238.17 159.19
  L 238.20 154.92
  A 0.72 0.71 -2.5 0 0 237.41 154.20
  L 233.00 154.66
  A 0.92 0.91 -2.8 0 1 231.99 153.75
  L 232.01 148.94
  A 0.99 0.98 -2.4 0 0 230.94 147.96
  L 226.74 148.31
  A 0.68 0.68 0.0 0 1 226.00 147.63
  L 226.10 135.47
  Q 227.59 133.94 227.35 130.99
  A 1.02 1.01 71.0 0 1 227.80 130.06
  Q 229.13 129.16 230.75 128.87
  A 0.92 0.90 6.0 0 0 231.42 128.34
  Q 232.02 127.00 232.01 125.50
  Q 231.97 118.48 231.98 111.71
  A 1.13 1.13 0.0 0 0 230.97 110.59
  L 226.52 110.11
  Q 226.11 110.07 226.02 110.48
  L 225.84 111.29
  L 225.90 104.88
  L 231.10 103.95
  Q 231.59 103.86 231.67 103.36
  L 232.35 98.98
  Q 232.47 98.19 233.27 98.19
  L 255.95 98.15
  A 1.05 1.04 1.1 0 0 257.00 97.15
  L 257.26 91.74
  L 262.15 91.59
  Q 263.62 91.54 263.59 93.01
  L 263.49 97.50
  Q 263.48 98.02 263.99 97.98
  L 268.48 97.68
  A 1.06 1.06 0.0 0 1 269.62 98.73
  L 269.80 115.97
  Q 269.81 116.61 270.44 116.62
  L 274.73 116.70
  A 0.68 0.68 0.0 0 0 275.43 116.02
  L 275.52 92.54
  Q 275.52 92.05 275.04 92.03
  L 269.80 91.82
  Q 269.29 91.80 269.29 91.30
  L 269.23 80.48
  A 1.21 1.20 -0.2 0 1 270.44 79.27
  L 281.62 79.26
  Z"
/>
<path fill="#fecf47" d="
  M 281.62 79.26
  L 294.39 79.26
  L 294.44 91.95
  L 282.55 92.07
  C 280.99 89.55 281.73 82.54 281.62 79.26
  Z"
/>
<path fill="#f49110" d="
  M 294.39 79.26
  L 344.54 79.21
  L 344.38 91.99
  L 294.44 91.95
  L 294.39 79.26
  Z"
/>
<path fill="#e97a02" d="
  M 344.54 79.21
  L 358.00 79.27
  Q 356.55 79.33 355.98 79.88
  Q 355.51 80.33 355.93 81.57
  C 357.00 84.68 356.47 87.88 356.63 91.10
  Q 356.64 91.33 356.82 91.49
  L 357.05 91.68
  Q 357.45 92.02 356.93 92.10
  Q 356.03 92.23 355.35 92.03
  L 344.38 91.99
  L 344.54 79.21
  Z"
/>
<path fill="#f49110" d="
  M 358.00 79.27
  L 368.71 79.21
  Q 369.24 79.21 369.23 79.75
  L 369.02 90.93
  A 0.98 0.97 -0.6 0 1 368.08 91.88
  L 363.40 92.06
  Q 362.88 92.08 362.88 92.60
  L 362.78 115.44
  Q 362.77 116.59 363.93 116.63
  L 367.70 116.74
  A 1.01 1.00 1.1 0 0 368.74 115.75
  L 368.81 105.57
  Q 370.71 104.55 372.79 104.55
  Q 374.64 104.55 374.76 102.71
  L 375.01 99.01
  A 0.98 0.98 0.0 0 1 375.99 98.09
  L 404.91 98.23
  Q 405.50 98.24 405.75 98.77
  C 406.68 100.72 406.01 103.41 408.50 104.29
  Q 411.02 105.18 412.40 104.86
  L 412.41 147.31
  A 0.85 0.84 -89.7 0 1 411.56 148.16
  L 406.79 148.12
  Q 406.20 148.12 406.20 148.71
  L 406.19 153.80
  A 0.71 0.71 0.0 0 1 405.45 154.51
  L 400.72 154.28
  A 0.50 0.50 0.0 0 0 400.19 154.78
  L 400.22 160.01
  A 0.49 0.48 -90.0 0 1 399.74 160.50
  L 369.55 160.67
  Q 369.03 160.67 369.03 161.20
  L 369.03 164.62
  Q 369.03 167.03 366.63 167.00
  L 363.25 166.96
  A 0.51 0.51 0.0 0 0 362.74 167.50
  L 362.98 171.22
  A 1.72 1.71 88.1 0 1 361.28 173.04
  L 358.02 173.07
  A 1.76 1.76 0.0 0 1 356.25 171.26
  L 356.53 162.00
  Q 356.58 160.41 355.00 160.62
  L 352.76 160.92
  Q 351.37 161.10 351.20 162.49
  L 350.06 171.39
  A 1.73 1.73 0.0 0 1 348.83 172.84
  L 345.46 173.84
  Q 344.90 174.01 344.74 174.57
  C 344.20 176.44 344.74 179.26 341.73 179.35
  L 333.15 178.50
  A 1.82 1.80 -9.3 0 1 331.67 177.45
  Q 330.73 175.38 332.39 174.15
  C 333.50 173.32 335.49 173.30 336.97 172.88
  A 0.95 0.94 89.0 0 0 337.63 172.19
  L 338.50 168.36
  A 1.09 1.05 -9.4 0 1 339.02 167.66
  C 341.49 166.29 343.74 167.32 343.97 163.50
  Q 344.40 156.33 343.90 150.79
  Q 343.83 149.99 343.97 149.23
  Q 344.11 148.45 344.24 147.70
  L 349.09 147.61
  A 0.86 0.85 12.6 0 0 349.84 147.14
  Q 351.61 143.55 348.94 141.73
  L 351.75 141.60
  Q 352.17 141.58 351.83 141.32
  Q 350.29 140.17 350.27 137.75
  Q 350.03 112.49 350.34 97.99
  L 355.17 97.92
  A 1.51 1.50 -81.9 0 0 356.60 96.84
  Q 357.62 93.46 355.35 92.03
  Q 356.03 92.23 356.93 92.10
  Q 357.45 92.02 357.05 91.68
  L 356.82 91.49
  Q 356.64 91.33 356.63 91.10
  C 356.47 87.88 357.00 84.68 355.93 81.57
  Q 355.51 80.33 355.98 79.88
  Q 356.55 79.33 358.00 79.27
  Z
  M 376.45 129.15
  C 374.27 129.20 374.83 133.40 375.27 134.55
  A 0.89 0.87 82.7 0 0 375.99 135.12
  L 379.50 135.51
  A 2.15 2.14 87.8 0 1 381.36 137.24
  L 381.92 140.22
  A 1.02 1.02 0.0 0 0 382.49 140.95
  Q 385.21 142.20 387.74 141.73
  L 387.68 147.56
  Q 387.67 148.22 387.01 148.22
  L 375.78 148.21
  A 0.94 0.93 89.7 0 1 374.85 147.28
  L 374.80 142.38
  A 0.64 0.64 0.0 0 0 374.13 141.75
  L 370.26 141.89
  Q 368.69 141.95 368.70 140.38
  L 368.74 129.96
  Q 368.74 129.42 368.21 129.43
  L 363.34 129.48
  Q 362.92 129.49 362.92 129.91
  L 362.82 140.39
  Q 362.81 141.84 361.36 141.87
  L 357.28 141.97
  Q 356.79 141.98 356.79 142.47
  L 356.93 159.58
  Q 356.93 160.22 357.58 160.21
  L 361.61 160.13
  A 0.76 0.76 0.0 0 0 362.36 159.39
  L 362.48 154.75
  A 0.76 0.76 0.0 0 1 363.25 154.01
  L 392.86 154.13
  A 0.75 0.75 0.0 0 0 393.62 153.39
  L 393.70 148.49
  A 0.76 0.76 0.0 0 1 394.51 147.74
  L 399.05 148.06
  A 0.86 0.85 1.9 0 0 399.97 147.20
  L 399.93 111.32
  A 0.71 0.71 0.0 0 0 399.20 110.61
  L 395.51 110.68
  A 1.72 1.72 0.0 0 1 393.75 108.97
  L 393.72 105.21
  A 0.75 0.75 0.0 0 0 392.96 104.47
  L 382.05 104.51
  A 0.68 0.67 89.2 0 0 381.39 105.20
  L 381.47 108.46
  Q 381.53 110.69 379.29 110.71
  L 375.76 110.73
  Q 375.26 110.73 375.26 111.24
  L 375.25 128.34
  Q 375.25 128.92 375.81 129.10
  Q 376.09 129.19 376.45 129.15
  Z"
/>
<path fill="#fecf47" d="
  M 257.26 91.74
  L 257.00 97.15
  A 1.05 1.04 1.1 0 1 255.95 98.15
  L 233.27 98.19
  Q 232.47 98.19 232.35 98.98
  L 231.67 103.36
  Q 231.59 103.86 231.10 103.95
  L 225.90 104.88
  L 225.86 98.37
  A 0.56 0.55 0.5 0 1 226.44 97.81
  L 231.34 98.02
  Q 231.97 98.05 231.98 97.41
  L 231.99 92.27
  Q 231.99 91.64 232.62 91.64
  L 257.26 91.74
  Z"
/>
<path fill="#fecf47" d="
  M 412.40 104.86
  Q 411.02 105.18 408.50 104.29
  C 406.01 103.41 406.68 100.72 405.75 98.77
  Q 405.50 98.24 404.91 98.23
  L 375.99 98.09
  A 0.98 0.98 0.0 0 0 375.01 99.01
  L 374.76 102.71
  Q 374.64 104.55 372.79 104.55
  Q 370.71 104.55 368.81 105.57
  L 368.89 98.33
  A 0.66 0.65 -88.3 0 1 369.57 97.68
  L 374.03 97.85
  Q 374.43 97.87 374.46 97.47
  L 374.89 92.27
  Q 374.93 91.73 375.47 91.73
  L 405.52 91.60
  A 0.69 0.68 -0.4 0 1 406.21 92.27
  L 406.29 97.20
  A 0.85 0.85 0.0 0 0 407.20 98.04
  L 412.00 97.74
  Q 412.50 97.71 412.50 98.22
  L 412.40 104.86
  Z"
/>
<path fill="#9d5002" d="
  M 355.35 92.03
  Q 357.62 93.46 356.60 96.84
  A 1.51 1.50 -81.9 0 1 355.17 97.92
  L 350.34 97.99
  L 337.58 98.11
  L 319.37 98.30
  L 312.58 98.24
  L 306.93 98.19
  L 288.05 98.11
  L 282.53 97.96
  A 0.82 0.82 0.0 0 1 281.78 97.40
  Q 281.10 95.27 281.44 93.02
  A 1.00 1.00 0.0 0 1 281.89 92.31
  Q 282.22 92.09 282.55 92.07
  L 294.44 91.95
  L 344.38 91.99
  L 355.35 92.03
  Z"
/>
<path fill="#fecf47" d="
  M 306.93 98.19
  L 306.96 141.59
  L 289.80 141.93
  Q 288.08 141.73 288.07 140.43
  Q 288.00 119.42 288.05 98.11
  L 306.93 98.19
  Z"
/>
<path fill="#fecf47" d="
  M 319.37 98.30
  Q 319.24 118.57 319.28 138.78
  Q 319.28 139.40 319.56 140.17
  Q 320.06 141.56 319.36 141.69
  L 312.51 141.56
  L 312.58 98.24
  L 319.37 98.30
  Z"
/>
<path fill="#f49110" d="
  M 337.58 98.11
  L 337.89 141.74
  L 319.36 141.69
  Q 320.06 141.56 319.56 140.17
  Q 319.28 139.40 319.28 138.78
  Q 319.24 118.57 319.37 98.30
  L 337.58 98.11
  Z"
/>
<path fill="#e97a02" d="
  M 350.34 97.99
  Q 350.03 112.49 350.27 137.75
  Q 350.29 140.17 351.83 141.32
  Q 352.17 141.58 351.75 141.60
  L 348.94 141.73
  L 337.89 141.74
  L 337.58 98.11
  L 350.34 97.99
  Z"
/>
<path fill="#f49110" d="
  M 306.93 98.19
  L 312.58 98.24
  L 312.51 141.56
  L 306.96 141.59
  L 306.93 98.19
  Z"
/>
<path fill="#000000" d="
  M 278.65 160.34
  L 276.53 160.20
  Q 275.94 160.16 275.94 159.57
  L 275.93 155.47
  A 1.35 1.34 0.2 0 0 274.59 154.13
  L 256.76 154.02
  L 245.49 154.02
  A 0.77 0.77 0.0 0 1 244.72 153.24
  L 244.76 148.47
  A 0.77 0.76 89.0 0 0 243.96 147.69
  L 239.41 147.90
  A 0.73 0.73 0.0 0 1 238.64 147.17
  L 238.56 111.24
  A 0.69 0.67 -86.0 0 1 239.33 110.56
  C 241.18 110.80 245.28 111.47 244.78 108.25
  Q 244.54 106.64 244.65 105.04
  Q 244.69 104.48 245.25 104.48
  L 256.28 104.49
  A 0.54 0.54 0.0 0 1 256.82 105.03
  L 256.77 109.23
  A 1.47 1.47 0.0 0 0 258.23 110.71
  L 262.74 110.74
  Q 263.08 110.74 263.08 111.08
  L 263.04 128.77
  A 0.54 0.54 0.0 0 1 262.47 129.31
  L 257.73 129.04
  A 0.95 0.95 0.0 0 0 256.73 130.02
  L 256.88 134.53
  Q 256.91 135.22 256.22 135.24
  L 252.34 135.39
  A 1.78 1.77 89.2 0 0 250.63 137.16
  L 250.59 147.50
  A 0.67 0.66 -90.0 0 0 251.25 148.17
  L 262.73 148.22
  A 0.69 0.69 0.0 0 0 263.42 147.55
  L 263.53 142.31
  A 0.63 0.63 0.0 0 1 264.19 141.69
  L 268.53 141.91
  A 1.19 1.18 -88.6 0 0 269.78 140.71
  L 269.68 129.97
  Q 269.68 129.48 270.16 129.47
  L 274.98 129.39
  A 0.43 0.43 0.0 0 1 275.42 129.82
  L 275.48 141.05
  A 0.60 0.60 0.0 0 0 276.04 141.65
  L 281.10 142.05
  A 0.53 0.53 0.0 0 1 281.59 142.58
  L 281.58 159.69
  Q 281.58 160.24 281.03 160.26
  L 278.65 160.34
  Z
  M 251.63 129.14
  Q 253.30 128.77 255.02 129.26
  A 1.56 1.56 0.0 0 0 257.01 127.76
  L 257.01 111.45
  A 1.86 1.85 -7.5 0 0 254.67 109.66
  Q 250.26 110.86 245.80 110.35
  A 1.23 1.22 -88.7 0 0 244.44 111.66
  C 245.02 119.04 244.24 126.04 245.92 133.86
  Q 246.04 134.38 246.53 134.57
  L 249.18 135.63
  A 1.80 1.80 0.0 0 0 251.48 133.21
  Q 250.73 131.57 251.02 129.79
  A 0.80 0.78 -2.2 0 1 251.63 129.14
  Z
  M 272.54 141.75
  Q 270.63 140.64 269.66 142.53
  A 0.47 0.47 0.0 0 0 270.04 143.21
  Q 271.38 143.30 272.55 142.61
  Q 273.28 142.18 272.54 141.75
  Z"
/>
<path fill="#000000" d="
  M 387.74 141.73
  L 387.71 136.37
  A 0.94 0.94 0.0 0 0 386.80 135.43
  L 382.14 135.27
  Q 381.53 135.24 381.53 134.64
  L 381.50 130.25
  A 1.08 1.08 0.0 0 0 380.42 129.17
  L 376.45 129.15
  Q 376.09 129.19 375.81 129.10
  Q 375.25 128.92 375.25 128.34
  L 375.26 111.24
  Q 375.26 110.73 375.76 110.73
  L 379.29 110.71
  Q 381.53 110.69 381.47 108.46
  L 381.39 105.20
  A 0.68 0.67 89.2 0 1 382.05 104.51
  L 392.96 104.47
  A 0.75 0.75 0.0 0 1 393.72 105.21
  L 393.75 108.97
  A 1.72 1.72 0.0 0 0 395.51 110.68
  L 399.20 110.61
  A 0.71 0.71 0.0 0 1 399.93 111.32
  L 399.97 147.20
  A 0.86 0.85 1.9 0 1 399.05 148.06
  L 394.51 147.74
  A 0.76 0.76 0.0 0 0 393.70 148.49
  L 393.62 153.39
  A 0.75 0.75 0.0 0 1 392.86 154.13
  L 363.25 154.01
  A 0.76 0.76 0.0 0 0 362.48 154.75
  L 362.36 159.39
  A 0.76 0.76 0.0 0 1 361.61 160.13
  L 357.58 160.21
  Q 356.93 160.22 356.93 159.58
  L 356.79 142.47
  Q 356.79 141.98 357.28 141.97
  L 361.36 141.87
  Q 362.81 141.84 362.82 140.39
  L 362.92 129.91
  Q 362.92 129.49 363.34 129.48
  L 368.21 129.43
  Q 368.74 129.42 368.74 129.96
  L 368.70 140.38
  Q 368.69 141.95 370.26 141.89
  L 374.13 141.75
  A 0.64 0.64 0.0 0 1 374.80 142.38
  L 374.85 147.28
  A 0.94 0.93 89.7 0 0 375.78 148.21
  L 387.01 148.22
  Q 387.67 148.22 387.68 147.56
  L 387.74 141.73
  Z
  M 388.26 130.83
  L 387.90 134.25
  A 1.56 1.56 0.0 0 0 389.89 135.91
  L 392.51 135.15
  A 0.77 0.76 -7.6 0 0 393.05 134.45
  L 393.92 113.39
  A 0.70 0.69 -30.7 0 1 393.98 113.16
  Q 394.89 111.34 393.45 110.27
  Q 392.99 109.92 392.41 109.92
  L 383.09 109.84
  A 1.73 1.72 89.5 0 0 381.35 111.62
  Q 381.55 118.18 381.05 124.50
  Q 380.88 126.64 381.67 128.67
  A 0.76 0.76 0.0 0 0 382.52 129.14
  Q 384.64 128.72 386.76 128.96
  A 1.71 1.71 0.0 0 1 388.26 130.83
  Z
  M 367.00 142.64
  Q 367.20 143.18 367.65 143.15
  Q 370.22 142.97 367.94 141.77
  Q 367.80 141.70 367.30 141.92
  Q 366.81 142.14 367.00 142.64
  Z"
/>
<path fill="#fecf47" d="
  M 226.10 135.47
  L 225.84 111.29
  L 226.02 110.48
  Q 226.11 110.07 226.52 110.11
  L 230.97 110.59
  A 1.13 1.13 0.0 0 1 231.98 111.71
  Q 231.97 118.48 232.01 125.50
  Q 232.02 127.00 231.42 128.34
  A 0.92 0.90 6.0 0 1 230.75 128.87
  Q 229.13 129.16 227.80 130.06
  A 1.02 1.01 71.0 0 0 227.35 130.99
  Q 227.59 133.94 226.10 135.47
  Z"
/>
<path fill="#fecf47" d="
  M 376.45 129.15
  L 380.42 129.17
  A 1.08 1.08 0.0 0 1 381.50 130.25
  L 381.53 134.64
  Q 381.53 135.24 382.14 135.27
  L 386.80 135.43
  A 0.94 0.94 0.0 0 1 387.71 136.37
  L 387.74 141.73
  Q 385.21 142.20 382.49 140.95
  A 1.02 1.02 0.0 0 1 381.92 140.22
  L 381.36 137.24
  A 2.15 2.14 87.8 0 0 379.50 135.51
  L 375.99 135.12
  A 0.89 0.87 82.7 0 1 375.27 134.55
  C 374.83 133.40 374.27 129.20 376.45 129.15
  Z"
/>
<path fill="#9d5002" d="
  M 306.96 141.59
  L 312.51 141.56
  L 319.36 141.69
  L 337.89 141.74
  L 348.94 141.73
  Q 351.61 143.55 349.84 147.14
  A 0.86 0.85 12.6 0 1 349.09 147.61
  L 344.24 147.70
  L 331.06 147.82
  L 306.93 148.03
  L 294.63 147.98
  Q 292.75 147.05 290.54 147.67
  A 1.79 1.79 0.0 0 1 288.29 146.26
  Q 288.00 144.60 288.16 143.05
  Q 288.24 142.39 288.63 142.10
  Q 289.13 141.75 289.80 141.93
  L 306.96 141.59
  Z"
/>
<path fill="#fecf47" d="
  M 306.93 148.03
  L 307.05 170.29
  A 2.44 2.42 5.2 0 0 309.04 172.66
  Q 313.61 173.52 313.22 178.95
  L 308.22 178.89
  Q 307.26 177.49 306.73 175.10
  A 1.63 1.58 -75.7 0 0 306.25 174.26
  C 304.79 172.88 303.20 172.99 301.87 171.89
  C 299.75 170.14 301.13 167.29 296.92 166.96
  A 1.86 1.86 0.0 0 1 295.23 165.43
  Q 293.63 156.33 294.63 147.98
  L 306.93 148.03
  Z"
/>
<path fill="#f49110" d="
  M 331.06 147.82
  Q 331.96 159.31 331.43 171.26
  A 2.24 2.24 0.0 0 1 329.25 173.40
  Q 326.26 173.48 326.51 176.50
  A 1.98 1.98 0.0 0 1 324.85 178.63
  Q 318.68 179.62 313.22 178.95
  Q 313.61 173.52 309.04 172.66
  A 2.44 2.42 5.2 0 1 307.05 170.29
  L 306.93 148.03
  L 331.06 147.82
  Z"
/>
<path fill="#e97a02" d="
  M 344.24 147.70
  Q 344.11 148.45 343.97 149.23
  Q 343.83 149.99 343.90 150.79
  Q 344.40 156.33 343.97 163.50
  C 343.74 167.32 341.49 166.29 339.02 167.66
  A 1.09 1.05 -9.4 0 0 338.50 168.36
  L 337.63 172.19
  A 0.95 0.94 89.0 0 1 336.97 172.88
  C 335.49 173.30 333.50 173.32 332.39 174.15
  Q 330.73 175.38 331.67 177.45
  A 1.82 1.80 -9.3 0 0 333.15 178.50
  L 341.73 179.35
  L 339.00 180.32
  A 1.02 1.02 0.0 0 0 338.34 181.07
  L 337.68 184.31
  A 1.30 1.30 0.0 0 1 336.51 185.35
  Q 333.71 185.59 332.10 186.84
  Q 328.48 185.05 325.45 185.77
  Q 322.25 185.40 319.72 185.94
  Q 312.90 184.97 307.75 185.62
  Q 306.05 185.84 306.23 187.46
  Q 306.17 186.47 305.44 186.00
  Q 305.10 185.77 303.98 185.73
  Q 300.15 185.58 299.31 179.52
  L 308.22 178.89
  L 313.22 178.95
  Q 318.68 179.62 324.85 178.63
  A 1.98 1.98 0.0 0 0 326.51 176.50
  Q 326.26 173.48 329.25 173.40
  A 2.24 2.24 0.0 0 0 331.43 171.26
  Q 331.96 159.31 331.06 147.82
  L 344.24 147.70
  Z"
/>
<path fill="#fecf47" d="
  M 256.76 154.02
  L 274.59 154.13
  A 1.35 1.34 0.2 0 1 275.93 155.47
  L 275.94 159.57
  Q 275.94 160.16 276.53 160.20
  L 278.65 160.34
  L 281.92 160.79
  L 281.98 171.81
  Q 281.99 172.97 280.84 173.02
  L 276.76 173.20
  A 1.23 1.23 0.0 0 1 275.48 172.00
  L 275.41 167.92
  A 0.91 0.90 0.7 0 0 274.54 167.04
  L 270.93 166.86
  A 1.73 1.72 -89.8 0 1 269.29 165.20
  L 269.18 161.76
  A 0.99 0.99 0.0 0 0 268.20 160.80
  L 257.57 160.73
  L 256.76 154.02
  Z"
/>
<path fill="#f49110" d="
  M 319.72 185.94
  L 318.93 210.13
  L 306.42 210.24
  L 306.23 187.46
  Q 306.05 185.84 307.75 185.62
  Q 312.90 184.97 319.72 185.94
  Z"
/>
<path fill="#fecf47" d="
  M 325.45 185.77
  L 325.46 210.15
  L 318.93 210.13
  L 319.72 185.94
  Q 322.25 185.40 325.45 185.77
  Z"
/>
<path fill="#f49110" d="
  M 332.10 186.84
  L 332.01 210.14
  Q 329.04 210.78 325.46 210.15
  L 325.45 185.77
  Q 328.48 185.05 332.10 186.84
  Z"
/>
<path fill="#e97a02" d="
  M 306.42 210.24
  L 318.93 210.13
  L 325.46 210.15
  Q 329.04 210.78 332.01 210.14
  L 343.83 210.07
  Q 344.34 210.06 344.33 210.57
  L 344.17 222.37
  L 313.12 222.89
  L 300.38 223.20
  L 294.41 222.50
  L 294.39 210.81
  Q 294.39 210.02 295.17 210.04
  L 306.42 210.24
  Z"
/>
<path fill="#f49110" d="
  M 294.41 222.50
  L 300.38 223.20
  L 300.69 227.58
  A 1.35 1.35 0.0 0 1 299.33 229.03
  L 295.83 229.00
  A 1.18 1.17 -89.3 0 0 294.64 230.17
  L 294.51 240.56
  Q 294.50 241.72 293.33 241.68
  L 281.73 241.30
  L 281.56 229.02
  Q 281.55 228.57 282.00 228.61
  L 287.06 228.97
  A 0.79 0.79 0.0 0 0 287.91 228.17
  L 287.86 223.56
  A 1.10 1.09 90.0 0 1 288.96 222.45
  L 294.41 222.50
  Z"
/>
<path fill="#f49110" d="
  M 344.17 222.37
  Q 344.06 222.43 344.24 222.58
  Q 344.38 222.70 344.55 222.69
  L 349.48 222.53
  A 0.93 0.93 0.0 0 1 350.44 223.48
  L 350.34 228.20
  A 0.61 0.60 0.4 0 0 350.96 228.82
  L 356.00 228.73
  Q 356.53 228.72 356.53 229.25
  L 356.48 241.41
  L 307.88 241.39
  A 1.18 1.18 0.0 0 1 306.70 240.19
  L 306.92 230.13
  A 1.08 1.08 0.0 0 1 307.86 229.08
  L 311.93 228.56
  Q 312.39 228.50 312.55 228.06
  Q 313.41 225.61 313.12 222.89
  L 344.17 222.37
  Z"
/>
<path fill="#fecf47" d="
  M 313.12 222.89
  Q 313.41 225.61 312.55 228.06
  Q 312.39 228.50 311.93 228.56
  L 307.86 229.08
  A 1.08 1.08 0.0 0 0 306.92 230.13
  L 306.70 240.19
  A 1.18 1.18 0.0 0 0 307.88 241.39
  L 356.48 241.41
  L 368.46 241.28
  A 0.68 0.68 0.0 0 1 369.15 241.95
  L 369.21 248.06
  L 331.23 247.80
  L 301.37 247.71
  A 0.65 0.65 0.0 0 0 300.72 248.37
  L 300.87 266.67
  L 276.54 266.69
  Q 276.07 266.44 275.57 266.38
  Q 275.32 266.35 275.19 266.13
  Q 274.96 265.72 275.37 265.92
  Q 275.79 266.13 275.79 265.66
  L 275.83 248.68
  Q 275.84 248.05 275.23 247.87
  Q 272.35 247.04 269.29 248.09
  L 269.07 241.80
  Q 269.05 241.25 269.59 241.25
  L 281.73 241.30
  L 293.33 241.68
  Q 294.50 241.72 294.51 240.56
  L 294.64 230.17
  A 1.18 1.17 -89.3 0 1 295.83 229.00
  L 299.33 229.03
  A 1.35 1.35 0.0 0 0 300.69 227.58
  L 300.38 223.20
  L 313.12 222.89
  Z"
/>
<path fill="#f49110" d="
  M 276.54 266.69
  L 270.08 266.71
  A 0.86 0.85 89.7 0 1 269.22 265.85
  L 269.29 248.09
  Q 272.35 247.04 275.23 247.87
  Q 275.84 248.05 275.83 248.68
  L 275.79 265.66
  Q 275.79 266.13 275.37 265.92
  Q 274.96 265.72 275.19 266.13
  Q 275.32 266.35 275.57 266.38
  Q 276.07 266.44 276.54 266.69
  Z"
/>
<path fill="#f49110" d="
  M 331.23 247.80
  L 331.92 266.68
  L 300.87 266.67
  L 300.72 248.37
  A 0.65 0.65 0.0 0 1 301.37 247.71
  L 331.23 247.80
  Z"
/>
<path fill="#e97a02" d="
  M 331.23 247.80
  L 369.21 248.06
  L 369.19 266.05
  A 0.60 0.59 -0.5 0 1 368.60 266.64
  L 331.92 266.68
  L 331.23 247.80
  Z"
/>
<path fill="#000000" d="
  M 108.14 356.54
  A 1.12 1.12 0.0 0 0 107.04 355.36
  L 102.22 355.26
  A 1.54 1.54 0.0 0 1 100.71 353.72
  L 100.76 333.17
  A 1.32 1.31 -89.6 0 1 102.08 331.86
  L 114.60 332.00
  A 1.11 1.11 0.0 0 1 115.70 333.10
  L 115.78 353.03
  Q 115.78 354.80 117.55 354.65
  C 121.01 354.35 124.31 355.15 127.71 354.99
  A 1.47 1.47 0.0 0 0 129.11 353.51
  L 129.00 333.74
  A 1.98 1.97 0.1 0 1 131.01 331.75
  L 142.04 331.94
  A 1.85 1.84 0.8 0 1 143.85 333.79
  L 143.69 353.59
  Q 143.67 355.34 141.91 355.30
  L 137.00 355.19
  A 0.92 0.91 -86.2 0 0 136.07 356.01
  Q 135.81 358.59 136.51 361.09
  A 1.22 1.22 0.0 0 1 135.45 362.64
  L 130.86 363.05
  A 1.33 1.32 -3.3 0 0 129.66 364.39
  L 129.93 384.39
  A 1.30 1.30 0.0 0 1 128.60 385.71
  L 116.56 385.44
  A 1.38 1.37 0.8 0 1 115.21 384.06
  L 115.28 364.46
  A 1.53 1.52 3.9 0 0 113.96 362.95
  L 108.84 362.26
  A 1.11 1.10 -84.7 0 1 107.88 361.10
  L 108.14 356.54
  Z"
/>
<path fill="#000000" d="
  M 200.03 378.73
  L 199.99 383.60
  A 2.07 2.07 0.0 0 1 197.90 385.66
  L 165.75 385.40
  A 1.81 1.81 0.0 0 1 163.95 383.49
  L 164.17 379.42
  A 1.30 1.30 0.0 0 0 162.92 378.04
  L 158.01 377.86
  A 0.61 0.61 0.0 0 1 157.43 377.26
  L 157.32 340.72
  A 0.79 0.78 -2.8 0 1 158.03 339.94
  L 162.73 339.52
  A 1.05 1.05 0.0 0 0 163.67 338.34
  C 163.33 335.72 162.98 331.70 166.83 331.73
  Q 182.71 331.86 198.42 331.78
  A 1.82 1.81 89.8 0 1 200.24 333.60
  L 200.24 338.76
  A 1.01 1.00 -0.3 0 0 201.26 339.76
  L 205.72 339.72
  A 1.25 1.25 0.0 0 1 206.98 340.97
  L 206.92 375.91
  Q 206.92 378.21 204.62 378.13
  L 200.77 378.01
  A 0.72 0.71 -88.9 0 0 200.03 378.73
  Z
  M 192.2010 341.1677
  A 0.88 0.88 0.0 0 0 191.3225 340.2862
  L 172.8425 340.2539
  A 0.88 0.88 0.0 0 0 171.9610 341.1324
  L 171.8990 376.6523
  A 0.88 0.88 0.0 0 0 172.7775 377.5338
  L 191.2575 377.5661
  A 0.88 0.88 0.0 0 0 192.1390 376.6876
  L 192.2010 341.1677
  Z"
/>
<path fill="#000000" d="
  M 236.49 377.31
  L 254.12 377.58
  A 1.37 1.37 0.0 0 0 255.51 376.20
  L 255.24 333.07
  A 1.37 1.37 0.0 0 1 256.61 331.69
  L 268.57 331.73
  A 1.37 1.37 0.0 0 1 269.94 333.10
  L 269.78 376.76
  A 1.37 1.37 0.0 0 1 268.53 378.12
  L 264.30 378.48
  A 1.37 1.37 0.0 0 0 263.04 379.91
  L 263.24 384.18
  A 1.37 1.37 0.0 0 1 261.87 385.61
  L 228.47 385.47
  A 1.37 1.37 0.0 0 1 227.10 384.09
  L 227.14 379.43
  A 1.37 1.37 0.0 0 0 225.75 378.04
  L 221.89 378.09
  A 1.37 1.37 0.0 0 1 220.50 376.71
  L 220.52 333.22
  A 1.37 1.37 0.0 0 1 221.87 331.85
  L 234.04 331.72
  A 1.37 1.37 0.0 0 1 235.43 333.10
  L 235.14 375.93
  A 1.37 1.37 0.0 0 0 236.49 377.31
  Z"
/>
<path fill="#000000" d="
  M 352.19 355.10
  A 1.46 1.45 88.9 0 0 353.70 353.53
  Q 352.90 343.29 353.60 333.00
  A 1.40 1.40 0.0 0 1 355.02 331.69
  L 366.88 331.85
  A 1.76 1.76 0.0 0 1 368.62 333.63
  L 368.36 376.40
  A 1.67 1.66 0.7 0 1 366.66 378.05
  L 362.73 377.98
  A 1.65 1.65 0.0 0 0 361.06 379.78
  L 361.47 384.04
  A 1.52 1.52 0.0 0 1 359.95 385.70
  L 355.37 385.69
  A 1.72 1.72 0.0 0 1 353.66 383.86
  L 353.94 379.68
  A 1.33 1.33 0.0 0 0 352.68 378.26
  L 347.97 378.00
  A 1.20 1.19 -86.7 0 1 346.84 376.72
  L 347.12 372.57
  Q 347.25 370.64 345.32 370.61
  L 342.14 370.57
  Q 340.33 370.54 340.42 372.36
  L 340.63 376.48
  A 1.40 1.39 88.0 0 1 339.27 377.95
  L 334.25 378.05
  A 1.22 1.22 0.0 0 0 333.06 379.30
  L 333.16 383.62
  A 2.06 2.05 89.2 0 1 331.13 385.72
  L 327.89 385.76
  Q 325.73 385.78 325.89 383.63
  L 326.20 379.59
  A 1.36 1.35 -88.0 0 0 324.84 378.13
  L 319.32 378.17
  A 1.13 1.13 0.0 0 1 318.19 377.04
  L 318.35 333.70
  A 1.93 1.92 -89.4 0 1 320.30 331.78
  L 332.41 331.91
  A 0.72 0.72 0.0 0 1 333.12 332.63
  L 333.12 353.23
  Q 333.12 355.10 334.98 355.04
  L 337.75 354.96
  Q 339.65 354.90 339.59 353.00
  L 339.46 349.04
  Q 339.39 346.72 341.71 346.74
  L 345.39 346.78
  Q 347.72 346.80 347.73 349.14
  L 347.75 353.21
  Q 347.76 354.90 349.46 354.98
  L 352.19 355.10
  Z"
/>
<path fill="#000000" d="
  M 410.90 340.57
  Q 410.64 340.96 410.64 341.75
  Q 410.55 359.06 410.50 376.32
  Q 410.49 377.71 411.88 377.65
  L 423.09 377.18
  A 1.90 1.89 -0.0 0 1 425.06 379.14
  L 424.90 383.21
  Q 424.81 385.52 422.50 385.52
  L 384.27 385.57
  Q 381.96 385.57 381.78 383.27
  L 381.49 379.49
  Q 381.30 377.03 383.77 377.15
  L 394.23 377.68
  A 1.17 1.16 -88.1 0 0 395.46 376.52
  L 395.80 341.94
  Q 395.81 340.06 393.94 340.14
  L 384.33 340.53
  Q 381.52 340.65 381.49 337.83
  L 381.46 334.57
  Q 381.43 331.81 384.19 331.82
  L 422.50 331.95
  Q 425.05 331.95 425.04 334.50
  L 425.02 337.71
  Q 425.01 340.18 422.55 340.40
  Q 417.24 340.90 412.00 340.09
  A 1.12 1.10 20.9 0 0 410.90 340.57
  Z"
/>
<path fill="#000000" d="
  M 469.04 354.98
  L 471.37 354.89
  Q 473.30 354.82 473.30 352.88
  L 473.29 332.60
  Q 473.29 331.74 474.15 331.75
  L 486.22 331.80
  Q 488.16 331.81 488.10 333.75
  Q 487.33 358.92 487.98 384.08
  A 1.56 1.56 0.0 0 1 486.43 385.68
  L 475.03 385.74
  A 1.46 1.45 89.8 0 1 473.57 384.28
  L 473.59 379.71
  A 1.48 1.48 0.0 0 0 471.91 378.24
  Q 469.59 378.55 467.30 378.09
  A 1.63 1.63 0.0 0 1 466.01 376.29
  L 466.48 372.49
  A 1.50 1.50 0.0 0 0 464.99 370.80
  L 460.65 370.79
  A 1.89 1.89 0.0 0 1 458.78 368.65
  L 459.27 364.78
  A 1.62 1.62 0.0 0 0 457.77 362.96
  L 454.42 362.73
  Q 452.71 362.62 452.71 364.33
  L 452.73 383.76
  A 1.77 1.77 0.0 0 1 450.99 385.53
  L 440.00 385.71
  Q 437.49 385.75 437.49 383.25
  L 437.56 333.41
  A 1.75 1.75 0.0 0 1 439.35 331.66
  L 451.51 331.93
  A 1.37 1.37 0.0 0 1 452.86 333.26
  L 453.05 338.86
  A 0.82 0.81 9.2 0 0 453.58 339.59
  Q 456.16 340.50 458.89 340.09
  A 0.82 0.81 85.0 0 1 459.82 340.87
  L 459.96 346.13
  A 0.93 0.92 -0.6 0 0 460.88 347.02
  L 465.50 347.03
  A 1.48 1.48 0.0 0 1 466.97 348.50
  L 467.02 353.04
  Q 467.04 355.05 469.04 354.98
  Z"
/>
<rect fill="#000000" x="-7.52" y="-19.56" transform="translate(508.35,351.36) rotate(0.1)" width="15.04" height="39.12" rx="1.76"/>
<rect fill="#000000" x="-7.61" y="-4.28" transform="translate(508.38,381.55) rotate(-1.0)" width="15.22" height="8.56" rx="1.87"/>
</svg>
