<?xml version="1.0" encoding="UTF-8" standalone="no"?>
<!DOCTYPE svg PUBLIC "-//W3C//DTD SVG 1.0//EN" "http://www.w3.org/TR/2001/REC-SVG-20010904/DTD/svg10.dtd">
<svg xmlns="http://www.w3.org/2000/svg" version="1.0" viewBox="0.00 0.00 439.00 79.00">
<path fill="#000000" d="
  M 34.74 42.26
  L 29.38 42.18
  A 0.78 0.78 0.0 0 1 28.61 41.35
  L 28.93 36.51
  A 0.78 0.78 0.0 0 0 28.15 35.67
  L 22.63 35.71
  A 0.78 0.78 0.0 0 1 21.84 34.92
  L 21.89 16.45
  A 0.78 0.78 0.0 0 1 22.66 15.67
  L 34.70 15.60
  A 0.78 0.78 0.0 0 1 35.48 16.37
  L 35.50 35.03
  A 0.78 0.78 0.0 0 0 36.29 35.81
  L 47.99 35.70
  A 0.78 0.78 0.0 0 0 48.77 34.91
  L 48.69 16.46
  A 0.78 0.78 0.0 0 1 49.47 15.67
  L 61.19 15.59
  A 0.78 0.78 0.0 0 1 61.98 16.37
  L 61.95 35.00
  A 0.78 0.78 0.0 0 1 61.15 35.78
  L 56.15 35.62
  A 0.78 0.78 0.0 0 0 55.35 36.43
  L 55.56 41.42
  A 0.78 0.78 0.0 0 1 54.77 42.24
  L 49.53 42.15
  A 0.78 0.78 0.0 0 0 48.73 42.94
  L 48.84 61.43
  A 0.78 0.78 0.0 0 1 48.06 62.21
  L 36.28 62.24
  A 0.78 0.78 0.0 0 1 35.50 61.46
  L 35.51 43.04
  A 0.78 0.78 0.0 0 0 34.74 42.26
  Z"
/>
<path fill="#000000" d="
  M 116.09 22.21
  L 121.31 22.24
  A 0.70 0.70 0.0 0 1 122.01 22.95
  L 121.88 55.10
  A 0.70 0.70 0.0 0 1 121.15 55.80
  L 116.00 55.58
  A 0.70 0.70 0.0 0 0 115.27 56.30
  L 115.44 61.50
  A 0.70 0.70 0.0 0 1 114.74 62.22
  L 82.49 62.21
  A 0.70 0.70 0.0 0 1 81.79 61.50
  L 81.85 56.42
  A 0.70 0.70 0.0 0 0 81.14 55.71
  L 76.22 55.76
  A 0.70 0.70 0.0 0 1 75.51 55.06
  L 75.50 22.95
  A 0.70 0.70 0.0 0 1 76.20 22.25
  L 81.16 22.25
  A 0.70 0.70 0.0 0 0 81.86 21.54
  L 81.83 16.36
  A 0.70 0.70 0.0 0 1 82.53 15.65
  L 114.74 15.64
  A 0.70 0.70 0.0 0 1 115.44 16.35
  L 115.40 21.50
  A 0.70 0.70 0.0 0 0 116.09 22.21
  Z
  M 108.74 23.12
  A 0.94 0.94 0.0 0 0 107.80 22.18
  L 89.72 22.18
  A 0.94 0.94 0.0 0 0 88.78 23.12
  L 88.78 54.78
  A 0.94 0.94 0.0 0 0 89.72 55.72
  L 107.80 55.72
  A 0.94 0.94 0.0 0 0 108.74 54.78
  L 108.74 23.12
  Z"
/>
<path fill="#000000" d="
  M 175.33 56.41
  L 175.43 61.43
  A 0.76 0.76 0.0 0 1 174.67 62.21
  L 142.51 62.23
  A 0.76 0.76 0.0 0 1 141.75 61.46
  L 141.84 56.50
  A 0.76 0.76 0.0 0 0 141.07 55.72
  L 136.23 55.76
  A 0.76 0.76 0.0 0 1 135.47 55.00
  L 135.46 16.41
  A 0.76 0.76 0.0 0 1 136.22 15.65
  L 148.15 15.61
  A 0.76 0.76 0.0 0 1 148.91 16.37
  L 148.78 54.93
  A 0.76 0.76 0.0 0 0 149.54 55.69
  L 168.02 55.75
  A 0.76 0.76 0.0 0 0 168.78 54.99
  L 168.74 16.42
  A 0.76 0.76 0.0 0 1 169.49 15.66
  L 181.11 15.57
  A 0.76 0.76 0.0 0 1 181.88 16.33
  L 181.83 55.05
  A 0.76 0.76 0.0 0 1 181.04 55.81
  L 176.11 55.63
  A 0.76 0.76 0.0 0 0 175.33 56.41
  Z"
/>
<path fill="#000000" d="
  M 234.56 55.69
  L 229.45 55.78
  A 0.91 0.91 0.0 0 1 228.53 54.87
  L 228.76 16.59
  A 0.91 0.91 0.0 0 1 229.66 15.69
  L 240.91 15.57
  A 0.91 0.91 0.0 0 1 241.83 16.48
  L 241.89 34.83
  A 0.91 0.91 0.0 0 0 242.80 35.74
  L 247.85 35.73
  A 0.91 0.91 0.0 0 0 248.76 34.80
  L 248.64 29.70
  A 0.91 0.91 0.0 0 1 249.54 28.77
  L 254.48 28.74
  A 0.91 0.91 0.0 0 1 255.40 29.65
  L 255.39 34.81
  A 0.91 0.91 0.0 0 0 256.30 35.72
  L 260.89 35.75
  A 0.91 0.91 0.0 0 0 261.80 34.84
  L 261.79 16.56
  A 0.91 0.91 0.0 0 1 262.70 15.65
  L 274.53 15.60
  A 0.91 0.91 0.0 0 1 275.44 16.51
  L 275.42 54.86
  A 0.91 0.91 0.0 0 1 274.50 55.77
  L 269.37 55.69
  A 0.91 0.91 0.0 0 0 268.45 56.69
  L 268.90 61.17
  A 0.91 0.91 0.0 0 1 268.01 62.17
  L 262.68 62.26
  A 0.91 0.91 0.0 0 1 261.75 61.33
  L 261.87 56.65
  A 0.91 0.91 0.0 0 0 260.96 55.71
  L 256.33 55.69
  A 0.91 0.91 0.0 0 1 255.42 54.77
  L 255.43 49.64
  A 0.91 0.91 0.0 0 0 254.51 48.73
  L 249.51 48.79
  A 0.91 0.91 0.0 0 0 248.61 49.76
  L 248.93 54.75
  A 0.91 0.91 0.0 0 1 248.02 55.72
  L 242.71 55.70
  A 0.91 0.91 0.0 0 0 241.80 56.66
  L 242.03 61.20
  A 0.91 0.91 0.0 0 1 241.15 62.15
  L 236.38 62.27
  A 0.91 0.91 0.0 0 1 235.45 61.35
  L 235.48 56.60
  A 0.91 0.91 0.0 0 0 234.56 55.69
  Z"
/>
<path fill="#000000" d="
  M 315.35 23.04
  L 315.35 55.01
  A 0.82 0.82 0.0 0 0 316.18 55.83
  L 327.92 55.61
  A 0.82 0.82 0.0 0 1 328.75 56.42
  L 328.84 61.40
  A 0.82 0.82 0.0 0 1 328.02 62.23
  L 289.49 62.23
  A 0.82 0.82 0.0 0 1 288.67 61.42
  L 288.62 56.48
  A 0.82 0.82 0.0 0 1 289.45 55.65
  L 301.00 55.80
  A 0.82 0.82 0.0 0 0 301.83 54.98
  L 301.79 23.03
  A 0.82 0.82 0.0 0 0 300.97 22.21
  L 289.48 22.25
  A 0.82 0.82 0.0 0 1 288.66 21.43
  L 288.64 16.49
  A 0.82 0.82 0.0 0 1 289.46 15.67
  L 327.91 15.66
  A 0.82 0.82 0.0 0 1 328.73 16.46
  L 328.88 21.39
  A 0.82 0.82 0.0 0 1 328.06 22.23
  L 316.17 22.22
  A 0.82 0.82 0.0 0 0 315.35 23.04
  Z"
/>
<path fill="#000000" d="
  M 356.10 22.21
  L 361.20 22.25
  A 0.78 0.78 0.0 0 1 361.98 23.04
  L 361.91 28.15
  A 0.78 0.78 0.0 0 0 362.72 28.94
  L 368.18 28.71
  A 0.78 0.78 0.0 0 1 368.99 29.53
  L 368.69 34.87
  A 0.78 0.78 0.0 0 0 369.46 35.70
  L 374.58 35.80
  A 0.78 0.78 0.0 0 0 375.38 35.02
  L 375.40 16.46
  A 0.78 0.78 0.0 0 1 376.18 15.68
  L 388.02 15.61
  A 0.78 0.78 0.0 0 1 388.80 16.39
  L 388.80 61.43
  A 0.78 0.78 0.0 0 1 388.02 62.21
  L 376.20 62.24
  A 0.78 0.78 0.0 0 1 375.42 61.46
  L 375.38 56.45
  A 0.78 0.78 0.0 0 0 374.63 55.68
  L 369.52 55.51
  A 0.78 0.78 0.0 0 1 368.76 54.72
  L 368.83 49.54
  A 0.78 0.78 0.0 0 0 368.05 48.75
  L 362.55 48.79
  A 0.78 0.78 0.0 0 1 361.77 48.00
  L 361.80 43.02
  A 0.78 0.78 0.0 0 0 361.02 42.23
  L 356.11 42.24
  A 0.78 0.78 0.0 0 0 355.33 43.02
  L 355.34 61.46
  A 0.78 0.78 0.0 0 1 354.56 62.24
  L 342.63 62.19
  A 0.78 0.78 0.0 0 1 341.85 61.41
  L 341.85 16.44
  A 0.78 0.78 0.0 0 1 342.63 15.66
  L 354.56 15.59
  A 0.78 0.78 0.0 0 1 355.35 16.38
  L 355.32 21.43
  A 0.78 0.78 0.0 0 0 356.10 22.21
  Z"
/>
<rect fill="#000000" x="401.81" y="15.62" width="13.50" height="33.26" rx="0.70"/>
<rect fill="#000000" x="-6.74" y="-3.30" transform="translate(408.55,58.92) rotate(-0.3)" width="13.48" height="6.60" rx="0.59"/>
</svg>
