<?xml version="1.0" encoding="UTF-8" standalone="no"?>
<!DOCTYPE svg PUBLIC "-//W3C//DTD SVG 1.0//EN" "http://www.w3.org/TR/2001/REC-SVG-20010904/DTD/svg10.dtd">
<svg xmlns="http://www.w3.org/2000/svg" version="1.0" viewBox="0.00 0.00 252.00 252.00">
<path fill="#f5ba20" d="
  M 90.98 81.49
  A 2.09 2.09 0.0 0 0 92.17 80.44
  Q 104.55 55.38 116.89 30.14
  Q 119.95 23.88 122.07 22.01
  C 126.73 17.91 134.93 18.03 139.52 22.45
  Q 141.27 24.13 143.71 29.10
  Q 156.02 54.28 168.59 79.90
  A 3.39 3.37 80.9 0 0 171.15 81.76
  Q 200.02 85.78 229.00 90.06
  Q 234.01 90.80 237.17 93.42
  C 242.05 97.46 243.13 104.94 239.56 110.26
  Q 238.79 111.40 233.15 116.99
  Q 214.14 135.79 194.93 154.17
  A 3.73 3.71 63.4 0 0 193.84 157.48
  Q 198.58 184.99 203.39 212.50
  C 203.92 215.54 204.53 219.10 203.66 221.97
  C 201.53 229.05 194.11 232.94 187.00 230.72
  Q 185.73 230.32 181.77 228.24
  Q 156.63 215.00 131.89 201.92
  A 2.88 2.87 45.1 0 0 129.21 201.91
  Q 103.76 215.25 78.96 228.30
  C 72.77 231.55 68.52 232.96 62.74 229.01
  C 56.61 224.81 56.60 219.43 57.73 212.75
  Q 62.42 185.23 67.26 157.15
  A 3.40 3.38 -63.3 0 0 66.27 154.14
  Q 45.23 133.88 24.07 113.43
  Q 16.13 105.75 21.32 96.33
  C 23.56 92.26 27.66 90.68 32.50 89.97
  Q 60.23 85.89 88.01 82.17
  Q 89.63 81.95 90.98 81.49
  Z"
/>
</svg>
