<?xml version="1.0" encoding="UTF-8"?>
<!DOCTYPE svg PUBLIC "-//W3C//DTD SVG 1.1//EN" "http://www.w3.org/Graphics/SVG/1.1/DTD/svg11.dtd">
<svg xmlns="http://www.w3.org/2000/svg" version="1.1" width="800px" height="409px" style="shape-rendering:geometricPrecision; text-rendering:geometricPrecision; image-rendering:optimizeQuality; fill-rule:evenodd; clip-rule:evenodd" xmlns:xlink="http://www.w3.org/1999/xlink">
<g><path style="opacity:1" fill="#000309" d="M 3.5,-0.5 C 268.167,-0.5 532.833,-0.5 797.5,-0.5C 797.5,36.8333 797.5,74.1667 797.5,111.5C 796.669,98.3337 796.002,85.0003 795.5,71.5C 795.167,68.8333 794.833,66.1667 794.5,63.5C 793.158,64.9023 792.324,64.5689 792,62.5C 791.501,57.5111 791.334,52.5111 791.5,47.5C 767.5,47.5 743.5,47.5 719.5,47.5C 719.5,49.5 719.5,51.5 719.5,53.5C 676.828,54.5668 634.161,55.9002 591.5,57.5C 583.471,57.1649 575.471,56.4982 567.5,55.5C 559.529,56.4982 551.529,57.1649 543.5,57.5C 531.507,56.7004 519.507,56.0337 507.5,55.5C 500.428,55.5203 493.595,56.1869 487,57.5C 486.5,57 486,56.5 485.5,56C 478.144,55.1687 470.811,55.3354 463.5,56.5C 460.373,56.98 457.54,57.98 455,59.5C 447.566,56.1724 439.733,54.839 431.5,55.5C 431.5,58.1667 431.5,60.8333 431.5,63.5C 399.5,63.5 367.5,63.5 335.5,63.5C 335.5,65.5 335.5,67.5 335.5,69.5C 330.167,69.5 324.833,69.5 319.5,69.5C 319.5,67.5 319.5,65.5 319.5,63.5C 314.167,63.5 308.833,63.5 303.5,63.5C 303.5,65.5 303.5,67.5 303.5,69.5C 276.82,69.7228 250.153,70.3895 223.5,71.5C 223.5,70.1667 223.5,68.8333 223.5,67.5C 202.259,70.1544 180.926,71.4878 159.5,71.5C 159.5,68.8333 159.5,66.1667 159.5,63.5C 143.5,63.5 127.5,63.5 111.5,63.5C 111.5,65.5 111.5,67.5 111.5,69.5C 106.167,69.5 100.833,69.5 95.5,69.5C 95.5,67.5 95.5,65.5 95.5,63.5C 79.5,63.5 63.5,63.5 47.5,63.5C 47.5,66.1667 47.5,68.8333 47.5,71.5C 42.1667,71.5 36.8333,71.5 31.5,71.5C 31.5,68.8333 31.5,66.1667 31.5,63.5C 29.5,63.5 27.5,63.5 25.5,63.5C 25.5,68.8333 25.5,74.1667 25.5,79.5C 20.9014,79.8 16.4014,79.4667 12,78.5C 11.8329,63.1558 11.3329,47.8225 10.5,32.5C 9.50138,42.8119 9.16805,53.1452 9.5,63.5C 8.17793,63.33 7.01127,63.6634 6,64.5C 4.72215,74.7236 4.55548,84.8903 5.5,95C 4.85356,100.6 4.1869,106.1 3.5,111.5C 3.5,74.1667 3.5,36.8333 3.5,-0.5 Z"/></g>
<g><path style="opacity:1" fill="#1c1e20" d="M -0.5,-0.5 C 0.833333,-0.5 2.16667,-0.5 3.5,-0.5C 3.5,36.8333 3.5,74.1667 3.5,111.5C 3.5,116.833 3.5,122.167 3.5,127.5C 3.5,154.167 3.5,180.833 3.5,207.5C 3.5,255.5 3.5,303.5 3.5,351.5C 3.5,369.5 3.5,387.5 3.5,405.5C 2.16667,344.833 0.833333,284.167 -0.5,223.5C -0.5,148.833 -0.5,74.1667 -0.5,-0.5 Z"/></g>
<g><path style="opacity:1" fill="#00050e" d="M 797.5,111.5 C 797.332,135.473 797.165,159.473 797,183.5C 796.83,172.659 796.33,161.992 795.5,151.5C 794.809,127.277 793.809,103.277 792.5,79.5C 792.665,75.8183 792.499,72.1516 792,68.5C 792.847,77.6118 790.847,78.6118 786,71.5C 785.882,74.3713 785.216,77.038 784,79.5C 783.505,77.5273 783.338,75.5273 783.5,73.5C 778.167,74.1667 772.833,74.8333 767.5,75.5C 767.5,76.8333 767.5,78.1667 767.5,79.5C 759.432,79.4909 751.432,78.8243 743.5,77.5C 743.5,78.8333 743.5,80.1667 743.5,81.5C 732.833,81.8333 722.167,82.1667 711.5,82.5C 711.5,83.5 711.5,84.5 711.5,85.5C 708.833,85.5 706.167,85.5 703.5,85.5C 703.5,84.1667 703.5,82.8333 703.5,81.5C 696.733,81.8207 690.066,81.1541 683.5,79.5C 679.755,79.4646 679.088,80.4646 681.5,82.5C 680.167,83.1667 678.833,83.8333 677.5,84.5C 678.167,85.1667 678.833,85.8333 679.5,86.5C 677.149,88.2289 674.482,88.8956 671.5,88.5C 671.5,86.1667 671.5,83.8333 671.5,81.5C 658.088,81.1143 644.755,81.9477 631.5,84C 629.194,86.139 626.527,87.639 623.5,88.5C 615.5,89.5 607.5,90.5 599.5,91.5C 592.801,90.7169 586.135,89.7169 579.5,88.5C 581.078,87.7022 582.744,87.2022 584.5,87C 586.5,84.6667 588.5,82.3333 590.5,80C 585.528,80.2452 580.528,80.7452 575.5,81.5C 564.873,80.8236 564.873,80.1569 575.5,79.5C 575.5,78.1667 575.5,76.8333 575.5,75.5C 586.167,75.5 596.833,75.5 607.5,75.5C 607.5,73.1667 607.5,70.8333 607.5,68.5C 596.808,67.8269 586.141,67.8269 575.5,68.5C 575.5,70.1667 575.5,71.8333 575.5,73.5C 564.833,73.5 554.167,73.5 543.5,73.5C 543.5,75.5 543.5,77.5 543.5,79.5C 532.682,79.2652 522.016,79.2652 511.5,79.5C 511.5,82.8333 511.5,86.1667 511.5,89.5C 503.5,89.5 495.5,89.5 487.5,89.5C 487.5,90.5 487.5,91.5 487.5,92.5C 485.641,92.4609 484.308,93.2942 483.5,95C 487.833,95.3333 492.167,95.6667 496.5,96C 482.518,97.7842 468.685,100.618 455,104.5C 419.346,103.927 383.512,103.593 347.5,103.5C 332.861,104.777 318.194,105.61 303.5,106C 294.097,106.671 284.764,107.837 275.5,109.5C 263.386,106.657 251.386,106.991 239.5,110.5C 232.833,110.833 226.167,111.167 219.5,111.5C 207.482,110.966 195.482,110.299 183.5,109.5C 183.5,108.167 183.5,106.833 183.5,105.5C 180.272,105.299 177.105,105.633 174,106.5C 172.72,106.387 171.887,105.72 171.5,104.5C 160.167,104.167 148.833,103.833 137.5,103.5C 110.161,104.417 82.8276,105.417 55.5,106.5C 55.5,105.5 55.5,104.5 55.5,103.5C 52.9891,102.24 50.6557,100.573 48.5,98.5C 47.6143,99.325 47.281,100.325 47.5,101.5C 42.1667,101.5 36.8333,101.5 31.5,101.5C 31.5,99.5 31.5,97.5 31.5,95.5C 28.8333,95.5 26.1667,95.5 23.5,95.5C 23.8134,98.2469 23.48,100.914 22.5,103.5C 21.6112,100.721 20.4445,98.0546 19,95.5C 18,96.8333 17,98.1667 16,99.5C 15.6667,98.1667 15.3333,96.8333 15,95.5C 13.1978,96.7893 12.0312,98.4559 11.5,100.5C 10.2058,101.29 9.0391,102.29 8,103.5C 5.24304,111.44 3.74304,119.44 3.5,127.5C 3.5,122.167 3.5,116.833 3.5,111.5C 4.1869,106.1 4.85356,100.6 5.5,95C 4.55548,84.8903 4.72215,74.7236 6,64.5C 7.01127,63.6634 8.17793,63.33 9.5,63.5C 9.16805,53.1452 9.50138,42.8119 10.5,32.5C 11.3329,47.8225 11.8329,63.1558 12,78.5C 16.4014,79.4667 20.9014,79.8 25.5,79.5C 25.5,74.1667 25.5,68.8333 25.5,63.5C 27.5,63.5 29.5,63.5 31.5,63.5C 31.5,66.1667 31.5,68.8333 31.5,71.5C 36.8333,71.5 42.1667,71.5 47.5,71.5C 47.5,68.8333 47.5,66.1667 47.5,63.5C 63.5,63.5 79.5,63.5 95.5,63.5C 95.5,65.5 95.5,67.5 95.5,69.5C 100.833,69.5 106.167,69.5 111.5,69.5C 111.5,67.5 111.5,65.5 111.5,63.5C 127.5,63.5 143.5,63.5 159.5,63.5C 159.5,66.1667 159.5,68.8333 159.5,71.5C 180.926,71.4878 202.259,70.1544 223.5,67.5C 223.5,68.8333 223.5,70.1667 223.5,71.5C 250.153,70.3895 276.82,69.7228 303.5,69.5C 303.5,67.5 303.5,65.5 303.5,63.5C 308.833,63.5 314.167,63.5 319.5,63.5C 319.5,65.5 319.5,67.5 319.5,69.5C 324.833,69.5 330.167,69.5 335.5,69.5C 335.5,67.5 335.5,65.5 335.5,63.5C 367.5,63.5 399.5,63.5 431.5,63.5C 431.5,60.8333 431.5,58.1667 431.5,55.5C 439.733,54.839 447.566,56.1724 455,59.5C 457.54,57.98 460.373,56.98 463.5,56.5C 470.811,55.3354 478.144,55.1687 485.5,56C 486,56.5 486.5,57 487,57.5C 493.595,56.1869 500.428,55.5203 507.5,55.5C 519.507,56.0337 531.507,56.7004 543.5,57.5C 551.529,57.1649 559.529,56.4982 567.5,55.5C 575.471,56.4982 583.471,57.1649 591.5,57.5C 634.161,55.9002 676.828,54.5668 719.5,53.5C 719.5,51.5 719.5,49.5 719.5,47.5C 743.5,47.5 767.5,47.5 791.5,47.5C 791.334,52.5111 791.501,57.5111 792,62.5C 792.324,64.5689 793.158,64.9023 794.5,63.5C 794.833,66.1667 795.167,68.8333 795.5,71.5C 796.002,85.0003 796.669,98.3337 797.5,111.5 Z"/></g>
<g><path style="opacity:1" fill="#000711" d="M 792.5,79.5 C 792.571,84.5995 791.904,89.5995 790.5,94.5C 788.214,95.4196 785.881,95.4196 783.5,94.5C 783.5,93.5 783.5,92.5 783.5,91.5C 780.5,91.1667 779.167,92.5 779.5,95.5C 777.167,95.5 774.833,95.5 772.5,95.5C 772.5,96.5 772.5,97.5 772.5,98.5C 770.007,98.3291 768.174,99.3291 767,101.5C 764.618,99.7412 762.452,97.7412 760.5,95.5C 759.833,97.1667 759.167,98.8333 758.5,100.5C 754.503,99.6138 752.003,97.2805 751,93.5C 749.118,96.6227 746.785,99.2894 744,101.5C 743.517,100.552 743.351,99.552 743.5,98.5C 732.467,98.7894 721.8,97.1227 711.5,93.5C 703.5,92.5 695.5,91.5 687.5,90.5C 680.262,91.2287 673.262,92.7287 666.5,95C 668.134,95.4935 669.801,95.6602 671.5,95.5C 671.5,98.8333 671.5,102.167 671.5,105.5C 657.53,104.323 643.53,103.656 629.5,103.5C 629.5,104.833 629.5,106.167 629.5,107.5C 627.5,107.5 625.5,107.5 623.5,107.5C 623.5,108.5 623.5,109.5 623.5,110.5C 621.833,110.5 620.167,110.5 618.5,110.5C 618.286,112.144 618.62,113.644 619.5,115C 625.681,115.893 631.348,118.059 636.5,121.5C 642.014,122.843 647.18,125.51 652,129.5C 652.414,129.043 652.914,128.709 653.5,128.5C 655.583,129.959 657.75,131.292 660,132.5C 662.961,132.158 665.294,133.491 667,136.5C 668.808,136.112 670.475,136.112 672,136.5C 672.374,137.416 672.874,138.25 673.5,139C 679.207,140.381 684.207,143.048 688.5,147C 687.944,147.383 687.611,147.883 687.5,148.5C 682.339,144.75 676.672,141.75 670.5,139.5C 669.833,139.833 669.167,140.167 668.5,140.5C 667.459,137.597 665.126,136.931 661.5,138.5C 660.829,137.153 660.829,135.986 661.5,135C 658.718,132.583 655.718,131.416 652.5,131.5C 641.325,124.584 629.325,119.251 616.5,115.5C 614.971,115.529 613.804,116.196 613,117.5C 611.909,119.718 610.743,121.884 609.5,124C 609.47,126.624 609.803,129.291 610.5,132C 609.529,133.204 608.529,133.704 607.5,133.5C 608.202,135.776 608.035,138.109 607,140.5C 603.633,135.364 601.633,129.698 601,123.5C 600.34,121.676 599.173,120.343 597.5,119.5C 596.5,119.5 595.5,119.5 594.5,119.5C 595.468,116.974 594.634,116.308 592,117.5C 591,116.833 590,116.167 589,115.5C 584.437,117.868 579.604,119.201 574.5,119.5C 573.093,125.25 573.426,130.917 575.5,136.5C 575.89,138.982 574.89,140.315 572.5,140.5C 573.355,139.469 574.022,138.303 574.5,137C 571.359,131.562 569.859,125.729 570,119.5C 570.333,120.5 570.667,121.5 571,122.5C 571.333,120.833 571.667,119.167 572,117.5C 574.775,116.061 577.275,114.228 579.5,112C 578.556,109.281 578.223,106.448 578.5,103.5C 577.5,103.5 576.5,103.5 575.5,103.5C 575.768,106.119 575.435,108.619 574.5,111C 569.511,111.499 564.511,111.666 559.5,111.5C 559.5,109.5 559.5,107.5 559.5,105.5C 554.167,105.5 548.833,105.5 543.5,105.5C 543.5,104.167 543.5,102.833 543.5,101.5C 534.161,101.334 524.827,101.5 515.5,102C 514.437,103.188 513.103,103.688 511.5,103.5C 511.66,101.801 511.494,100.134 511,98.5C 508.78,99.987 506.78,101.654 505,103.5C 504.228,103.355 503.561,103.022 503,102.5C 498.202,104.561 493.369,106.561 488.5,108.5C 485.113,107.505 482.113,108.338 479.5,111C 476.854,111.497 474.187,111.664 471.5,111.5C 471.5,112.5 471.5,113.5 471.5,114.5C 466.167,115.167 460.833,115.833 455.5,116.5C 455.5,117.5 455.5,118.5 455.5,119.5C 454.5,119.5 453.5,119.5 452.5,119.5C 451.5,122.167 450.5,124.833 449.5,127.5C 447.5,127.5 445.5,127.5 443.5,127.5C 443.277,123.375 441.777,122.709 439,125.5C 436.614,124.237 434.781,122.403 433.5,120C 413.825,119.167 394.158,119.334 374.5,120.5C 372.5,127.167 370.5,127.167 368.5,120.5C 367,120.167 365.5,119.833 364,119.5C 357.301,121.441 350.468,122.441 343.5,122.5C 343.719,121.325 343.386,120.325 342.5,119.5C 340.548,121.741 338.382,123.741 336,125.5C 335.517,124.552 335.351,123.552 335.5,122.5C 324.833,122.5 314.167,122.5 303.5,122.5C 303.5,123.5 303.5,124.5 303.5,125.5C 299.667,125.447 296.001,124.947 292.5,124C 290.483,127.556 289.149,131.389 288.5,135.5C 287.479,128.878 286.479,128.878 285.5,135.5C 284.167,135.5 282.833,135.5 281.5,135.5C 281.817,131.828 280.151,130.162 276.5,130.5C 276.5,129.5 276.5,128.5 276.5,127.5C 261.488,123.956 246.488,124.289 231.5,128.5C 234.086,129.48 236.753,129.813 239.5,129.5C 239.5,130.5 239.5,131.5 239.5,132.5C 241.359,132.461 242.692,133.294 243.5,135C 239.129,135.828 234.795,135.661 230.5,134.5C 229.423,132.271 228.756,129.937 228.5,127.5C 225.47,127.908 222.47,128.574 219.5,129.5C 217.616,129.284 215.949,128.617 214.5,127.5C 213.673,131.459 213.173,135.459 213,139.5C 212.586,139.957 212.086,140.291 211.5,140.5C 209.612,137.733 207.945,134.733 206.5,131.5C 205.571,132.689 205.238,134.022 205.5,135.5C 204.022,135.762 202.689,135.429 201.5,134.5C 202.238,132.06 203.571,130.06 205.5,128.5C 194.105,126.817 182.771,124.817 171.5,122.5C 167.628,125.73 164.628,125.063 162.5,120.5C 153.167,119.167 143.833,119.167 134.5,120.5C 132.017,126.96 129.85,126.626 128,119.5C 125.282,120.347 122.616,121.347 120,122.5C 119.751,121.376 119.251,120.376 118.5,119.5C 116.548,121.741 114.382,123.741 112,125.5C 111.517,124.552 111.351,123.552 111.5,122.5C 103.6,124.139 95.5996,125.139 87.5,125.5C 87.5,124.5 87.5,123.5 87.5,122.5C 76.8281,122.667 66.1615,122.5 55.5,122C 44.8666,120.171 34.2,118.671 23.5,117.5C 23.5,115.5 23.5,113.5 23.5,111.5C 22.1667,111.5 20.8333,111.5 19.5,111.5C 19.853,109.365 19.0197,108.032 17,107.5C 15.4029,108.885 13.5695,109.551 11.5,109.5C 11.5,106.5 11.5,103.5 11.5,100.5C 12.0312,98.4559 13.1978,96.7893 15,95.5C 15.3333,96.8333 15.6667,98.1667 16,99.5C 17,98.1667 18,96.8333 19,95.5C 20.4445,98.0546 21.6112,100.721 22.5,103.5C 23.48,100.914 23.8134,98.2469 23.5,95.5C 26.1667,95.5 28.8333,95.5 31.5,95.5C 31.5,97.5 31.5,99.5 31.5,101.5C 36.8333,101.5 42.1667,101.5 47.5,101.5C 47.281,100.325 47.6143,99.325 48.5,98.5C 50.6557,100.573 52.9891,102.24 55.5,103.5C 55.5,104.5 55.5,105.5 55.5,106.5C 82.8276,105.417 110.161,104.417 137.5,103.5C 148.833,103.833 160.167,104.167 171.5,104.5C 171.887,105.72 172.72,106.387 174,106.5C 177.105,105.633 180.272,105.299 183.5,105.5C 183.5,106.833 183.5,108.167 183.5,109.5C 195.482,110.299 207.482,110.966 219.5,111.5C 226.167,111.167 232.833,110.833 239.5,110.5C 251.386,106.991 263.386,106.657 275.5,109.5C 284.764,107.837 294.097,106.671 303.5,106C 318.194,105.61 332.861,104.777 347.5,103.5C 383.512,103.593 419.346,103.927 455,104.5C 468.685,100.618 482.518,97.7842 496.5,96C 492.167,95.6667 487.833,95.3333 483.5,95C 484.308,93.2942 485.641,92.4609 487.5,92.5C 487.5,91.5 487.5,90.5 487.5,89.5C 495.5,89.5 503.5,89.5 511.5,89.5C 511.5,86.1667 511.5,82.8333 511.5,79.5C 522.016,79.2652 532.682,79.2652 543.5,79.5C 543.5,77.5 543.5,75.5 543.5,73.5C 554.167,73.5 564.833,73.5 575.5,73.5C 575.5,71.8333 575.5,70.1667 575.5,68.5C 586.141,67.8269 596.808,67.8269 607.5,68.5C 607.5,70.8333 607.5,73.1667 607.5,75.5C 596.833,75.5 586.167,75.5 575.5,75.5C 575.5,76.8333 575.5,78.1667 575.5,79.5C 564.873,80.1569 564.873,80.8236 575.5,81.5C 580.528,80.7452 585.528,80.2452 590.5,80C 588.5,82.3333 586.5,84.6667 584.5,87C 582.744,87.2022 581.078,87.7022 579.5,88.5C 586.135,89.7169 592.801,90.7169 599.5,91.5C 607.5,90.5 615.5,89.5 623.5,88.5C 626.527,87.639 629.194,86.139 631.5,84C 644.755,81.9477 658.088,81.1143 671.5,81.5C 671.5,83.8333 671.5,86.1667 671.5,88.5C 674.482,88.8956 677.149,88.2289 679.5,86.5C 678.833,85.8333 678.167,85.1667 677.5,84.5C 678.833,83.8333 680.167,83.1667 681.5,82.5C 679.088,80.4646 679.755,79.4646 683.5,79.5C 690.066,81.1541 696.733,81.8207 703.5,81.5C 703.5,82.8333 703.5,84.1667 703.5,85.5C 706.167,85.5 708.833,85.5 711.5,85.5C 711.5,84.5 711.5,83.5 711.5,82.5C 722.167,82.1667 732.833,81.8333 743.5,81.5C 743.5,80.1667 743.5,78.8333 743.5,77.5C 751.432,78.8243 759.432,79.4909 767.5,79.5C 767.5,78.1667 767.5,76.8333 767.5,75.5C 772.833,74.8333 778.167,74.1667 783.5,73.5C 783.338,75.5273 783.505,77.5273 784,79.5C 785.216,77.038 785.882,74.3713 786,71.5C 790.847,78.6118 792.847,77.6118 792,68.5C 792.499,72.1516 792.665,75.8183 792.5,79.5 Z"/></g>
<g><path style="opacity:1" fill="#010a14" d="M 792.5,79.5 C 793.809,103.277 794.809,127.277 795.5,151.5C 795.657,152.873 795.49,154.207 795,155.5C 794.502,152.518 794.335,149.518 794.5,146.5C 793.5,146.5 792.5,146.5 791.5,146.5C 791.382,141.637 791.715,136.803 792.5,132C 792.546,130.272 792.046,128.772 791,127.5C 789.882,130.139 789.382,132.973 789.5,136C 790.779,141.329 790.445,146.495 788.5,151.5C 787.158,149.995 785.492,149.328 783.5,149.5C 783.5,148.167 783.5,146.833 783.5,145.5C 772.833,144.833 762.167,144.167 751.5,143.5C 751.5,140.833 751.5,138.167 751.5,135.5C 746.833,136.167 744.167,138.833 743.5,143.5C 742.167,143.5 740.833,143.5 739.5,143.5C 739.833,140.5 738.5,139.167 735.5,139.5C 735.5,138.167 735.5,136.833 735.5,135.5C 734.167,135.5 732.833,135.5 731.5,135.5C 731.67,134.178 731.337,133.011 730.5,132C 726.594,130.566 722.594,130.233 718.5,131C 716.5,131.667 715.167,133 714.5,135C 712.423,135.192 710.423,135.692 708.5,136.5C 707.833,138.5 706.5,139.833 704.5,140.5C 703.548,142.045 703.215,143.712 703.5,145.5C 700.598,144.292 697.765,143.625 695,143.5C 691.643,144.742 691.81,145.576 695.5,146C 693.282,148.802 690.615,149.636 687.5,148.5C 687.611,147.883 687.944,147.383 688.5,147C 684.207,143.048 679.207,140.381 673.5,139C 672.874,138.25 672.374,137.416 672,136.5C 670.475,136.112 668.808,136.112 667,136.5C 665.294,133.491 662.961,132.158 660,132.5C 657.75,131.292 655.583,129.959 653.5,128.5C 652.914,128.709 652.414,129.043 652,129.5C 647.18,125.51 642.014,122.843 636.5,121.5C 631.348,118.059 625.681,115.893 619.5,115C 618.62,113.644 618.286,112.144 618.5,110.5C 620.167,110.5 621.833,110.5 623.5,110.5C 623.5,109.5 623.5,108.5 623.5,107.5C 625.5,107.5 627.5,107.5 629.5,107.5C 629.5,106.167 629.5,104.833 629.5,103.5C 643.53,103.656 657.53,104.323 671.5,105.5C 671.5,102.167 671.5,98.8333 671.5,95.5C 669.801,95.6602 668.134,95.4935 666.5,95C 673.262,92.7287 680.262,91.2287 687.5,90.5C 695.5,91.5 703.5,92.5 711.5,93.5C 721.8,97.1227 732.467,98.7894 743.5,98.5C 743.351,99.552 743.517,100.552 744,101.5C 746.785,99.2894 749.118,96.6227 751,93.5C 752.003,97.2805 754.503,99.6138 758.5,100.5C 759.167,98.8333 759.833,97.1667 760.5,95.5C 762.452,97.7412 764.618,99.7412 767,101.5C 768.174,99.3291 770.007,98.3291 772.5,98.5C 772.5,97.5 772.5,96.5 772.5,95.5C 774.833,95.5 777.167,95.5 779.5,95.5C 779.167,92.5 780.5,91.1667 783.5,91.5C 783.5,92.5 783.5,93.5 783.5,94.5C 785.881,95.4196 788.214,95.4196 790.5,94.5C 791.904,89.5995 792.571,84.5995 792.5,79.5 Z"/></g>
<g><path style="opacity:1" fill="#010a13" d="M 572.5,140.5 C 572.509,137.245 570.842,134.578 567.5,132.5C 566.808,133.025 566.308,133.692 566,134.5C 565.667,132.833 565.333,131.167 565,129.5C 564.667,129.833 564.333,130.167 564,130.5C 563.333,129.167 562.333,128.167 561,127.5C 560.601,127.728 560.435,128.062 560.5,128.5C 559.609,127.89 558.609,127.557 557.5,127.5C 559.081,125.858 559.747,123.858 559.5,121.5C 557.409,121.682 555.409,121.348 553.5,120.5C 550.067,122.721 546.401,123.387 542.5,122.5C 540.041,123.791 538.541,125.791 538,128.5C 534.678,127.963 532.845,129.63 532.5,133.5C 533.519,136.86 534.519,140.193 535.5,143.5C 532.671,143.675 531.004,142.342 530.5,139.5C 529.936,135.356 529.103,131.356 528,127.5C 528.21,131.414 527.71,135.414 526.5,139.5C 521.5,139.5 516.5,139.5 511.5,139.5C 511.5,140.833 511.5,142.167 511.5,143.5C 503.5,143.5 495.5,143.5 487.5,143.5C 486.833,146.167 486.167,148.833 485.5,151.5C 475.529,152.996 465.529,154.33 455.5,155.5C 455.657,154.127 455.49,152.793 455,151.5C 452.667,154.167 450.333,156.833 448,159.5C 447.51,158.207 447.343,156.873 447.5,155.5C 428.821,155.167 410.155,155.5 391.5,156.5C 390.441,157.696 389.107,158.363 387.5,158.5C 383.85,156.254 379.85,155.254 375.5,155.5C 375.5,156.833 375.5,158.167 375.5,159.5C 359.093,158.857 342.927,159.524 327,161.5C 326.5,161 326,160.5 325.5,160C 317.833,159.333 310.167,159.333 302.5,160C 300.451,162.593 298.285,165.093 296,167.5C 295.505,165.527 295.338,163.527 295.5,161.5C 284.906,163.049 274.24,163.716 263.5,163.5C 263.5,164.833 263.5,166.167 263.5,167.5C 256.73,166.809 250.063,165.475 243.5,163.5C 236.888,164.827 230.222,165.827 223.5,166.5C 220.255,167.123 217.755,168.79 216,171.5C 215.535,170.069 214.701,168.903 213.5,168C 208.798,167.172 204.131,167.338 199.5,168.5C 197.995,169.842 197.328,171.508 197.5,173.5C 196.167,173.5 194.833,173.5 193.5,173.5C 192.424,170.266 191.757,166.932 191.5,163.5C 188.833,163.5 186.167,163.5 183.5,163.5C 183.649,162.448 183.483,161.448 183,160.5C 182.086,162.664 180.919,164.664 179.5,166.5C 178.081,164.664 176.914,162.664 176,160.5C 173.313,161.713 170.48,162.38 167.5,162.5C 167.5,163.5 167.5,164.5 167.5,165.5C 173.982,167.121 173.648,167.621 166.5,167C 164.5,164.667 162.5,162.333 160.5,160C 152.147,159.832 143.813,159.332 135.5,158.5C 133.042,157.876 131.376,156.376 130.5,154C 129.552,153.517 128.552,153.351 127.5,153.5C 128.568,156.982 128.401,160.315 127,163.5C 124.451,162.41 123.617,160.743 124.5,158.5C 123.5,155.833 122.5,155.833 121.5,158.5C 115.537,159.496 109.537,159.829 103.5,159.5C 103.664,162.187 103.497,164.854 103,167.5C 100.667,164.833 98.3333,162.167 96,159.5C 88.1918,162.749 80.0252,164.082 71.5,163.5C 71.6567,164.873 71.49,166.207 71,167.5C 68.6667,164.833 66.3333,162.167 64,159.5C 63.5172,160.448 63.3505,161.448 63.5,162.5C 59.476,162.497 55.476,162.164 51.5,161.5C 49.6161,161.716 47.9494,162.383 46.5,163.5C 42.2697,159.946 37.2697,158.613 31.5,159.5C 31.5,162.833 31.5,166.167 31.5,169.5C 28.9752,168.36 26.3085,167.693 23.5,167.5C 23.719,166.325 23.3857,165.325 22.5,164.5C 19.4968,163.334 16.8302,161.667 14.5,159.5C 12.6068,154.713 10.4402,150.047 8,145.5C 7.50085,150.155 7.33418,154.821 7.5,159.5C 6.5585,163.145 5.89183,166.978 5.5,171C 6.76268,174.538 7.42935,178.204 7.5,182C 6.43197,190.679 5.09864,199.179 3.5,207.5C 3.5,180.833 3.5,154.167 3.5,127.5C 3.74304,119.44 5.24304,111.44 8,103.5C 9.0391,102.29 10.2058,101.29 11.5,100.5C 11.5,103.5 11.5,106.5 11.5,109.5C 13.5695,109.551 15.4029,108.885 17,107.5C 19.0197,108.032 19.853,109.365 19.5,111.5C 20.8333,111.5 22.1667,111.5 23.5,111.5C 23.5,113.5 23.5,115.5 23.5,117.5C 34.2,118.671 44.8666,120.171 55.5,122C 66.1615,122.5 76.8281,122.667 87.5,122.5C 87.5,123.5 87.5,124.5 87.5,125.5C 95.5996,125.139 103.6,124.139 111.5,122.5C 111.351,123.552 111.517,124.552 112,125.5C 114.382,123.741 116.548,121.741 118.5,119.5C 119.251,120.376 119.751,121.376 120,122.5C 122.616,121.347 125.282,120.347 128,119.5C 129.85,126.626 132.017,126.96 134.5,120.5C 143.833,119.167 153.167,119.167 162.5,120.5C 164.628,125.063 167.628,125.73 171.5,122.5C 182.771,124.817 194.105,126.817 205.5,128.5C 203.571,130.06 202.238,132.06 201.5,134.5C 202.689,135.429 204.022,135.762 205.5,135.5C 205.238,134.022 205.571,132.689 206.5,131.5C 207.945,134.733 209.612,137.733 211.5,140.5C 212.086,140.291 212.586,139.957 213,139.5C 213.173,135.459 213.673,131.459 214.5,127.5C 215.949,128.617 217.616,129.284 219.5,129.5C 222.47,128.574 225.47,127.908 228.5,127.5C 228.756,129.937 229.423,132.271 230.5,134.5C 234.795,135.661 239.129,135.828 243.5,135C 242.692,133.294 241.359,132.461 239.5,132.5C 239.5,131.5 239.5,130.5 239.5,129.5C 236.753,129.813 234.086,129.48 231.5,128.5C 246.488,124.289 261.488,123.956 276.5,127.5C 276.5,128.5 276.5,129.5 276.5,130.5C 280.151,130.162 281.817,131.828 281.5,135.5C 282.833,135.5 284.167,135.5 285.5,135.5C 286.479,128.878 287.479,128.878 288.5,135.5C 289.149,131.389 290.483,127.556 292.5,124C 296.001,124.947 299.667,125.447 303.5,125.5C 303.5,124.5 303.5,123.5 303.5,122.5C 314.167,122.5 324.833,122.5 335.5,122.5C 335.351,123.552 335.517,124.552 336,125.5C 338.382,123.741 340.548,121.741 342.5,119.5C 343.386,120.325 343.719,121.325 343.5,122.5C 350.468,122.441 357.301,121.441 364,119.5C 365.5,119.833 367,120.167 368.5,120.5C 370.5,127.167 372.5,127.167 374.5,120.5C 394.158,119.334 413.825,119.167 433.5,120C 434.781,122.403 436.614,124.237 439,125.5C 441.777,122.709 443.277,123.375 443.5,127.5C 445.5,127.5 447.5,127.5 449.5,127.5C 450.5,124.833 451.5,122.167 452.5,119.5C 453.5,119.5 454.5,119.5 455.5,119.5C 455.5,118.5 455.5,117.5 455.5,116.5C 460.833,115.833 466.167,115.167 471.5,114.5C 471.5,113.5 471.5,112.5 471.5,111.5C 474.187,111.664 476.854,111.497 479.5,111C 482.113,108.338 485.113,107.505 488.5,108.5C 493.369,106.561 498.202,104.561 503,102.5C 503.561,103.022 504.228,103.355 505,103.5C 506.78,101.654 508.78,99.987 511,98.5C 511.494,100.134 511.66,101.801 511.5,103.5C 513.103,103.688 514.437,103.188 515.5,102C 524.827,101.5 534.161,101.334 543.5,101.5C 543.5,102.833 543.5,104.167 543.5,105.5C 548.833,105.5 554.167,105.5 559.5,105.5C 559.5,107.5 559.5,109.5 559.5,111.5C 564.511,111.666 569.511,111.499 574.5,111C 575.435,108.619 575.768,106.119 575.5,103.5C 576.5,103.5 577.5,103.5 578.5,103.5C 578.223,106.448 578.556,109.281 579.5,112C 577.275,114.228 574.775,116.061 572,117.5C 571.667,119.167 571.333,120.833 571,122.5C 570.667,121.5 570.333,120.5 570,119.5C 569.859,125.729 571.359,131.562 574.5,137C 574.022,138.303 573.355,139.469 572.5,140.5 Z"/></g>
<g><path style="opacity:1" fill="#000d16" d="M 535.5,143.5 C 537.466,144.255 537.8,145.421 536.5,147C 538.333,148.167 539.833,149.667 541,151.5C 541.414,151.043 541.914,150.709 542.5,150.5C 543.063,152.709 544.396,154.209 546.5,155C 545.66,156.666 546.16,156.833 548,155.5C 548.617,156.449 548.451,157.282 547.5,158C 548.76,159.113 549.927,159.28 551,158.5C 552.154,159.743 553.488,160.743 555,161.5C 554.328,163.86 555.161,165.86 557.5,167.5C 557.333,167.833 557.167,168.167 557,168.5C 555.601,167.773 554.101,167.273 552.5,167C 548.476,164.325 544.476,161.658 540.5,159C 538.935,157.129 538.269,155.296 538.5,153.5C 537.274,155.278 535.607,156.278 533.5,156.5C 531.454,154.721 529.287,153.054 527,151.5C 525.957,153.833 525.124,156.166 524.5,158.5C 525.581,151.856 524.247,150.689 520.5,155C 522.797,156.16 522.464,157.16 519.5,158C 520.904,165.788 521.57,173.288 521.5,180.5C 520.206,179.71 519.039,178.71 518,177.5C 516.064,179.808 515.231,182.475 515.5,185.5C 509.05,183.733 502.383,183.066 495.5,183.5C 495.5,180.833 495.5,178.167 495.5,175.5C 484.833,175.5 474.167,175.5 463.5,175.5C 463.5,178.167 463.5,180.833 463.5,183.5C 446.5,183.5 429.5,183.5 412.5,183.5C 411.833,187.5 411.167,187.5 410.5,183.5C 406.833,183.5 403.167,183.5 399.5,183.5C 399.5,184.833 399.5,186.167 399.5,187.5C 388.833,187.5 378.167,187.5 367.5,187.5C 367.5,184.833 367.5,182.167 367.5,179.5C 378.167,179.5 388.833,179.5 399.5,179.5C 399.5,178.167 399.5,176.833 399.5,175.5C 378.497,175.333 357.497,175.5 336.5,176C 335.549,179.057 335.216,182.223 335.5,185.5C 330.167,185.5 324.833,185.5 319.5,185.5C 319.784,182.223 319.451,179.057 318.5,176C 313.511,175.501 308.511,175.334 303.5,175.5C 303.5,180.833 303.5,186.167 303.5,191.5C 276.833,191.5 250.167,191.5 223.5,191.5C 223.5,186.833 223.5,182.167 223.5,177.5C 228.875,177.828 234.208,177.495 239.5,176.5C 229.517,175.668 219.517,175.168 209.5,175C 209,174.5 208.5,174 208,173.5C 207.502,176.817 207.335,180.15 207.5,183.5C 191.397,183.827 175.397,182.827 159.5,180.5C 159.5,182.833 159.5,185.167 159.5,187.5C 143.5,187.5 127.5,187.5 111.5,187.5C 111.5,184.833 111.5,182.167 111.5,179.5C 127.503,179.667 143.503,179.5 159.5,179C 140.836,178.5 122.17,178.333 103.5,178.5C 103.5,179.5 103.5,180.5 103.5,181.5C 96.8761,182.386 90.2094,183.052 83.5,183.5C 76.7906,183.052 70.1239,182.386 63.5,181.5C 63.5,184.833 63.5,188.167 63.5,191.5C 47.5,191.5 31.5,191.5 15.5,191.5C 14.1738,186.62 13.3405,181.62 13,176.5C 11.3333,175.833 9.66667,175.167 8,174.5C 7.50074,169.511 7.33407,164.511 7.5,159.5C 7.33418,154.821 7.50085,150.155 8,145.5C 10.4402,150.047 12.6068,154.713 14.5,159.5C 16.8302,161.667 19.4968,163.334 22.5,164.5C 23.3857,165.325 23.719,166.325 23.5,167.5C 26.3085,167.693 28.9752,168.36 31.5,169.5C 31.5,166.167 31.5,162.833 31.5,159.5C 37.2697,158.613 42.2697,159.946 46.5,163.5C 47.9494,162.383 49.6161,161.716 51.5,161.5C 55.476,162.164 59.476,162.497 63.5,162.5C 63.3505,161.448 63.5172,160.448 64,159.5C 66.3333,162.167 68.6667,164.833 71,167.5C 71.49,166.207 71.6567,164.873 71.5,163.5C 80.0252,164.082 88.1918,162.749 96,159.5C 98.3333,162.167 100.667,164.833 103,167.5C 103.497,164.854 103.664,162.187 103.5,159.5C 109.537,159.829 115.537,159.496 121.5,158.5C 122.5,155.833 123.5,155.833 124.5,158.5C 123.617,160.743 124.451,162.41 127,163.5C 128.401,160.315 128.568,156.982 127.5,153.5C 128.552,153.351 129.552,153.517 130.5,154C 131.376,156.376 133.042,157.876 135.5,158.5C 143.813,159.332 152.147,159.832 160.5,160C 162.5,162.333 164.5,164.667 166.5,167C 173.648,167.621 173.982,167.121 167.5,165.5C 167.5,164.5 167.5,163.5 167.5,162.5C 170.48,162.38 173.313,161.713 176,160.5C 176.914,162.664 178.081,164.664 179.5,166.5C 180.919,164.664 182.086,162.664 183,160.5C 183.483,161.448 183.649,162.448 183.5,163.5C 186.167,163.5 188.833,163.5 191.5,163.5C 191.757,166.932 192.424,170.266 193.5,173.5C 194.833,173.5 196.167,173.5 197.5,173.5C 197.328,171.508 197.995,169.842 199.5,168.5C 204.131,167.338 208.798,167.172 213.5,168C 214.701,168.903 215.535,170.069 216,171.5C 217.755,168.79 220.255,167.123 223.5,166.5C 230.222,165.827 236.888,164.827 243.5,163.5C 250.063,165.475 256.73,166.809 263.5,167.5C 263.5,166.167 263.5,164.833 263.5,163.5C 274.24,163.716 284.906,163.049 295.5,161.5C 295.338,163.527 295.505,165.527 296,167.5C 298.285,165.093 300.451,162.593 302.5,160C 310.167,159.333 317.833,159.333 325.5,160C 326,160.5 326.5,161 327,161.5C 342.927,159.524 359.093,158.857 375.5,159.5C 375.5,158.167 375.5,156.833 375.5,155.5C 379.85,155.254 383.85,156.254 387.5,158.5C 389.107,158.363 390.441,157.696 391.5,156.5C 410.155,155.5 428.821,155.167 447.5,155.5C 447.343,156.873 447.51,158.207 448,159.5C 450.333,156.833 452.667,154.167 455,151.5C 455.49,152.793 455.657,154.127 455.5,155.5C 465.529,154.33 475.529,152.996 485.5,151.5C 486.167,148.833 486.833,146.167 487.5,143.5C 495.5,143.5 503.5,143.5 511.5,143.5C 511.5,142.167 511.5,140.833 511.5,139.5C 516.5,139.5 521.5,139.5 526.5,139.5C 527.71,135.414 528.21,131.414 528,127.5C 529.103,131.356 529.936,135.356 530.5,139.5C 531.004,142.342 532.671,143.675 535.5,143.5 Z"/></g>
<g><path style="opacity:1" fill="#030e16" d="M 797.5,-0.5 C 797.833,-0.5 798.167,-0.5 798.5,-0.5C 798.833,96.0014 798.499,192.335 797.5,288.5C 797.306,242.453 795.806,196.453 793,150.5C 791.924,153.36 791.091,156.36 790.5,159.5C 789.003,191.479 787.836,191.479 787,159.5C 785.938,156.971 785.105,154.304 784.5,151.5C 783.808,156.048 783.141,160.548 782.5,165C 777.511,165.499 772.511,165.666 767.5,165.5C 767.5,163.5 767.5,161.5 767.5,159.5C 762.167,159.5 756.833,159.5 751.5,159.5C 752.387,165.27 751.054,170.27 747.5,174.5C 738.19,175.498 728.857,175.832 719.5,175.5C 719.5,176.833 719.5,178.167 719.5,179.5C 714.055,179.569 708.722,180.236 703.5,181.5C 703.5,179.5 703.5,177.5 703.5,175.5C 701.473,175.338 699.473,175.505 697.5,176C 696.874,176.75 696.374,177.584 696,178.5C 695.889,193.5 694.889,208.5 693,223.5C 691.503,231.659 689.503,239.659 687,247.5C 686.617,246.944 686.117,246.611 685.5,246.5C 689.654,220.538 691.654,194.371 691.5,168C 691.167,162.833 690.833,157.667 690.5,152.5C 680.62,148.059 670.953,143.392 661.5,138.5C 665.126,136.931 667.459,137.597 668.5,140.5C 669.167,140.167 669.833,139.833 670.5,139.5C 676.672,141.75 682.339,144.75 687.5,148.5C 690.615,149.636 693.282,148.802 695.5,146C 691.81,145.576 691.643,144.742 695,143.5C 697.765,143.625 700.598,144.292 703.5,145.5C 703.215,143.712 703.548,142.045 704.5,140.5C 706.5,139.833 707.833,138.5 708.5,136.5C 710.423,135.692 712.423,135.192 714.5,135C 715.167,133 716.5,131.667 718.5,131C 722.594,130.233 726.594,130.566 730.5,132C 731.337,133.011 731.67,134.178 731.5,135.5C 732.833,135.5 734.167,135.5 735.5,135.5C 735.5,136.833 735.5,138.167 735.5,139.5C 738.5,139.167 739.833,140.5 739.5,143.5C 740.833,143.5 742.167,143.5 743.5,143.5C 744.167,138.833 746.833,136.167 751.5,135.5C 751.5,138.167 751.5,140.833 751.5,143.5C 762.167,144.167 772.833,144.833 783.5,145.5C 783.5,146.833 783.5,148.167 783.5,149.5C 785.492,149.328 787.158,149.995 788.5,151.5C 790.445,146.495 790.779,141.329 789.5,136C 789.382,132.973 789.882,130.139 791,127.5C 792.046,128.772 792.546,130.272 792.5,132C 791.715,136.803 791.382,141.637 791.5,146.5C 792.5,146.5 793.5,146.5 794.5,146.5C 794.335,149.518 794.502,152.518 795,155.5C 795.49,154.207 795.657,152.873 795.5,151.5C 796.33,161.992 796.83,172.659 797,183.5C 797.165,159.473 797.332,135.473 797.5,111.5C 797.5,74.1667 797.5,36.8333 797.5,-0.5 Z"/></g>
<g><path style="opacity:1" fill="#e7e8e7" d="M 661.5,138.5 C 670.953,143.392 680.62,148.059 690.5,152.5C 690.833,157.667 691.167,162.833 691.5,168C 691.654,194.371 689.654,220.538 685.5,246.5C 682.252,262.39 673.918,274.724 660.5,283.5C 657.551,285.839 655.551,285.506 654.5,282.5C 655.461,280.562 654.795,279.062 652.5,278C 652.833,277.667 653.167,277.333 653.5,277C 649.051,271.937 645.217,266.437 642,260.5C 641.329,261.252 640.496,261.586 639.5,261.5C 635.5,255.5 631.5,249.5 627.5,243.5C 628.562,242.425 628.562,241.425 627.5,240.5C 625.677,239.253 623.677,238.586 621.5,238.5C 616.31,234.149 613.477,228.482 613,221.5C 612.333,216.167 612.333,210.833 613,205.5C 613.197,203.139 614.364,201.472 616.5,200.5C 618.062,206.764 620.228,212.764 623,218.5C 628.37,222.351 634.037,225.684 640,228.5C 642.933,234.968 645.267,241.634 647,248.5C 648.884,250.576 651.051,250.91 653.5,249.5C 651.444,246.555 649.777,243.388 648.5,240C 649.032,237.98 650.365,237.147 652.5,237.5C 656.175,241.096 660.342,244.096 665,246.5C 668.634,244.033 671.801,241.033 674.5,237.5C 668.607,224.047 662.44,210.713 656,197.5C 654.71,193.27 654.21,188.936 654.5,184.5C 656.983,182.689 656.983,180.855 654.5,179C 650.5,175.667 646.5,172.333 642.5,169C 638.11,165.828 633.444,163.328 628.5,161.5C 627.375,160.652 627.375,159.652 628.5,158.5C 634.717,153.686 636.884,147.353 635,139.5C 634.167,138.5 633.333,137.5 632.5,136.5C 626.483,142.351 620.317,148.017 614,153.5C 610.069,141.698 610.903,130.198 616.5,119C 617.5,118.333 618.5,118.333 619.5,119C 633.402,125.785 647.402,132.285 661.5,138.5 Z"/></g>
<g><path style="opacity:1" fill="#01111c" d="M 797.5,288.5 C 797.5,298.833 797.5,309.167 797.5,319.5C 796.527,317.052 796.194,314.385 796.5,311.5C 796.5,303.167 796.5,294.833 796.5,286.5C 796.667,273.496 796.5,260.496 796,247.5C 794.805,233.869 794.138,220.202 794,206.5C 792.706,203.668 792.539,200.835 793.5,198C 793.182,195.625 791.849,194.458 789.5,194.5C 789.2,199.099 789.533,203.599 790.5,208C 788.697,210.103 786.364,210.936 783.5,210.5C 783.5,211.5 783.5,212.5 783.5,213.5C 778.167,213.5 772.833,213.5 767.5,213.5C 767.5,217.5 767.5,221.5 767.5,225.5C 753.237,223.809 738.903,223.142 724.5,223.5C 723.833,226.167 723.167,228.833 722.5,231.5C 716.5,231.5 710.5,231.5 704.5,231.5C 703.642,205.023 702.308,205.023 700.5,231.5C 699.167,240.833 697.833,240.833 696.5,231.5C 695.158,230.098 694.324,230.431 694,232.5C 693.667,231.833 693.333,231.167 693,230.5C 691.634,234.116 691.8,237.45 693.5,240.5C 692.376,241.914 691.376,243.414 690.5,245C 691.624,245.249 692.624,245.749 693.5,246.5C 691.388,247.518 689.721,249.018 688.5,251C 686.522,258.793 682.855,265.626 677.5,271.5C 677.624,272.107 677.957,272.44 678.5,272.5C 673.813,275.651 669.313,279.651 665,284.5C 663.644,283.62 662.144,283.286 660.5,283.5C 673.918,274.724 682.252,262.39 685.5,246.5C 686.117,246.611 686.617,246.944 687,247.5C 689.503,239.659 691.503,231.659 693,223.5C 694.889,208.5 695.889,193.5 696,178.5C 696.374,177.584 696.874,176.75 697.5,176C 699.473,175.505 701.473,175.338 703.5,175.5C 703.5,177.5 703.5,179.5 703.5,181.5C 708.722,180.236 714.055,179.569 719.5,179.5C 719.5,178.167 719.5,176.833 719.5,175.5C 728.857,175.832 738.19,175.498 747.5,174.5C 751.054,170.27 752.387,165.27 751.5,159.5C 756.833,159.5 762.167,159.5 767.5,159.5C 767.5,161.5 767.5,163.5 767.5,165.5C 772.511,165.666 777.511,165.499 782.5,165C 783.141,160.548 783.808,156.048 784.5,151.5C 785.105,154.304 785.938,156.971 787,159.5C 787.836,191.479 789.003,191.479 790.5,159.5C 791.091,156.36 791.924,153.36 793,150.5C 795.806,196.453 797.306,242.453 797.5,288.5 Z"/></g>
<g><path style="opacity:1" fill="#01101b" d="M 7.5,159.5 C 7.33407,164.511 7.50074,169.511 8,174.5C 9.66667,175.167 11.3333,175.833 13,176.5C 13.3405,181.62 14.1738,186.62 15.5,191.5C 31.5,191.5 47.5,191.5 63.5,191.5C 63.5,188.167 63.5,184.833 63.5,181.5C 70.1239,182.386 76.7906,183.052 83.5,183.5C 90.2094,183.052 96.8761,182.386 103.5,181.5C 103.5,180.5 103.5,179.5 103.5,178.5C 122.17,178.333 140.836,178.5 159.5,179C 143.503,179.5 127.503,179.667 111.5,179.5C 111.5,182.167 111.5,184.833 111.5,187.5C 127.5,187.5 143.5,187.5 159.5,187.5C 159.5,185.167 159.5,182.833 159.5,180.5C 175.397,182.827 191.397,183.827 207.5,183.5C 207.335,180.15 207.502,176.817 208,173.5C 208.5,174 209,174.5 209.5,175C 219.517,175.168 229.517,175.668 239.5,176.5C 234.208,177.495 228.875,177.828 223.5,177.5C 223.5,182.167 223.5,186.833 223.5,191.5C 250.167,191.5 276.833,191.5 303.5,191.5C 303.5,186.167 303.5,180.833 303.5,175.5C 308.511,175.334 313.511,175.501 318.5,176C 319.451,179.057 319.784,182.223 319.5,185.5C 324.833,185.5 330.167,185.5 335.5,185.5C 335.216,182.223 335.549,179.057 336.5,176C 357.497,175.5 378.497,175.333 399.5,175.5C 399.5,176.833 399.5,178.167 399.5,179.5C 388.833,179.5 378.167,179.5 367.5,179.5C 367.5,182.167 367.5,184.833 367.5,187.5C 378.167,187.5 388.833,187.5 399.5,187.5C 399.5,186.167 399.5,184.833 399.5,183.5C 403.167,183.5 406.833,183.5 410.5,183.5C 411.167,187.5 411.833,187.5 412.5,183.5C 429.5,183.5 446.5,183.5 463.5,183.5C 463.5,180.833 463.5,178.167 463.5,175.5C 474.167,175.5 484.833,175.5 495.5,175.5C 495.5,178.167 495.5,180.833 495.5,183.5C 502.383,183.066 509.05,183.733 515.5,185.5C 515.231,182.475 516.064,179.808 518,177.5C 519.039,178.71 520.206,179.71 521.5,180.5C 522.962,182.269 524.629,183.936 526.5,185.5C 527.086,185.291 527.586,184.957 528,184.5C 533.402,186.553 538.902,188.886 544.5,191.5C 544.167,191.833 543.833,192.167 543.5,192.5C 535.738,189.846 527.738,188.846 519.5,189.5C 520.883,190.696 521.55,192.53 521.5,195C 518.329,197.931 516.329,201.598 515.5,206C 516.911,208.978 517.911,212.145 518.5,215.5C 521.034,217.628 523.868,219.294 527,220.5C 532.534,219.6 538.368,219.433 544.5,220C 543.299,220.903 542.465,222.069 542,223.5C 540,223.5 538,223.5 536,223.5C 532.39,226.394 528.556,228.228 524.5,229C 522.647,231.04 521.314,233.373 520.5,236C 522.986,236.705 522.986,237.538 520.5,238.5C 520.167,238.5 519.833,238.5 519.5,238.5C 519.261,236.533 519.594,234.699 520.5,233C 520.091,230.053 519.091,227.386 517.5,225C 518.646,224.355 519.646,223.522 520.5,222.5C 521.451,223.326 522.451,223.492 523.5,223C 519.875,221.194 516.041,220.028 512,219.5C 511.517,220.448 511.351,221.448 511.5,222.5C 504.177,223.285 496.844,223.452 489.5,223C 489,222.5 488.5,222 488,221.5C 487.505,223.473 487.338,225.473 487.5,227.5C 479.568,228.824 471.568,229.491 463.5,229.5C 463.5,230.833 463.5,232.167 463.5,233.5C 458.263,234.797 452.93,235.464 447.5,235.5C 447.5,236.833 447.5,238.167 447.5,239.5C 431.5,239.5 415.5,239.5 399.5,239.5C 399.5,238.167 399.5,236.833 399.5,235.5C 394.167,235.5 388.833,235.5 383.5,235.5C 383.5,236.833 383.5,238.167 383.5,239.5C 367.465,239.502 351.465,240.169 335.5,241.5C 335.5,242.833 335.5,244.167 335.5,245.5C 324.448,244.857 313.781,245.524 303.5,247.5C 303.5,250.167 303.5,252.833 303.5,255.5C 282.265,254.638 260.931,254.638 239.5,255.5C 239.5,254.167 239.5,252.833 239.5,251.5C 234.167,251.5 228.833,251.5 223.5,251.5C 223.5,252.833 223.5,254.167 223.5,255.5C 212.833,255.5 202.167,255.5 191.5,255.5C 191.5,252.833 191.5,250.167 191.5,247.5C 184.302,246.935 176.968,247.102 169.5,248C 169,248.5 168.5,249 168,249.5C 149.402,247.52 130.569,246.854 111.5,247.5C 111.5,250.167 111.5,252.833 111.5,255.5C 106.167,255.5 100.833,255.5 95.5,255.5C 95.5,252.833 95.5,250.167 95.5,247.5C 79.5,247.5 63.5,247.5 47.5,247.5C 47.5,250.167 47.5,252.833 47.5,255.5C 38.1429,255.832 28.8096,255.498 19.5,254.5C 18.8333,253.167 17.8333,252.167 16.5,251.5C 14.1842,218.258 13.1842,218.258 13.5,251.5C 12.1667,251.5 10.8333,251.5 9.5,251.5C 9.5,247.5 9.5,243.5 9.5,239.5C 8.5,239.5 7.5,239.5 6.5,239.5C 4.81463,273.806 4.14797,308.14 4.5,342.5C 4.5,345.5 4.5,348.5 4.5,351.5C 4.16667,351.5 3.83333,351.5 3.5,351.5C 3.5,303.5 3.5,255.5 3.5,207.5C 5.09864,199.179 6.43197,190.679 7.5,182C 7.42935,178.204 6.76268,174.538 5.5,171C 5.89183,166.978 6.5585,163.145 7.5,159.5 Z"/></g>
<g><path style="opacity:1" fill="#01101b" d="M 628.5,158.5 C 627.5,158.5 626.5,158.5 625.5,158.5C 625.241,162.362 626.741,164.362 630,164.5C 631.318,167.605 633.152,170.438 635.5,173C 635.167,173.333 634.833,173.667 634.5,174C 637.825,173.775 640.158,175.108 641.5,178C 641.043,178.414 640.709,178.914 640.5,179.5C 642.046,180.684 643.713,181.684 645.5,182.5C 645.137,183.183 644.804,183.85 644.5,184.5C 643.143,183.315 641.643,182.315 640,181.5C 637.98,182.032 637.147,183.365 637.5,185.5C 635.217,185.608 633.217,186.441 631.5,188C 632.816,189.978 632.316,191.478 630,192.5C 629.282,191.549 628.449,191.383 627.5,192C 629.548,193.681 631.715,195.181 634,196.5C 636.194,193.983 638.194,194.316 640,197.5C 640.333,197.167 640.667,196.833 641,196.5C 644.32,198.175 644.82,200.175 642.5,202.5C 643.145,203.646 643.978,204.646 645,205.5C 645.497,203.19 645.663,200.857 645.5,198.5C 648.598,198.587 648.932,198.087 646.5,197C 648.684,196.558 650.684,197.058 652.5,198.5C 651.833,199.5 651.167,200.5 650.5,201.5C 655.669,207.509 659.336,214.342 661.5,222C 659.811,223.358 658.478,225.025 657.5,227C 657.833,227.333 658.167,227.667 658.5,228C 656.697,229.262 655.364,230.929 654.5,233C 654.833,233.333 655.167,233.667 655.5,234C 654.377,235.044 653.044,235.71 651.5,236C 652.056,236.383 652.389,236.883 652.5,237.5C 650.365,237.147 649.032,237.98 648.5,240C 649.777,243.388 651.444,246.555 653.5,249.5C 651.051,250.91 648.884,250.576 647,248.5C 645.267,241.634 642.933,234.968 640,228.5C 634.037,225.684 628.37,222.351 623,218.5C 620.228,212.764 618.062,206.764 616.5,200.5C 614.364,201.472 613.197,203.139 613,205.5C 612.333,210.833 612.333,216.167 613,221.5C 613.477,228.482 616.31,234.149 621.5,238.5C 622.891,240.89 624.891,242.557 627.5,243.5C 631.5,249.5 635.5,255.5 639.5,261.5C 644.144,268.802 649.144,275.802 654.5,282.5C 655.551,285.506 657.551,285.839 660.5,283.5C 659.888,286.697 657.888,288.031 654.5,287.5C 654.649,286.448 654.483,285.448 654,284.5C 650.99,281.777 647.99,279.11 645,276.5C 638.722,268.916 633.056,260.916 628,252.5C 626.5,251.333 625,250.167 623.5,249C 623.833,248.667 624.167,248.333 624.5,248C 623.299,247.097 622.465,245.931 622,244.5C 621.667,245.5 621.333,246.5 621,247.5C 620.619,242.954 618.119,240.62 613.5,240.5C 612.133,236.544 610.3,232.877 608,229.5C 592.404,231.311 576.57,232.144 560.5,232C 559.565,234.381 559.232,236.881 559.5,239.5C 557.549,239.773 556.049,239.107 555,237.5C 554.115,240.726 552.781,243.726 551,246.5C 548.727,248.044 545.894,249.378 542.5,250.5C 543.893,247.983 545.893,246.316 548.5,245.5C 548.5,244.5 548.5,243.5 548.5,242.5C 548.5,241.833 548.833,241.5 549.5,241.5C 550.489,236.025 550.822,230.358 550.5,224.5C 549.952,221.916 548.285,220.916 545.5,221.5C 545.281,220.325 545.614,219.325 546.5,218.5C 551.059,216.39 555.392,214.057 559.5,211.5C 558.833,210.167 558.167,208.833 557.5,207.5C 557.623,204.956 557.623,202.456 557.5,200C 559.962,198.15 559.462,196.983 556,196.5C 555.544,195.256 556.044,194.423 557.5,194C 555.405,193.444 555.238,192.944 557,192.5C 557.945,192.905 558.612,193.572 559,194.5C 567.208,189.545 573.541,182.211 578,172.5C 578.667,171.167 579.333,171.167 580,172.5C 584.029,169.064 586.363,165.064 587,160.5C 588.667,161.833 590.333,163.167 592,164.5C 595.102,161.199 598.935,159.366 603.5,159C 604.191,157.933 604.691,156.766 605,155.5C 608.251,156.099 611.751,156.265 615.5,156C 618.829,153.396 622.163,150.896 625.5,148.5C 627.107,148.637 628.441,149.304 629.5,150.5C 628.975,151.192 628.308,151.692 627.5,152C 628.833,152.667 630.167,153.333 631.5,154C 629.137,154.589 628.137,156.089 628.5,158.5 Z"/></g>
<g><path style="opacity:1" fill="#babdbd" d="M 628.5,161.5 C 633.444,163.328 638.11,165.828 642.5,169C 646.5,172.333 650.5,175.667 654.5,179C 656.983,180.855 656.983,182.689 654.5,184.5C 654.489,182.983 653.823,181.816 652.5,181C 644.247,174.721 636.247,168.221 628.5,161.5 Z"/></g>
<g><path style="opacity:1" fill="#e7eaea" d="M 644.5,184.5 C 653.308,191.719 651.975,194.386 640.5,192.5C 639.298,190.22 638.298,187.886 637.5,185.5C 637.147,183.365 637.98,182.032 640,181.5C 641.643,182.315 643.143,183.315 644.5,184.5 Z"/></g>
<g><path style="opacity:1" fill="#050c13" d="M 594.5,119.5 C 589.185,120.662 583.851,121.828 578.5,123C 577.106,123.956 576.439,125.289 576.5,127C 579.707,138.908 584.873,149.742 592,159.5C 595.442,157.862 598.942,156.362 602.5,155C 603.357,154.311 604.023,153.478 604.5,152.5C 600.595,141.833 598.262,130.833 597.5,119.5C 599.173,120.343 600.34,121.676 601,123.5C 601.633,129.698 603.633,135.364 607,140.5C 608.035,138.109 608.202,135.776 607.5,133.5C 608.529,133.704 609.529,133.204 610.5,132C 609.803,129.291 609.47,126.624 609.5,124C 610.743,121.884 611.909,119.718 613,117.5C 613.804,116.196 614.971,115.529 616.5,115.5C 629.325,119.251 641.325,124.584 652.5,131.5C 655.718,131.416 658.718,132.583 661.5,135C 660.829,135.986 660.829,137.153 661.5,138.5C 647.402,132.285 633.402,125.785 619.5,119C 618.5,118.333 617.5,118.333 616.5,119C 610.903,130.198 610.069,141.698 614,153.5C 620.317,148.017 626.483,142.351 632.5,136.5C 633.333,137.5 634.167,138.5 635,139.5C 636.884,147.353 634.717,153.686 628.5,158.5C 628.137,156.089 629.137,154.589 631.5,154C 630.167,153.333 628.833,152.667 627.5,152C 628.308,151.692 628.975,151.192 629.5,150.5C 628.441,149.304 627.107,148.637 625.5,148.5C 622.163,150.896 618.829,153.396 615.5,156C 611.751,156.265 608.251,156.099 605,155.5C 604.691,156.766 604.191,157.933 603.5,159C 598.935,159.366 595.102,161.199 592,164.5C 590.333,163.167 588.667,161.833 587,160.5C 586.363,165.064 584.029,169.064 580,172.5C 579.333,171.167 578.667,171.167 578,172.5C 573.541,182.211 567.208,189.545 559,194.5C 558.612,193.572 557.945,192.905 557,192.5C 555.238,192.944 555.405,193.444 557.5,194C 556.044,194.423 555.544,195.256 556,196.5C 559.462,196.983 559.962,198.15 557.5,200C 557.623,202.456 557.623,204.956 557.5,207.5C 558.167,208.833 558.833,210.167 559.5,211.5C 555.392,214.057 551.059,216.39 546.5,218.5C 545.614,219.325 545.281,220.325 545.5,221.5C 548.285,220.916 549.952,221.916 550.5,224.5C 549.508,224.328 548.842,224.662 548.5,225.5C 540.674,227.498 533.007,229.998 525.5,233C 524.941,233.725 524.608,234.558 524.5,235.5C 525.667,240.167 526.833,244.833 528,249.5C 528.745,250.99 529.912,251.99 531.5,252.5C 537.321,249.423 542.988,246.09 548.5,242.5C 548.5,243.5 548.5,244.5 548.5,245.5C 545.893,246.316 543.893,247.983 542.5,250.5C 542.095,251.55 541.429,251.55 540.5,250.5C 537.88,255.144 533.88,257.144 528.5,256.5C 527.827,251.984 525.66,248.317 522,245.5C 521.71,243.08 521.21,240.746 520.5,238.5C 522.986,237.538 522.986,236.705 520.5,236C 521.314,233.373 522.647,231.04 524.5,229C 528.556,228.228 532.39,226.394 536,223.5C 538,223.5 540,223.5 542,223.5C 542.465,222.069 543.299,220.903 544.5,220C 538.368,219.433 532.534,219.6 527,220.5C 523.868,219.294 521.034,217.628 518.5,215.5C 517.911,212.145 516.911,208.978 515.5,206C 516.329,201.598 518.329,197.931 521.5,195C 521.55,192.53 520.883,190.696 519.5,189.5C 527.738,188.846 535.738,189.846 543.5,192.5C 543.833,192.167 544.167,191.833 544.5,191.5C 538.902,188.886 533.402,186.553 528,184.5C 527.586,184.957 527.086,185.291 526.5,185.5C 524.629,183.936 522.962,182.269 521.5,180.5C 521.57,173.288 520.904,165.788 519.5,158C 522.464,157.16 522.797,156.16 520.5,155C 524.247,150.689 525.581,151.856 524.5,158.5C 524.5,162.5 524.5,166.5 524.5,170.5C 523.186,172.895 523.186,175.395 524.5,178C 535.403,182.868 546.57,187.035 558,190.5C 559.301,190.361 560.134,189.695 560.5,188.5C 562.69,185.312 565.024,182.145 567.5,179C 555.448,172.422 544.114,164.922 533.5,156.5C 535.607,156.278 537.274,155.278 538.5,153.5C 538.269,155.296 538.935,157.129 540.5,159C 544.476,161.658 548.476,164.325 552.5,167C 554.101,167.273 555.601,167.773 557,168.5C 557.167,168.167 557.333,167.833 557.5,167.5C 555.161,165.86 554.328,163.86 555,161.5C 553.488,160.743 552.154,159.743 551,158.5C 549.927,159.28 548.76,159.113 547.5,158C 548.451,157.282 548.617,156.449 548,155.5C 546.16,156.833 545.66,156.666 546.5,155C 544.396,154.209 543.063,152.709 542.5,150.5C 541.914,150.709 541.414,151.043 541,151.5C 539.833,149.667 538.333,148.167 536.5,147C 537.8,145.421 537.466,144.255 535.5,143.5C 534.519,140.193 533.519,136.86 532.5,133.5C 532.845,129.63 534.678,127.963 538,128.5C 538.541,125.791 540.041,123.791 542.5,122.5C 546.401,123.387 550.067,122.721 553.5,120.5C 555.409,121.348 557.409,121.682 559.5,121.5C 559.747,123.858 559.081,125.858 557.5,127.5C 551.548,128.958 545.548,130.291 539.5,131.5C 537.688,131.952 536.688,133.118 536.5,135C 546.339,148.969 558.006,161.302 571.5,172C 572.5,172.667 573.5,172.667 574.5,172C 577.375,168.956 580.375,166.123 583.5,163.5C 574.57,152.632 566.903,140.965 560.5,128.5C 560.435,128.062 560.601,127.728 561,127.5C 562.333,128.167 563.333,129.167 564,130.5C 564.333,130.167 564.667,129.833 565,129.5C 565.333,131.167 565.667,132.833 566,134.5C 566.308,133.692 566.808,133.025 567.5,132.5C 570.842,134.578 572.509,137.245 572.5,140.5C 574.89,140.315 575.89,138.982 575.5,136.5C 573.426,130.917 573.093,125.25 574.5,119.5C 579.604,119.201 584.437,117.868 589,115.5C 590,116.167 591,116.833 592,117.5C 594.634,116.308 595.468,116.974 594.5,119.5 Z"/></g>
<g><path style="opacity:1" fill="#7e807f" d="M 524.5,170.5 C 524.162,173.325 525.162,175.492 527.5,177C 538.219,181.739 549.219,185.573 560.5,188.5C 560.134,189.695 559.301,190.361 558,190.5C 546.57,187.035 535.403,182.868 524.5,178C 523.186,175.395 523.186,172.895 524.5,170.5 Z"/></g>
<g><path style="opacity:1" fill="#ececec" d="M 533.5,156.5 C 544.114,164.922 555.448,172.422 567.5,179C 565.024,182.145 562.69,185.312 560.5,188.5C 549.219,185.573 538.219,181.739 527.5,177C 525.162,175.492 524.162,173.325 524.5,170.5C 524.5,166.5 524.5,162.5 524.5,158.5C 525.124,156.166 525.957,153.833 527,151.5C 529.287,153.054 531.454,154.721 533.5,156.5 Z"/></g>
<g><path style="opacity:1" fill="#e9e9e9" d="M 557.5,127.5 C 558.609,127.557 559.609,127.89 560.5,128.5C 566.903,140.965 574.57,152.632 583.5,163.5C 580.375,166.123 577.375,168.956 574.5,172C 573.5,172.667 572.5,172.667 571.5,172C 558.006,161.302 546.339,148.969 536.5,135C 536.688,133.118 537.688,131.952 539.5,131.5C 545.548,130.291 551.548,128.958 557.5,127.5 Z"/></g>
<g><path style="opacity:1" fill="#eaeaea" d="M 594.5,119.5 C 595.5,119.5 596.5,119.5 597.5,119.5C 598.262,130.833 600.595,141.833 604.5,152.5C 604.023,153.478 603.357,154.311 602.5,155C 598.942,156.362 595.442,157.862 592,159.5C 584.873,149.742 579.707,138.908 576.5,127C 576.439,125.289 577.106,123.956 578.5,123C 583.851,121.828 589.185,120.662 594.5,119.5 Z"/></g>
<g><path style="opacity:1" fill="#edeeed" d="M 527.5,195.5 C 536.813,196.664 546.146,197.664 555.5,198.5C 554.494,202.858 553.327,207.191 552,211.5C 550.89,213.037 549.39,213.703 547.5,213.5C 539.5,213.5 531.5,213.5 523.5,213.5C 523.173,208.456 523.506,203.456 524.5,198.5C 525.141,197.007 526.141,196.007 527.5,195.5 Z"/></g>
<g><path style="opacity:1" fill="#b0b4b6" d="M 527.5,195.5 C 526.141,196.007 525.141,197.007 524.5,198.5C 523.506,203.456 523.173,208.456 523.5,213.5C 531.5,213.5 539.5,213.5 547.5,213.5C 545.708,214.309 543.708,214.809 541.5,215C 535.175,215.5 528.842,215.666 522.5,215.5C 522.334,209.158 522.5,202.825 523,196.5C 524.27,194.422 525.77,194.088 527.5,195.5 Z"/></g>
<g><path style="opacity:1" fill="#001522" d="M 796.5,286.5 C 795.833,276.326 795.167,265.992 794.5,255.5C 793.667,263.5 792.833,271.5 792,279.5C 788.407,270.45 787.574,261.117 789.5,251.5C 789,247.5 788.5,243.5 788,239.5C 786.837,241.285 786.17,243.285 786,245.5C 785.833,259.179 785.333,272.846 784.5,286.5C 783.593,281.523 782.927,276.523 782.5,271.5C 780.167,271.5 777.833,271.5 775.5,271.5C 775.5,274.167 775.5,276.833 775.5,279.5C 759.64,276.874 743.64,275.54 727.5,275.5C 727.5,276.833 727.5,278.167 727.5,279.5C 726.5,279.5 725.5,279.5 724.5,279.5C 724.5,282.833 722.833,284.5 719.5,284.5C 719.5,283.5 719.5,282.5 719.5,281.5C 714.167,281.5 708.833,281.5 703.5,281.5C 703.5,280.167 703.5,278.833 703.5,277.5C 697.95,277.237 692.45,277.57 687,278.5C 684.58,276.539 682.58,274.206 681,271.5C 680.329,272.252 679.496,272.586 678.5,272.5C 677.957,272.44 677.624,272.107 677.5,271.5C 682.855,265.626 686.522,258.793 688.5,251C 689.721,249.018 691.388,247.518 693.5,246.5C 692.624,245.749 691.624,245.249 690.5,245C 691.376,243.414 692.376,241.914 693.5,240.5C 691.8,237.45 691.634,234.116 693,230.5C 693.333,231.167 693.667,231.833 694,232.5C 694.324,230.431 695.158,230.098 696.5,231.5C 697.833,240.833 699.167,240.833 700.5,231.5C 702.308,205.023 703.642,205.023 704.5,231.5C 710.5,231.5 716.5,231.5 722.5,231.5C 723.167,228.833 723.833,226.167 724.5,223.5C 738.903,223.142 753.237,223.809 767.5,225.5C 767.5,221.5 767.5,217.5 767.5,213.5C 772.833,213.5 778.167,213.5 783.5,213.5C 783.5,212.5 783.5,211.5 783.5,210.5C 786.364,210.936 788.697,210.103 790.5,208C 789.533,203.599 789.2,199.099 789.5,194.5C 791.849,194.458 793.182,195.625 793.5,198C 792.539,200.835 792.706,203.668 794,206.5C 794.138,220.202 794.805,233.869 796,247.5C 796.5,260.496 796.667,273.496 796.5,286.5 Z"/></g>
<g><path style="opacity:1" fill="#0b1216" d="M 628.5,158.5 C 627.375,159.652 627.375,160.652 628.5,161.5C 636.247,168.221 644.247,174.721 652.5,181C 653.823,181.816 654.489,182.983 654.5,184.5C 654.21,188.936 654.71,193.27 656,197.5C 662.44,210.713 668.607,224.047 674.5,237.5C 671.801,241.033 668.634,244.033 665,246.5C 660.342,244.096 656.175,241.096 652.5,237.5C 652.389,236.883 652.056,236.383 651.5,236C 653.044,235.71 654.377,235.044 655.5,234C 655.167,233.667 654.833,233.333 654.5,233C 655.364,230.929 656.697,229.262 658.5,228C 658.167,227.667 657.833,227.333 657.5,227C 658.478,225.025 659.811,223.358 661.5,222C 659.336,214.342 655.669,207.509 650.5,201.5C 651.167,200.5 651.833,199.5 652.5,198.5C 650.684,197.058 648.684,196.558 646.5,197C 648.932,198.087 648.598,198.587 645.5,198.5C 645.663,200.857 645.497,203.19 645,205.5C 643.978,204.646 643.145,203.646 642.5,202.5C 644.82,200.175 644.32,198.175 641,196.5C 640.667,196.833 640.333,197.167 640,197.5C 638.194,194.316 636.194,193.983 634,196.5C 631.715,195.181 629.548,193.681 627.5,192C 628.449,191.383 629.282,191.549 630,192.5C 632.316,191.478 632.816,189.978 631.5,188C 633.217,186.441 635.217,185.608 637.5,185.5C 638.298,187.886 639.298,190.22 640.5,192.5C 651.975,194.386 653.308,191.719 644.5,184.5C 644.804,183.85 645.137,183.183 645.5,182.5C 643.713,181.684 642.046,180.684 640.5,179.5C 640.709,178.914 641.043,178.414 641.5,178C 640.158,175.108 637.825,173.775 634.5,174C 634.833,173.667 635.167,173.333 635.5,173C 633.152,170.438 631.318,167.605 630,164.5C 626.741,164.362 625.241,162.362 625.5,158.5C 626.5,158.5 627.5,158.5 628.5,158.5 Z"/></g>
<g><path style="opacity:1" fill="#00121f" d="M 519.5,238.5 C 519.565,238.938 519.399,239.272 519,239.5C 518.077,238.241 517.243,236.908 516.5,235.5C 515.996,238.342 514.329,239.675 511.5,239.5C 511.5,238.5 511.5,237.5 511.5,236.5C 508.833,235.833 506.167,235.167 503.5,234.5C 503.5,233.5 503.5,232.5 503.5,231.5C 500.327,233.125 496.994,234.625 493.5,236C 492.643,236.689 491.977,237.522 491.5,238.5C 482.19,239.498 472.857,239.832 463.5,239.5C 463.202,244.465 460.535,247.132 455.5,247.5C 455.5,248.5 455.5,249.5 455.5,250.5C 452.833,250.5 450.167,250.5 447.5,250.5C 447.5,248.167 447.5,245.833 447.5,243.5C 442.167,243.5 436.833,243.5 431.5,243.5C 431.5,244.833 431.5,246.167 431.5,247.5C 415.5,247.5 399.5,247.5 383.5,247.5C 383.5,246.167 383.5,244.833 383.5,243.5C 378.167,243.5 372.833,243.5 367.5,243.5C 367.5,246.167 367.5,248.833 367.5,251.5C 362.167,251.5 356.833,251.5 351.5,251.5C 351.5,250.167 351.5,248.833 351.5,247.5C 335.5,247.5 319.5,247.5 303.5,247.5C 313.781,245.524 324.448,244.857 335.5,245.5C 335.5,244.167 335.5,242.833 335.5,241.5C 351.465,240.169 367.465,239.502 383.5,239.5C 383.5,238.167 383.5,236.833 383.5,235.5C 388.833,235.5 394.167,235.5 399.5,235.5C 399.5,236.833 399.5,238.167 399.5,239.5C 415.5,239.5 431.5,239.5 447.5,239.5C 447.5,238.167 447.5,236.833 447.5,235.5C 452.93,235.464 458.263,234.797 463.5,233.5C 463.5,232.167 463.5,230.833 463.5,229.5C 471.568,229.491 479.568,228.824 487.5,227.5C 487.338,225.473 487.505,223.473 488,221.5C 488.5,222 489,222.5 489.5,223C 496.844,223.452 504.177,223.285 511.5,222.5C 511.351,221.448 511.517,220.448 512,219.5C 516.041,220.028 519.875,221.194 523.5,223C 522.451,223.492 521.451,223.326 520.5,222.5C 519.646,223.522 518.646,224.355 517.5,225C 519.091,227.386 520.091,230.053 520.5,233C 519.594,234.699 519.261,236.533 519.5,238.5 Z"/></g>
<g><path style="opacity:1" fill="#22201f" d="M 798.5,-0.5 C 798.833,-0.5 799.167,-0.5 799.5,-0.5C 799.5,135.833 799.5,272.167 799.5,408.5C 532.833,408.5 266.167,408.5 -0.5,408.5C -0.5,346.833 -0.5,285.167 -0.5,223.5C 0.833333,284.167 2.16667,344.833 3.5,405.5C 265.833,405.5 528.167,405.5 790.5,405.5C 791.5,405.5 792.5,405.5 793.5,405.5C 795.948,405.99 797.615,405.157 798.5,403C 797.513,375.199 797.179,347.365 797.5,319.5C 797.5,309.167 797.5,298.833 797.5,288.5C 798.499,192.335 798.833,96.0014 798.5,-0.5 Z"/></g>
<g><path style="opacity:1" fill="#081e2c" d="M 3.5,351.5 C 3.83333,351.5 4.16667,351.5 4.5,351.5C 4.16537,369.548 4.49871,386.215 5.5,401.5C 5.83333,401.5 6.16667,401.5 6.5,401.5C 8.55981,402.811 10.7265,402.811 13,401.5C 14.2547,402.211 15.4214,403.044 16.5,404C 42.8333,404.167 69.1667,404.333 95.5,404.5C 326.203,404.656 556.87,404.323 787.5,403.5C 788.739,403.942 789.739,404.609 790.5,405.5C 528.167,405.5 265.833,405.5 3.5,405.5C 3.5,387.5 3.5,369.5 3.5,351.5 Z"/></g>
<g><path style="opacity:1" fill="#002033" d="M 793.5,405.5 C 792.5,405.5 791.5,405.5 790.5,405.5C 789.739,404.609 788.739,403.942 787.5,403.5C 556.87,404.323 326.203,404.656 95.5,404.5C 69.1667,404.333 42.8333,404.167 16.5,404C 15.4214,403.044 14.2547,402.211 13,401.5C 10.7265,402.811 8.55981,402.811 6.5,401.5C 6.78449,398.746 7.45115,396.08 8.5,393.5C 9.23043,395.341 9.89709,397.175 10.5,399C 16.9593,400.968 23.626,402.135 30.5,402.5C 91.9618,401.74 153.462,401.073 215,400.5C 276.497,401.569 337.997,401.736 399.5,401C 399.167,400.667 398.833,400.333 398.5,400C 404.157,399.501 409.824,399.334 415.5,399.5C 415.5,397.5 415.5,395.5 415.5,393.5C 420.833,393.5 426.167,393.5 431.5,393.5C 431.5,392.167 431.5,390.833 431.5,389.5C 463.483,388.167 495.483,387.501 527.5,387.5C 527.5,386.167 527.5,384.833 527.5,383.5C 559.5,383.5 591.5,383.5 623.5,383.5C 623.5,381.5 623.5,379.5 623.5,377.5C 634.167,377.5 644.833,377.5 655.5,377.5C 655.5,376.167 655.5,374.833 655.5,373.5C 676.833,373.5 698.167,373.5 719.5,373.5C 719.5,371.5 719.5,369.5 719.5,367.5C 735.5,367.5 751.5,367.5 767.5,367.5C 767.5,361.5 767.5,355.5 767.5,349.5C 772.833,349.5 778.167,349.5 783.5,349.5C 783.691,346.011 784.024,345.844 784.5,349C 783.278,354.835 783.278,360.669 784.5,366.5C 785.702,356.428 787.202,346.428 789,336.5C 789.965,344.325 790.799,352.158 791.5,360C 791.439,363.373 791.106,366.707 790.5,370C 790.93,371.434 791.764,372.601 793,373.5C 794.818,366.29 795.818,358.957 796,351.5C 796.667,368.833 796.667,386.167 796,403.5C 795.005,404.066 794.172,404.733 793.5,405.5 Z"/></g>
<g><path style="opacity:1" fill="#001c2e" d="M 796.5,311.5 C 796.194,314.385 796.527,317.052 797.5,319.5C 797.179,347.365 797.513,375.199 798.5,403C 797.615,405.157 795.948,405.99 793.5,405.5C 794.172,404.733 795.005,404.066 796,403.5C 796.667,386.167 796.667,368.833 796,351.5C 795.818,358.957 794.818,366.29 793,373.5C 791.764,372.601 790.93,371.434 790.5,370C 791.106,366.707 791.439,363.373 791.5,360C 790.799,352.158 789.965,344.325 789,336.5C 787.202,346.428 785.702,356.428 784.5,366.5C 783.278,360.669 783.278,354.835 784.5,349C 784.024,345.844 783.691,346.011 783.5,349.5C 778.167,349.5 772.833,349.5 767.5,349.5C 767.5,355.5 767.5,361.5 767.5,367.5C 751.5,367.5 735.5,367.5 719.5,367.5C 719.5,369.5 719.5,371.5 719.5,373.5C 698.167,373.5 676.833,373.5 655.5,373.5C 655.5,374.833 655.5,376.167 655.5,377.5C 644.833,377.5 634.167,377.5 623.5,377.5C 623.5,379.5 623.5,381.5 623.5,383.5C 591.5,383.5 559.5,383.5 527.5,383.5C 527.5,384.833 527.5,386.167 527.5,387.5C 495.483,387.501 463.483,388.167 431.5,389.5C 431.5,390.833 431.5,392.167 431.5,393.5C 426.167,393.5 420.833,393.5 415.5,393.5C 415.5,395.5 415.5,397.5 415.5,399.5C 409.824,399.334 404.157,399.501 398.5,400C 398.833,400.333 399.167,400.667 399.5,401C 337.997,401.736 276.497,401.569 215,400.5C 153.462,401.073 91.9618,401.74 30.5,402.5C 23.626,402.135 16.9593,400.968 10.5,399C 9.89709,397.175 9.23043,395.341 8.5,393.5C 7.45115,396.08 6.78449,398.746 6.5,401.5C 6.16667,401.5 5.83333,401.5 5.5,401.5C 5.7192,385.111 5.7192,368.778 5.5,352.5C 7.70349,349.523 8.03682,346.356 6.5,343C 8.79223,340.976 9.4589,341.31 8.5,344C 9.16667,346.333 9.83333,348.667 10.5,351C 17.4921,351.5 24.4921,351.666 31.5,351.5C 31.5,353.5 31.5,355.5 31.5,357.5C 68.8333,357.5 106.167,357.5 143.5,357.5C 143.5,355.5 143.5,353.5 143.5,351.5C 154.167,351.5 164.833,351.5 175.5,351.5C 175.5,353.5 175.5,355.5 175.5,357.5C 194.174,357.834 212.841,358.5 231.5,359.5C 271.483,357.834 311.483,357.167 351.5,357.5C 351.5,355.5 351.5,353.5 351.5,351.5C 388.777,351.805 426.11,351.805 463.5,351.5C 463.5,347.833 463.5,344.167 463.5,340.5C 467.524,340.497 471.524,340.164 475.5,339.5C 479.442,340.493 483.442,341.16 487.5,341.5C 511.505,338.499 535.505,335.499 559.5,332.5C 559.5,333.5 559.5,334.5 559.5,335.5C 570.167,335.5 580.833,335.5 591.5,335.5C 591.5,333.5 591.5,331.5 591.5,329.5C 602.187,329.832 612.854,329.499 623.5,328.5C 629.391,326.755 635.391,325.588 641.5,325C 644.711,324.268 646.711,322.434 647.5,319.5C 658.22,319.282 668.886,319.949 679.5,321.5C 692.783,319.837 706.116,319.17 719.5,319.5C 719.5,321.5 719.5,323.5 719.5,325.5C 735.5,325.5 751.5,325.5 767.5,325.5C 767.108,328.722 767.608,331.722 769,334.5C 769.167,332 769.333,329.5 769.5,327C 769.391,323.965 768.724,321.131 767.5,318.5C 772.734,316.857 778.067,315.857 783.5,315.5C 783.335,311.818 783.501,308.152 784,304.5C 784.261,308.706 784.761,312.873 785.5,317C 785.833,317.5 786.167,318 786.5,318.5C 787.251,317.624 787.751,316.624 788,315.5C 788.333,306.167 788.667,296.833 789,287.5C 789.098,302.924 790.098,318.258 792,333.5C 792.308,334.308 792.808,334.975 793.5,335.5C 793.833,332.833 794.167,330.167 794.5,327.5C 794.166,322.162 793.832,316.828 793.5,311.5C 794.5,311.5 795.5,311.5 796.5,311.5 Z"/></g>
<g><path style="opacity:1" fill="#001928" d="M 796.5,286.5 C 796.5,294.833 796.5,303.167 796.5,311.5C 795.5,311.5 794.5,311.5 793.5,311.5C 793.832,316.828 794.166,322.162 794.5,327.5C 794.167,330.167 793.833,332.833 793.5,335.5C 792.808,334.975 792.308,334.308 792,333.5C 790.098,318.258 789.098,302.924 789,287.5C 788.667,296.833 788.333,306.167 788,315.5C 787.751,316.624 787.251,317.624 786.5,318.5C 786.167,318 785.833,317.5 785.5,317C 784.761,312.873 784.261,308.706 784,304.5C 783.501,308.152 783.335,311.818 783.5,315.5C 778.067,315.857 772.734,316.857 767.5,318.5C 768.724,321.131 769.391,323.965 769.5,327C 769.333,329.5 769.167,332 769,334.5C 767.608,331.722 767.108,328.722 767.5,325.5C 751.5,325.5 735.5,325.5 719.5,325.5C 719.5,323.5 719.5,321.5 719.5,319.5C 706.116,319.17 692.783,319.837 679.5,321.5C 668.886,319.949 658.22,319.282 647.5,319.5C 646.711,322.434 644.711,324.268 641.5,325C 635.391,325.588 629.391,326.755 623.5,328.5C 612.854,329.499 602.187,329.832 591.5,329.5C 591.5,331.5 591.5,333.5 591.5,335.5C 580.833,335.5 570.167,335.5 559.5,335.5C 559.5,334.5 559.5,333.5 559.5,332.5C 535.505,335.499 511.505,338.499 487.5,341.5C 483.442,341.16 479.442,340.493 475.5,339.5C 471.524,340.164 467.524,340.497 463.5,340.5C 463.5,344.167 463.5,347.833 463.5,351.5C 426.11,351.805 388.777,351.805 351.5,351.5C 351.5,353.5 351.5,355.5 351.5,357.5C 311.483,357.167 271.483,357.834 231.5,359.5C 212.841,358.5 194.174,357.834 175.5,357.5C 175.5,355.5 175.5,353.5 175.5,351.5C 164.833,351.5 154.167,351.5 143.5,351.5C 143.5,353.5 143.5,355.5 143.5,357.5C 106.167,357.5 68.8333,357.5 31.5,357.5C 31.5,355.5 31.5,353.5 31.5,351.5C 24.4921,351.666 17.4921,351.5 10.5,351C 9.83333,348.667 9.16667,346.333 8.5,344C 9.4589,341.31 8.79223,340.976 6.5,343C 8.03682,346.356 7.70349,349.523 5.5,352.5C 5.7192,368.778 5.7192,385.111 5.5,401.5C 4.49871,386.215 4.16537,369.548 4.5,351.5C 4.5,348.5 4.5,345.5 4.5,342.5C 5.32989,333.342 5.82989,324.009 6,314.5C 6.33333,315.167 6.66667,315.833 7,316.5C 7.33333,312.167 7.66667,307.833 8,303.5C 9.37473,305.937 9.87473,308.603 9.5,311.5C 11.5,311.5 13.5,311.5 15.5,311.5C 14.9644,314.698 15.631,317.365 17.5,319.5C 17.5,323.5 19.5,325.5 23.5,325.5C 23.5,326.833 23.5,328.167 23.5,329.5C 26.1569,329.838 28.4902,329.171 30.5,327.5C 40.0064,328.808 49.6731,329.474 59.5,329.5C 68.8333,329.167 78.1667,328.833 87.5,328.5C 97.9929,325.855 108.66,324.522 119.5,324.5C 131.496,325.667 143.496,325.667 155.5,324.5C 176.647,328.45 197.98,331.117 219.5,332.5C 239.437,330.764 259.437,329.931 279.5,330C 284.898,329.151 290.231,327.984 295.5,326.5C 346.214,324.83 396.881,322.164 447.5,318.5C 463.486,317.501 479.486,317.167 495.5,317.5C 495.5,316.5 495.5,315.5 495.5,314.5C 498.167,314.5 500.833,314.5 503.5,314.5C 503.5,313.5 503.5,312.5 503.5,311.5C 508.833,311.5 514.167,311.5 519.5,311.5C 519.5,308.833 519.5,306.167 519.5,303.5C 527.5,303.5 535.5,303.5 543.5,303.5C 543.334,298.489 543.501,293.489 544,288.5C 545.883,287.347 546.716,285.681 546.5,283.5C 547.379,285.23 548.712,286.563 550.5,287.5C 551.955,286.61 553.289,286.61 554.5,287.5C 555.665,286.509 556.832,285.509 558,284.5C 558.772,284.645 559.439,284.978 560,285.5C 559.923,286.738 560.089,287.738 560.5,288.5C 564.498,287.74 568.831,287.407 573.5,287.5C 573.173,282.456 573.506,277.456 574.5,272.5C 575.496,278.798 575.83,285.132 575.5,291.5C 580.814,292.159 586.147,292.826 591.5,293.5C 596.853,292.826 602.186,292.159 607.5,291.5C 607.5,290.167 607.5,288.833 607.5,287.5C 610.167,287.5 612.833,287.5 615.5,287.5C 615.5,286.5 615.5,285.5 615.5,284.5C 618.167,283.833 620.833,283.167 623.5,282.5C 623.5,280.833 623.5,279.167 623.5,277.5C 627.529,277.851 631.362,277.185 635,275.5C 636.61,277.489 638.443,277.822 640.5,276.5C 643.876,279.918 647.209,283.418 650.5,287C 651.793,287.49 653.127,287.657 654.5,287.5C 657.888,288.031 659.888,286.697 660.5,283.5C 662.144,283.286 663.644,283.62 665,284.5C 669.313,279.651 673.813,275.651 678.5,272.5C 679.496,272.586 680.329,272.252 681,271.5C 682.58,274.206 684.58,276.539 687,278.5C 692.45,277.57 697.95,277.237 703.5,277.5C 703.5,278.833 703.5,280.167 703.5,281.5C 708.833,281.5 714.167,281.5 719.5,281.5C 719.5,282.5 719.5,283.5 719.5,284.5C 722.833,284.5 724.5,282.833 724.5,279.5C 725.5,279.5 726.5,279.5 727.5,279.5C 727.5,278.167 727.5,276.833 727.5,275.5C 743.64,275.54 759.64,276.874 775.5,279.5C 775.5,276.833 775.5,274.167 775.5,271.5C 777.833,271.5 780.167,271.5 782.5,271.5C 782.927,276.523 783.593,281.523 784.5,286.5C 785.333,272.846 785.833,259.179 786,245.5C 786.17,243.285 786.837,241.285 788,239.5C 788.5,243.5 789,247.5 789.5,251.5C 787.574,261.117 788.407,270.45 792,279.5C 792.833,271.5 793.667,263.5 794.5,255.5C 795.167,265.992 795.833,276.326 796.5,286.5 Z"/></g>
<g><path style="opacity:1" fill="#011726" d="M 546.5,283.5 C 546.716,285.681 545.883,287.347 544,288.5C 543.501,293.489 543.334,298.489 543.5,303.5C 535.5,303.5 527.5,303.5 519.5,303.5C 519.5,306.167 519.5,308.833 519.5,311.5C 514.167,311.5 508.833,311.5 503.5,311.5C 503.5,312.5 503.5,313.5 503.5,314.5C 500.833,314.5 498.167,314.5 495.5,314.5C 495.5,315.5 495.5,316.5 495.5,317.5C 479.486,317.167 463.486,317.501 447.5,318.5C 396.881,322.164 346.214,324.83 295.5,326.5C 290.231,327.984 284.898,329.151 279.5,330C 259.437,329.931 239.437,330.764 219.5,332.5C 197.98,331.117 176.647,328.45 155.5,324.5C 143.496,325.667 131.496,325.667 119.5,324.5C 108.66,324.522 97.9929,325.855 87.5,328.5C 78.1667,328.833 68.8333,329.167 59.5,329.5C 49.6731,329.474 40.0064,328.808 30.5,327.5C 28.4902,329.171 26.1569,329.838 23.5,329.5C 23.5,328.167 23.5,326.833 23.5,325.5C 19.5,325.5 17.5,323.5 17.5,319.5C 19.5,319.5 21.5,319.5 23.5,319.5C 23.5,318.167 23.5,316.833 23.5,315.5C 42.1121,317.608 60.7787,317.942 79.5,316.5C 87.6153,315.819 95.6153,314.486 103.5,312.5C 126.167,311.167 148.833,311.167 171.5,312.5C 171.977,313.478 172.643,314.311 173.5,315C 179.609,315.588 185.609,316.755 191.5,318.5C 218.158,319.5 244.825,319.833 271.5,319.5C 271.5,318.167 271.5,316.833 271.5,315.5C 282.295,315.817 292.962,314.817 303.5,312.5C 362.167,310.5 420.833,308.5 479.5,306.5C 484.734,304.857 490.067,303.857 495.5,303.5C 495.5,301.5 495.5,299.5 495.5,297.5C 500.833,297.5 506.167,297.5 511.5,297.5C 511.5,296.167 511.5,294.833 511.5,293.5C 516.833,293.5 522.167,293.5 527.5,293.5C 527.18,290.102 527.513,286.768 528.5,283.5C 529.429,284.689 529.762,286.022 529.5,287.5C 531.604,287.799 533.604,287.466 535.5,286.5C 538.376,281.661 542.043,280.661 546.5,283.5 Z"/></g>
<g><path style="opacity:1" fill="#cacfd1" d="M 654.5,282.5 C 649.144,275.802 644.144,268.802 639.5,261.5C 640.496,261.586 641.329,261.252 642,260.5C 645.217,266.437 649.051,271.937 653.5,277C 653.167,277.333 652.833,277.667 652.5,278C 654.795,279.062 655.461,280.562 654.5,282.5 Z"/></g>
<g><path style="opacity:1" fill="#a2a8a9" d="M 621.5,238.5 C 623.677,238.586 625.677,239.253 627.5,240.5C 628.562,241.425 628.562,242.425 627.5,243.5C 624.891,242.557 622.891,240.89 621.5,238.5 Z"/></g>
<g><path style="opacity:1" fill="#eceef1" d="M 659.5,228.5 C 662.994,231.144 666.66,233.644 670.5,236C 667.318,237.739 663.984,237.905 660.5,236.5C 658.827,233.882 658.494,231.215 659.5,228.5 Z"/></g>
<g><path style="opacity:1" fill="#eeefee" d="M 548.5,225.5 C 549.488,230.64 549.821,235.974 549.5,241.5C 548.833,241.5 548.5,241.833 548.5,242.5C 542.988,246.09 537.321,249.423 531.5,252.5C 529.912,251.99 528.745,250.99 528,249.5C 526.833,244.833 525.667,240.167 524.5,235.5C 524.608,234.558 524.941,233.725 525.5,233C 533.007,229.998 540.674,227.498 548.5,225.5 Z"/></g>
<g><path style="opacity:1" fill="#011522" d="M 303.5,247.5 C 319.5,247.5 335.5,247.5 351.5,247.5C 351.5,248.833 351.5,250.167 351.5,251.5C 356.833,251.5 362.167,251.5 367.5,251.5C 367.5,248.833 367.5,246.167 367.5,243.5C 372.833,243.5 378.167,243.5 383.5,243.5C 383.5,244.833 383.5,246.167 383.5,247.5C 399.5,247.5 415.5,247.5 431.5,247.5C 431.5,246.167 431.5,244.833 431.5,243.5C 436.833,243.5 442.167,243.5 447.5,243.5C 447.5,245.833 447.5,248.167 447.5,250.5C 450.167,250.5 452.833,250.5 455.5,250.5C 455.5,249.5 455.5,248.5 455.5,247.5C 460.535,247.132 463.202,244.465 463.5,239.5C 472.857,239.832 482.19,239.498 491.5,238.5C 491.977,237.522 492.643,236.689 493.5,236C 496.994,234.625 500.327,233.125 503.5,231.5C 503.5,232.5 503.5,233.5 503.5,234.5C 506.167,235.167 508.833,235.833 511.5,236.5C 511.5,237.5 511.5,238.5 511.5,239.5C 514.329,239.675 515.996,238.342 516.5,235.5C 517.243,236.908 518.077,238.241 519,239.5C 519.399,239.272 519.565,238.938 519.5,238.5C 519.833,238.5 520.167,238.5 520.5,238.5C 521.21,240.746 521.71,243.08 522,245.5C 525.66,248.317 527.827,251.984 528.5,256.5C 533.88,257.144 537.88,255.144 540.5,250.5C 541.429,251.55 542.095,251.55 542.5,250.5C 545.894,249.378 548.727,248.044 551,246.5C 552.781,243.726 554.115,240.726 555,237.5C 556.049,239.107 557.549,239.773 559.5,239.5C 559.232,236.881 559.565,234.381 560.5,232C 576.57,232.144 592.404,231.311 608,229.5C 610.3,232.877 612.133,236.544 613.5,240.5C 618.119,240.62 620.619,242.954 621,247.5C 621.333,246.5 621.667,245.5 622,244.5C 622.465,245.931 623.299,247.097 624.5,248C 624.167,248.333 623.833,248.667 623.5,249C 625,250.167 626.5,251.333 628,252.5C 633.056,260.916 638.722,268.916 645,276.5C 647.99,279.11 650.99,281.777 654,284.5C 654.483,285.448 654.649,286.448 654.5,287.5C 653.127,287.657 651.793,287.49 650.5,287C 647.209,283.418 643.876,279.918 640.5,276.5C 638.443,277.822 636.61,277.489 635,275.5C 631.362,277.185 627.529,277.851 623.5,277.5C 623.5,279.167 623.5,280.833 623.5,282.5C 620.833,283.167 618.167,283.833 615.5,284.5C 615.5,285.5 615.5,286.5 615.5,287.5C 612.833,287.5 610.167,287.5 607.5,287.5C 607.5,288.833 607.5,290.167 607.5,291.5C 602.186,292.159 596.853,292.826 591.5,293.5C 586.147,292.826 580.814,292.159 575.5,291.5C 575.83,285.132 575.496,278.798 574.5,272.5C 573.506,277.456 573.173,282.456 573.5,287.5C 568.831,287.407 564.498,287.74 560.5,288.5C 560.089,287.738 559.923,286.738 560,285.5C 559.439,284.978 558.772,284.645 558,284.5C 556.832,285.509 555.665,286.509 554.5,287.5C 553.289,286.61 551.955,286.61 550.5,287.5C 548.712,286.563 547.379,285.23 546.5,283.5C 542.043,280.661 538.376,281.661 535.5,286.5C 533.604,287.466 531.604,287.799 529.5,287.5C 529.762,286.022 529.429,284.689 528.5,283.5C 527.513,286.768 527.18,290.102 527.5,293.5C 522.167,293.5 516.833,293.5 511.5,293.5C 511.5,294.833 511.5,296.167 511.5,297.5C 506.167,297.5 500.833,297.5 495.5,297.5C 495.5,299.5 495.5,301.5 495.5,303.5C 490.067,303.857 484.734,304.857 479.5,306.5C 420.833,308.5 362.167,310.5 303.5,312.5C 292.962,314.817 282.295,315.817 271.5,315.5C 271.5,316.833 271.5,318.167 271.5,319.5C 244.825,319.833 218.158,319.5 191.5,318.5C 185.609,316.755 179.609,315.588 173.5,315C 172.643,314.311 171.977,313.478 171.5,312.5C 148.833,311.167 126.167,311.167 103.5,312.5C 95.6153,314.486 87.6153,315.819 79.5,316.5C 60.7787,317.942 42.1121,317.608 23.5,315.5C 23.5,316.833 23.5,318.167 23.5,319.5C 21.5,319.5 19.5,319.5 17.5,319.5C 15.631,317.365 14.9644,314.698 15.5,311.5C 13.5,311.5 11.5,311.5 9.5,311.5C 9.87473,308.603 9.37473,305.937 8,303.5C 7.66667,307.833 7.33333,312.167 7,316.5C 6.66667,315.833 6.33333,315.167 6,314.5C 5.82989,324.009 5.32989,333.342 4.5,342.5C 4.14797,308.14 4.81463,273.806 6.5,239.5C 7.5,239.5 8.5,239.5 9.5,239.5C 9.5,243.5 9.5,247.5 9.5,251.5C 10.8333,251.5 12.1667,251.5 13.5,251.5C 13.1842,218.258 14.1842,218.258 16.5,251.5C 17.8333,252.167 18.8333,253.167 19.5,254.5C 28.8096,255.498 38.1429,255.832 47.5,255.5C 47.5,252.833 47.5,250.167 47.5,247.5C 63.5,247.5 79.5,247.5 95.5,247.5C 95.5,250.167 95.5,252.833 95.5,255.5C 100.833,255.5 106.167,255.5 111.5,255.5C 111.5,252.833 111.5,250.167 111.5,247.5C 130.569,246.854 149.402,247.52 168,249.5C 168.5,249 169,248.5 169.5,248C 176.968,247.102 184.302,246.935 191.5,247.5C 191.5,250.167 191.5,252.833 191.5,255.5C 202.167,255.5 212.833,255.5 223.5,255.5C 223.5,254.167 223.5,252.833 223.5,251.5C 228.833,251.5 234.167,251.5 239.5,251.5C 239.5,252.833 239.5,254.167 239.5,255.5C 260.931,254.638 282.265,254.638 303.5,255.5C 303.5,252.833 303.5,250.167 303.5,247.5 Z"/></g>
<g><path style="opacity:1" fill="#e2e5e6" d="M 550.5,258.5 C 553.361,265.083 555.695,272.083 557.5,279.5C 556.758,280.287 555.925,280.953 555,281.5C 549.577,278.081 544.744,273.915 540.5,269C 544.037,265.631 547.371,262.131 550.5,258.5 Z"/></g>
<g><path style="opacity:1" fill="#53565c" d="M 548.5,225.5 C 548.842,224.662 549.508,224.328 550.5,224.5C 550.822,230.358 550.489,236.025 549.5,241.5C 549.821,235.974 549.488,230.64 548.5,225.5 Z"/></g>
</svg>
