<?xml version="1.0" encoding="UTF-8" standalone="no"?>
<!DOCTYPE svg PUBLIC "-//W3C//DTD SVG 1.0//EN" "http://www.w3.org/TR/2001/REC-SVG-20010904/DTD/svg10.dtd">
<svg xmlns="http://www.w3.org/2000/svg" version="1.0" viewBox="0.00 0.00 464.00 332.00">
<path fill="#303030" d="
  M 193.13 76.90
  C 194.76 73.26 198.37 70.67 202.50 70.64
  Q 222.72 70.50 242.93 70.53
  Q 249.16 70.54 251.79 72.02
  C 256.34 74.57 257.10 78.52 257.09 83.82
  Q 257.08 109.92 257.12 136.00
  C 257.12 139.83 255.74 142.14 252.91 144.99
  Q 243.17 154.81 233.37 164.54
  Q 230.17 167.71 227.49 168.52
  Q 221.56 170.31 217.01 165.71
  Q 205.65 154.22 194.28 142.73
  C 192.78 141.21 192.19 138.03 192.18 135.62
  Q 192.18 109.68 192.19 83.74
  Q 192.19 79.00 193.13 76.90
  Z"
/>
<path fill="#303030" d="
  M 323.75 143.77
  C 326.88 143.77 330.72 147.17 331.96 149.81
  Q 332.94 151.87 332.97 156.35
  Q 333.12 174.84 333.10 193.35
  Q 333.10 200.35 331.81 202.97
  C 329.33 207.97 324.77 208.73 319.16 208.72
  Q 292.84 208.69 266.50 208.81
  C 264.10 208.82 261.13 207.05 259.24 205.15
  Q 249.62 195.49 239.91 185.94
  Q 235.96 182.07 235.15 179.31
  C 233.74 174.50 235.65 171.00 239.22 167.39
  Q 252.32 154.16 259.72 146.96
  Q 263.25 143.54 268.50 143.57
  Q 296.12 143.73 323.75 143.77
  Z"
/>
<path fill="#303030" d="
  M 116.40 155.76
  C 116.35 150.12 120.21 144.67 126.25 144.58
  Q 154.50 144.15 182.75 144.00
  C 184.91 143.99 187.49 145.16 189.24 146.81
  Q 200.04 157.00 210.48 167.56
  C 216.81 173.97 216.12 179.38 210.15 185.51
  Q 194.87 201.21 189.42 206.42
  Q 187.08 208.66 183.00 208.74
  Q 156.21 209.22 129.43 209.31
  Q 124.77 209.33 122.33 208.01
  Q 116.68 204.98 116.66 197.51
  Q 116.58 176.62 116.40 155.76
  Z"
/>
<path fill="#303030" d="
  M 199.50 284.07
  C 195.57 282.60 192.75 278.60 192.71 274.26
  Q 192.29 230.56 192.43 218.00
  C 192.45 215.60 193.92 213.26 195.75 211.37
  Q 205.19 201.63 214.69 191.93
  Q 218.84 187.70 221.71 186.83
  C 226.83 185.28 230.32 187.41 234.11 191.19
  Q 244.24 201.29 254.34 211.41
  C 256.48 213.56 257.25 216.19 257.28 219.43
  Q 257.56 245.20 257.58 270.98
  Q 257.58 276.73 256.14 279.26
  C 253.76 283.45 250.04 284.48 245.10 284.54
  Q 225.84 284.75 206.58 284.79
  Q 201.46 284.80 199.50 284.07
  Z"
/>
</svg>
