<?xml version="1.0" encoding="UTF-8" standalone="no"?>
<!DOCTYPE svg PUBLIC "-//W3C//DTD SVG 1.0//EN" "http://www.w3.org/TR/2001/REC-SVG-20010904/DTD/svg10.dtd">
<svg xmlns="http://www.w3.org/2000/svg" version="1.0" viewBox="0.00 0.00 1014.00 244.00">
<g stroke-width="2.00" fill="none" stroke-linecap="butt">
<path stroke="#f1f1f1" vector-effect="non-scaling-stroke" d="
  M 615.23 124.43
  Q 614.67 127.46 614.68 129.50
  Q 614.71 144.13 614.56 158.77
  Q 614.54 160.63 614.74 166.24
  C 614.97 172.43 614.19 178.31 615.20 184.52"
/>
<path stroke="#f1f1f1" vector-effect="non-scaling-stroke" d="
  M 552.30 166.95
  L 551.36 166.13
  Q 550.98 165.79 550.97 165.28
  L 550.49 120.19"
/>
</g>
<path fill="#e3e3e3" d="
  M 197.17 171.38
  Q 200.15 171.46 198.50 168.98
  Q 196.09 165.34 194.80 161.19
  A 0.75 0.74 8.2 0 1 195.93 160.35
  L 208.03 168.36
  A 2.04 2.04 0.0 0 0 210.64 168.06
  L 217.39 160.97
  A 2.55 2.55 0.0 0 0 217.86 158.15
  Q 210.96 143.00 204.27 127.37
  C 201.00 119.74 199.11 116.20 199.82 109.26
  C 200.03 107.25 199.08 106.81 197.40 105.47
  Q 186.81 97.03 176.50 88.54
  A 1.34 1.33 -49.0 0 1 176.37 86.61
  C 182.58 79.85 185.13 72.89 179.92 64.53
  Q 179.65 64.11 179.19 64.32
  Q 176.82 65.43 175.68 66.66
  Q 169.41 73.44 162.27 79.40
  A 0.57 0.57 0.0 0 1 161.35 79.08
  C 159.65 70.55 160.03 56.49 164.54 50.06
  Q 164.83 49.64 165.32 49.81
  C 174.67 53.15 183.79 58.01 192.82 62.17
  C 205.54 68.02 218.76 74.91 231.79 81.01
  A 1.68 1.67 -76.4 0 1 232.75 82.59
  Q 231.53 115.19 230.37 147.38
  C 230.24 150.98 228.87 156.00 228.19 160.55
  C 225.92 175.61 219.12 190.59 206.60 199.87
  Q 204.55 201.38 202.15 202.20
  Q 201.66 202.37 201.23 202.07
  Q 200.03 201.22 199.20 200.03
  Q 186.85 182.26 174.53 164.47
  C 172.79 161.95 170.49 161.05 168.37 159.14
  C 159.73 151.39 160.89 136.37 162.10 126.12
  A 0.40 0.40 0.0 0 1 162.75 125.85
  Q 163.00 126.05 163.12 126.52
  C 164.36 131.32 165.71 138.03 168.83 141.83
  C 173.71 147.79 183.68 148.23 186.71 155.28
  Q 189.40 161.56 190.96 168.55
  A 3.51 3.50 84.4 0 0 194.29 171.29
  L 197.17 171.38
  Z"
/>
<path fill="#e3e3e3" d="
  M 139.36 84.09
  C 134.73 75.27 130.41 66.14 127.85 56.62
  Q 127.24 54.33 129.32 53.70
  Q 135.43 51.86 141.80 51.37
  C 142.33 51.33 142.89 50.95 143.31 50.74
  Q 144.37 50.19 144.64 51.35
  L 151.37 80.33
  A 1.37 1.37 0.0 0 1 150.57 81.91
  L 142.70 85.28
  Q 140.48 86.22 139.36 84.09
  Z"
/>
<path fill="#e3e3e3" d="
  M 104.69 81.49
  Q 97.00 73.61 90.83 64.01
  Q 89.92 62.59 91.53 62.08
  Q 100.23 59.31 109.24 58.18
  A 1.71 1.70 71.9 0 1 110.94 59.05
  C 117.01 70.09 124.17 79.93 131.66 90.17
  A 1.12 1.12 0.0 0 1 131.43 91.72
  L 124.36 97.03
  A 1.68 1.68 0.0 0 1 122.41 97.08
  C 115.92 92.72 110.42 87.37 104.69 81.49
  Z"
/>
<path fill="#e3e3e3" d="
  M 110.04 113.68
  C 99.60 110.63 89.93 106.59 79.86 102.65
  A 1.78 1.77 -76.4 0 1 78.74 100.81
  L 80.71 82.00
  Q 80.85 80.61 81.93 81.50
  Q 93.17 90.79 106.57 98.66
  Q 110.82 101.16 115.66 104.24
  A 1.41 1.40 33.4 0 1 116.07 106.22
  L 111.24 113.25
  A 1.08 1.06 -64.2 0 1 110.04 113.68
  Z"
/>
<ellipse fill="#261832" cx="0.00" cy="0.00" transform="translate(914.69,101.10) rotate(0.9)" rx="5.94" ry="5.63"/>
<path fill="#261832" d="
  M 818.57 169.21
  C 806.27 174.57 790.22 171.21 782.04 160.45
  C 764.25 137.02 775.43 91.11 812.02 97.24
  C 834.73 101.05 841.83 126.76 836.87 146.69
  Q 834.28 157.09 826.18 164.75
  A 0.46 0.46 0.0 0 0 826.13 165.37
  L 835.13 177.32
  A 0.23 0.23 0.0 0 1 834.94 177.69
  L 825.93 177.58
  A 0.50 0.49 -17.5 0 1 825.56 177.39
  L 819.70 169.50
  Q 819.25 168.91 818.57 169.21
  Z
  M 812.61 147.97
  Q 812.89 147.97 813.06 148.19
  L 820.47 157.78
  Q 820.82 158.24 821.23 157.83
  C 835.41 143.80 832.84 108.67 809.91 105.11
  C 781.62 100.72 774.67 140.90 789.98 156.72
  C 796.17 163.12 804.93 164.90 813.43 162.37
  A 0.53 0.52 -27.0 0 0 813.70 161.55
  L 803.63 148.31
  A 0.22 0.22 0.0 0 1 803.80 147.96
  L 812.61 147.97
  Z"
/>
<path fill="#ffffff" d="
  M 728.48 163.28
  C 723.07 168.94 716.55 169.74 709.47 166.31
  Q 706.28 164.76 705.06 163.17
  Q 700.98 157.82 699.48 151.37
  C 698.69 147.98 698.97 144.35 699.09 140.76
  C 699.47 129.74 705.51 118.77 718.01 119.02
  C 721.70 119.10 724.89 121.23 728.04 123.16
  A 1.03 1.03 0.0 0 0 729.61 122.27
  L 729.53 100.87
  Q 729.52 99.51 730.88 99.51
  L 741.19 99.50
  Q 741.88 99.50 741.88 100.19
  L 741.85 165.73
  A 1.13 1.12 -1.3 0 1 740.77 166.85
  Q 736.56 167.02 732.00 167.10
  Q 730.25 167.13 729.94 165.27
  Q 729.79 164.32 729.06 163.32
  Q 728.79 162.96 728.48 163.28
  Z
  M 729.6514 137.2547
  A 7.93 7.93 0.0 0 0 721.7352 129.3109
  L 720.7352 129.3091
  A 7.93 7.93 0.0 0 0 712.7914 137.2253
  L 712.7686 150.2853
  A 7.93 7.93 0.0 0 0 720.6848 158.2291
  L 721.6848 158.2309
  A 7.93 7.93 0.0 0 0 729.6286 150.3147
  L 729.6514 137.2547
  Z"
/>
<ellipse fill="#ffffff" cx="0.00" cy="0.00" transform="translate(683.67,107.23) rotate(-3.4)" rx="7.34" ry="6.55"/>
<ellipse fill="#ffffff" cx="0.00" cy="0.00" transform="translate(556.35,107.31) rotate(-4.5)" rx="7.35" ry="6.52"/>
<path fill="#ffffff" d="
  M 298.92 167.15
  L 288.48 166.96
  A 1.09 1.09 0.0 0 1 287.41 165.87
  L 287.26 114.95
  A 1.09 1.09 0.0 0 0 286.18 113.86
  L 268.82 113.75
  A 1.09 1.09 0.0 0 1 267.74 112.66
  L 267.75 104.83
  A 1.09 1.09 0.0 0 1 268.84 103.74
  L 319.51 103.67
  A 1.09 1.09 0.0 0 1 320.60 104.79
  L 320.42 112.67
  A 1.09 1.09 0.0 0 1 319.33 113.74
  L 301.07 113.88
  A 1.09 1.09 0.0 0 0 299.99 114.97
  L 300.03 166.06
  A 1.09 1.09 0.0 0 1 298.92 167.15
  Z"
/>
<path fill="#ffffff" d="
  M 514.70 156.79
  L 541.26 156.76
  A 0.74 0.74 0.0 0 1 542.00 157.50
  L 542.00 165.44
  A 0.74 0.74 0.0 0 1 541.27 166.18
  L 501.49 166.92
  A 0.74 0.74 0.0 0 1 500.73 166.17
  L 500.85 104.49
  A 0.74 0.74 0.0 0 1 501.59 103.75
  L 513.23 103.71
  A 0.74 0.74 0.0 0 1 513.97 104.45
  L 513.96 156.05
  A 0.74 0.74 0.0 0 0 514.70 156.79
  Z"
/>
<path fill="#e3e3e3" d="
  M 185.14 108.44
  A 1.10 1.07 51.9 0 1 185.89 108.54
  Q 190.58 111.10 193.61 115.49
  A 0.87 0.87 0.0 0 1 193.03 116.84
  Q 184.62 118.13 183.90 109.51
  Q 183.84 108.73 185.14 108.44
  Z"
/>
<path fill="#261832" d="
  M 885.84 161.78
  Q 879.36 173.43 866.57 171.10
  C 856.50 169.26 852.13 161.34 852.11 151.68
  Q 852.05 133.80 852.10 116.14
  Q 852.10 115.97 852.27 115.97
  L 860.24 115.98
  Q 860.44 115.99 860.44 116.18
  Q 860.42 131.52 860.47 147.04
  Q 860.49 154.21 862.00 157.22
  C 867.14 167.50 882.04 163.72 885.64 154.30
  Q 886.76 151.38 886.75 144.55
  Q 886.74 130.28 886.74 116.24
  Q 886.74 115.98 887.00 115.98
  L 894.73 115.97
  A 0.27 0.26 0.0 0 1 895.00 116.23
  L 895.00 170.50
  A 0.25 0.25 0.0 0 1 894.75 170.75
  L 887.01 170.76
  A 0.25 0.25 0.0 0 1 886.76 170.51
  L 886.69 162.00
  Q 886.67 160.28 885.84 161.78
  Z"
/>
<rect fill="#261832" x="910.61" y="115.98" width="8.22" height="54.76" rx="0.31"/>
<path fill="#261832" d="
  M 963.22 123.75
  L 934.09 123.74
  Q 933.88 123.74 933.88 123.54
  L 933.85 116.19
  A 0.22 0.21 -90.0 0 1 934.06 115.97
  L 974.24 115.95
  Q 974.78 115.95 974.77 116.49
  L 974.72 122.00
  Q 974.71 122.52 974.40 122.92
  L 944.52 162.15
  A 0.50 0.50 0.0 0 0 944.92 162.96
  L 975.20 162.90
  Q 975.75 162.90 975.75 163.45
  L 975.76 170.25
  A 0.51 0.51 0.0 0 1 975.25 170.76
  L 933.50 170.76
  Q 932.96 170.76 932.90 170.23
  Q 932.67 168.13 932.79 166.08
  Q 932.90 164.14 934.29 162.35
  Q 948.98 143.52 963.65 124.64
  Q 964.33 123.75 963.22 123.75
  Z"
/>
<path fill="#ffffff" d="
  M 335.44 148.41
  Q 334.51 150.44 336.24 152.77
  Q 341.63 160.07 350.41 157.25
  C 355.99 155.46 360.01 153.43 362.98 159.63
  A 2.30 2.29 59.6 0 1 362.23 162.52
  C 355.75 167.05 348.12 169.32 340.24 167.90
  C 326.90 165.49 319.86 153.92 321.42 140.96
  C 322.36 133.13 325.92 124.28 333.84 121.08
  C 343.86 117.03 355.61 118.88 361.56 128.37
  C 363.46 131.40 368.55 147.42 361.50 147.53
  Q 349.68 147.72 337.15 147.34
  Q 335.94 147.31 335.44 148.41
  Z
  M 336.96 139.89
  L 350.28 139.91
  A 1.72 1.72 0.0 0 0 352.00 138.19
  L 352.01 137.34
  A 8.25 8.21 0.1 0 0 343.77 129.12
  L 343.51 129.12
  A 8.25 8.21 0.1 0 0 335.25 137.32
  L 335.24 138.17
  A 1.72 1.72 0.0 0 0 336.96 139.89
  Z"
/>
<path fill="#ffffff" d="
  M 397.81 164.57
  C 390.81 167.83 386.37 169.67 378.69 166.51
  C 372.65 164.03 370.16 158.34 370.95 151.99
  C 372.46 139.82 385.65 139.12 395.42 139.03
  Q 397.38 139.01 397.92 137.12
  C 398.83 133.91 396.91 129.87 393.76 128.64
  C 389.93 127.15 387.78 129.31 385.04 131.70
  C 382.57 133.86 377.34 134.26 374.20 134.25
  A 1.20 1.17 -20.3 0 1 373.35 133.87
  C 370.10 130.27 375.69 124.03 378.53 122.35
  Q 381.51 120.59 387.08 119.52
  Q 397.35 117.55 405.93 123.32
  C 410.20 126.19 410.98 130.91 411.09 136.31
  C 411.29 146.30 410.50 156.81 412.27 166.65
  Q 412.38 167.26 411.76 167.21
  Q 406.86 166.78 402.08 166.70
  C 400.32 166.67 399.43 166.20 398.56 164.79
  Q 398.28 164.35 397.81 164.57
  Z
  M 388.03 146.53
  C 380.38 150.24 383.40 162.24 393.33 158.33
  C 398.77 156.19 399.42 150.95 397.67 146.05
  A 0.94 0.91 -3.2 0 0 396.99 145.46
  Q 392.37 144.42 388.03 146.53
  Z"
/>
<path fill="#ffffff" d="
  M 435.47 124.24
  C 436.99 123.22 438.02 121.92 439.66 121.13
  C 446.16 117.98 455.30 118.31 459.47 125.10
  A 0.72 0.72 0.0 0 0 460.31 125.41
  C 462.79 124.59 464.39 122.72 466.04 121.68
  Q 473.75 116.84 482.75 121.22
  C 487.82 123.68 489.72 129.58 489.73 134.77
  Q 489.78 150.26 489.74 165.89
  A 1.14 1.14 0.0 0 1 488.57 167.03
  L 477.94 166.84
  A 0.94 0.93 -89.7 0 1 477.03 165.91
  Q 476.88 152.09 476.80 138.25
  C 476.72 123.95 460.88 127.47 461.13 139.01
  Q 461.41 151.77 461.33 165.73
  A 1.33 1.32 -88.7 0 1 459.96 167.05
  L 450.26 166.72
  A 1.08 1.07 -89.2 0 1 449.22 165.64
  Q 449.32 151.24 449.15 136.76
  C 449.03 126.06 434.86 127.96 434.81 134.50
  Q 434.69 150.23 434.75 165.81
  A 0.73 0.72 -2.1 0 1 434.06 166.54
  L 422.00 167.11
  Q 420.82 167.16 420.82 165.99
  L 420.79 122.22
  Q 420.79 120.46 422.54 120.31
  C 426.35 119.99 432.58 119.10 434.44 123.92
  Q 434.75 124.73 435.47 124.24
  Z"
/>
<path fill="#ffffff" d="
  M 615.23 124.43
  Q 614.67 127.46 614.68 129.50
  Q 614.71 144.13 614.56 158.77
  Q 614.54 160.63 614.74 166.24
  C 614.97 172.43 614.19 178.31 615.20 184.52
  Q 615.62 185.87 614.63 185.88
  Q 608.32 185.94 602.59 185.73
  Q 601.46 185.68 601.49 184.55
  Q 601.69 175.75 601.47 167.00
  Q 601.44 165.60 601.07 164.41
  A 0.44 0.44 0.0 0 0 600.34 164.22
  C 593.08 171.27 581.68 168.82 576.21 161.11
  C 571.18 154.02 571.43 140.23 573.48 131.76
  C 574.83 126.19 579.39 121.33 585.08 119.85
  Q 594.37 117.44 602.22 124.05
  Q 602.58 124.36 602.87 123.97
  Q 603.68 122.84 603.80 121.39
  A 1.11 1.10 0.9 0 1 604.85 120.38
  L 614.45 119.91
  A 0.72 0.71 88.1 0 1 615.20 120.62
  L 615.23 124.43
  Z
  M 601.65 154.25
  L 601.43 133.23
  A 4.05 4.05 0.0 0 0 597.34 129.22
  L 593.68 129.26
  A 12.37 9.17 89.4 0 0 584.64 141.73
  L 584.68 146.11
  A 12.37 9.17 89.4 0 0 593.98 158.38
  L 597.64 158.34
  A 4.05 4.05 0.0 0 0 601.65 154.25
  Z"
/>
<path fill="#ffffff" d="
  M 552.30 166.95
  L 551.36 166.13
  Q 550.98 165.79 550.97 165.28
  L 550.49 120.19
  L 562.32 120.04
  Q 563.26 120.03 563.26 120.97
  L 563.26 166.03
  Q 563.26 167.00 562.29 166.99
  L 552.30 166.95
  Z"
/>
<path fill="#ffffff" d="
  M 652.49 163.61
  Q 641.99 172.41 630.09 165.18
  C 626.57 163.04 625.37 156.28 625.30 152.25
  Q 625.04 136.58 625.11 121.05
  A 0.92 0.92 0.0 0 1 626.03 120.13
  L 635.98 120.13
  A 1.54 1.54 0.0 0 1 637.52 121.67
  Q 637.45 135.39 637.51 148.75
  C 637.54 157.32 644.08 161.89 651.38 156.11
  Q 653.47 154.45 653.51 151.75
  Q 653.74 136.37 653.78 121.13
  A 0.99 0.99 0.0 0 1 654.76 120.14
  L 664.95 120.00
  A 1.21 1.20 -0.2 0 1 666.17 121.20
  L 666.10 165.60
  A 1.44 1.43 0.2 0 1 664.65 167.03
  L 655.27 166.95
  A 1.11 1.10 78.9 0 1 654.25 166.26
  L 653.24 163.80
  Q 652.99 163.19 652.49 163.61
  Z"
/>
<path fill="#ffffff" d="
  M 677.47 166.06
  L 677.46 121.04
  A 0.95 0.95 0.0 0 1 678.41 120.09
  L 688.96 120.03
  A 0.95 0.95 0.0 0 1 689.92 120.99
  L 689.73 165.92
  A 0.95 0.95 0.0 0 1 688.80 166.86
  L 678.43 167.01
  A 0.95 0.95 0.0 0 1 677.47 166.06
  Z"
/>
<path fill="#e3e3e3" d="
  M 550.49 120.19
  L 550.97 165.28
  Q 550.98 165.79 551.36 166.13
  L 552.30 166.95
  L 549.75 166.12
  Q 549.27 165.97 549.27 165.46
  C 549.25 150.60 548.90 135.62 549.79 120.80
  A 0.70 0.70 0.0 0 1 550.14 120.23
  Q 550.36 120.10 550.49 120.19
  Z"
/>
<path fill="#e3e3e3" d="
  M 104.19 132.99
  C 103.78 138.94 82.99 137.66 79.00 137.48
  A 0.94 0.93 -88.7 0 1 78.11 136.54
  L 78.15 122.47
  Q 78.16 120.97 79.66 120.97
  C 84.66 120.98 89.30 122.04 94.33 122.83
  C 98.08 123.42 102.14 123.35 106.05 123.73
  A 0.55 0.54 16.0 0 1 106.49 124.51
  Q 104.49 128.59 104.19 132.99
  Z"
/>
<path fill="#e3e3e3" d="
  M 615.23 124.43
  L 615.20 184.52
  C 614.19 178.31 614.97 172.43 614.74 166.24
  Q 614.54 160.63 614.56 158.77
  Q 614.71 144.13 614.68 129.50
  Q 614.67 127.46 615.23 124.43
  Z"
/>
<path fill="#e3e3e3" d="
  M 83.89 171.47
  C 81.63 167.58 80.38 162.17 79.76 157.75
  A 2.45 2.45 0.0 0 1 81.46 155.07
  C 86.09 153.63 90.78 152.22 95.39 150.52
  Q 97.84 149.62 100.74 149.21
  Q 101.56 149.10 101.56 149.93
  L 101.47 160.70
  A 3.29 3.28 -18.2 0 1 100.14 163.32
  Q 93.22 168.43 85.42 171.96
  Q 84.43 172.41 83.89 171.47
  Z"
/>
<path fill="#e3e3e3" d="
  M 211.38 158.31
  C 207.67 159.57 203.20 158.41 204.39 153.66
  A 0.62 0.61 -64.2 0 1 205.36 153.32
  L 211.44 157.96
  Q 211.73 158.19 211.38 158.31
  Z"
/>
<path fill="#e3e3e3" d="
  M 103.69 181.60
  L 107.52 197.55
  A 1.12 1.12 0.0 0 1 105.69 198.65
  L 95.10 189.31
  A 1.12 1.12 0.0 0 1 95.06 187.67
  L 101.82 181.06
  A 1.12 1.12 0.0 0 1 103.69 181.60
  Z"
/>
<rect fill="#261832" x="285.55" y="180.85" width="301.44" height="4.90" rx="0.26"/>
<rect fill="#261832" x="622.07" y="180.83" width="195.98" height="4.92" rx="0.41"/>
</svg>
