<?xml version="1.0" encoding="UTF-8" standalone="no"?>
<!DOCTYPE svg PUBLIC "-//W3C//DTD SVG 1.0//EN" "http://www.w3.org/TR/2001/REC-SVG-20010904/DTD/svg10.dtd">
<svg xmlns="http://www.w3.org/2000/svg" version="1.0" viewBox="0.00 0.00 155.00 168.00">
<path fill="#fff" d="
  M 114.35 112.96
  L 110.23 105.42
  Q 110.00 105.01 110.31 104.65
  C 111.37 103.46 112.42 103.33 113.77 104.28
  Q 118.30 107.48 123.11 110.78
  A 0.69 0.69 0.0 0 0 124.00 110.68
  L 130.33 103.93
  A 0.65 0.64 -36.1 0 0 130.45 103.22
  Q 122.89 86.36 115.20 69.50
  Q 113.89 66.62 115.51 61.66
  Q 115.68 61.14 115.25 60.79
  L 94.17 43.54
  Q 93.69 43.15 94.15 42.73
  C 95.96 41.13 98.06 39.47 99.13 37.36
  Q 102.29 31.09 98.51 24.82
  Q 98.24 24.36 97.84 24.72
  L 83.82 37.49
  A 0.67 0.67 0.0 0 1 82.71 37.14
  Q 80.09 24.79 84.26 12.85
  C 84.56 11.99 85.35 11.41 85.80 10.73
  A 0.70 0.69 -60.8 0 1 86.67 10.48
  L 143.55 37.22
  Q 143.92 37.40 143.91 37.81
  C 143.43 60.34 144.10 83.84 140.11 106.12
  C 137.47 120.90 131.12 132.23 118.11 140.18
  Q 116.46 141.18 115.37 139.59
  L 93.23 107.23
  A 1.81 1.76 84.9 0 0 92.50 106.60
  C 81.86 101.59 80.79 85.90 83.38 76.34
  Q 83.82 74.74 85.67 74.51
  Q 86.13 74.45 86.15 74.92
  Q 86.44 81.72 89.56 87.59
  Q 90.50 89.36 92.44 90.41
  Q 97.41 93.09 102.53 95.42
  Q 103.45 95.84 104.02 97.38
  C 105.96 102.55 108.03 106.99 109.05 112.28
  Q 109.22 113.12 110.06 113.21
  L 113.92 113.60
  Q 114.75 113.69 114.35 112.96
  Z"
/>
<path fill="#fff" d="
  M 63.67 39.81
  Q 57.59 28.22 53.95 17.14
  Q 53.79 16.64 54.01 16.15
  Q 54.82 14.33 57.32 13.89
  Q 62.95 12.88 68.93 11.37
  A 0.99 0.99 0.0 0 1 70.16 12.20
  Q 71.70 24.15 75.39 36.07
  Q 76.03 38.14 74.22 38.96
  Q 70.00 40.87 65.64 42.44
  A 0.65 0.64 -22.8 0 1 64.84 42.12
  Q 64.44 41.29 63.67 39.81
  Z"
/>
<path fill="#fff" d="
  M 24.37 21.12
  L 39.92 17.61
  A 0.93 0.92 -20.2 0 1 40.95 18.08
  Q 48.60 32.47 59.14 44.89
  A 1.16 1.15 50.6 0 1 58.98 46.54
  L 51.80 52.28
  A 1.19 1.18 44.8 0 1 50.31 52.28
  Q 35.13 39.95 23.16 24.49
  A 2.12 2.12 0.0 0 1 24.37 21.12
  Z"
/>
<path fill="#fff" d="
  M 38.84 65.48
  Q 25.95 61.60 13.50 56.37
  A 0.64 0.63 -77.3 0 1 13.11 55.74
  L 14.30 37.77
  A 1.12 1.12 0.0 0 1 16.14 36.98
  Q 30.13 48.64 46.29 56.99
  A 0.91 0.91 0.0 0 1 46.58 58.37
  Q 44.12 61.33 42.01 64.73
  Q 41.02 66.32 39.50 65.73
  Q 38.94 65.52 38.84 65.48
  Z"
/>
<path fill="#fff" d="
  M 102.66 60.12
  Q 102.87 59.80 103.19 59.73
  Q 103.70 59.62 104.14 59.91
  Q 108.21 62.59 111.15 66.49
  Q 113.05 69.02 109.89 69.00
  L 106.42 68.98
  A 3.62 3.61 81.0 0 1 103.02 66.51
  L 101.40 61.63
  A 0.76 0.76 0.0 0 1 101.74 60.74
  L 102.43 60.34
  A 0.69 0.64 -86.8 0 0 102.66 60.12
  Z"
/>
<path fill="#fff" d="
  M 37.82 73.98
  C 36.83 77.03 35.88 80.88 35.18 82.95
  Q 34.77 84.15 33.23 84.41
  Q 22.94 86.14 12.50 85.96
  A 0.48 0.48 0.0 0 1 12.03 85.47
  L 12.21 71.95
  A 1.66 1.65 4.1 0 1 14.09 70.33
  L 37.55 73.55
  Q 37.94 73.60 37.82 73.98
  Z"
/>
<path fill="#fff" d="
  M 32.81 93.90
  A 0.34 0.33 -9.7 0 1 33.25 94.21
  L 33.28 105.40
  Q 33.29 106.89 32.01 107.65
  L 19.35 115.24
  A 1.49 1.49 0.0 0 1 17.21 114.52
  Q 15.08 109.32 13.79 103.24
  Q 13.10 100.00 15.75 99.24
  Q 23.92 96.93 32.81 93.90
  Z"
/>
<path fill="#fff" d="
  M 120.46 97.10
  C 122.07 99.23 125.02 101.11 127.26 101.94
  Q 128.80 102.51 127.24 103.03
  Q 123.87 104.15 120.28 103.62
  Q 119.77 103.55 119.60 103.06
  L 118.08 98.42
  A 1.30 1.29 68.6 0 1 118.77 96.83
  Q 119.88 96.32 120.46 97.10
  Z"
/>
<path fill="#fff" d="
  M 37.07 137.42
  C 33.31 134.87 29.89 131.72 26.58 128.57
  Q 26.15 128.15 26.57 127.73
  L 33.87 120.45
  A 0.65 0.65 0.0 0 1 34.96 120.76
  L 38.88 136.48
  A 1.17 1.01 13.3 0 1 37.07 137.42
  Z"
/>
</svg>
