<?xml version="1.0" encoding="UTF-8" standalone="no"?>
<!DOCTYPE svg PUBLIC "-//W3C//DTD SVG 1.0//EN" "http://www.w3.org/TR/2001/REC-SVG-20010904/DTD/svg10.dtd">
<svg xmlns="http://www.w3.org/2000/svg" version="1.0" viewBox="0.00 0.00 348.00 496.00">
<path fill="#e3e3e3" d="
  M 262.63 323.65
  Q 263.00 323.59 263.53 323.03
  Q 269.60 316.60 275.51 310.16
  A 3.17 3.15 54.3 0 0 276.06 306.72
  Q 262.15 275.70 248.45 244.05
  C 245.42 237.07 244.67 232.30 246.28 225.26
  Q 246.77 223.14 245.06 221.73
  Q 224.95 205.16 204.84 188.77
  A 1.50 1.50 0.0 0 1 204.88 186.41
  Q 221.66 173.64 214.48 153.55
  C 213.48 150.77 211.53 148.30 208.59 151.09
  Q 196.43 162.66 184.25 174.21
  Q 183.61 174.83 183.11 175.05
  A 1.75 1.75 0.0 0 1 180.67 173.76
  Q 176.30 148.37 185.76 124.50
  A 2.14 2.14 0.0 0 1 188.66 123.36
  Q 243.89 149.43 299.49 175.71
  Q 301.67 176.74 301.67 179.00
  Q 301.60 225.66 299.38 272.26
  Q 298.44 291.77 295.75 308.00
  C 291.03 336.40 277.32 366.16 251.51 380.82
  C 248.91 382.30 246.97 380.98 245.41 378.67
  Q 227.40 352.05 209.19 325.57
  C 204.10 318.17 193.27 309.32 188.09 301.58
  C 178.16 286.72 177.89 268.92 183.85 252.45
  Q 184.03 251.95 184.54 251.79
  Q 185.61 251.44 186.26 252.00
  Q 186.71 252.40 186.76 253.38
  C 187.28 265.50 190.34 276.67 201.05 283.45
  Q 209.08 288.53 220.31 293.27
  C 221.09 293.60 222.16 294.59 222.46 295.39
  Q 228.07 310.50 233.63 325.62
  C 234.77 328.71 239.59 328.54 242.08 328.50
  A 1.82 1.81 -14.2 0 0 243.66 325.86
  L 236.40 311.77
  A 2.24 2.24 0.0 0 1 237.92 308.55
  Q 239.11 308.29 240.35 309.16
  Q 250.68 316.36 261.02 323.31
  A 2.18 2.15 -32.6 0 0 262.63 323.65
  Z"
/>
<path fill="#d4d4d8" fill-opacity="0.957" d="
  M 143.49 183.63
  L 123.55 135.88
  A 3.64 3.64 0.0 0 1 126.14 130.92
  L 150.00 125.77
  A 3.64 3.64 0.0 0 1 154.31 128.51
  L 165.02 175.18
  A 3.64 3.64 0.0 0 1 162.90 179.34
  L 148.27 185.57
  A 3.64 3.64 0.0 0 1 143.49 183.63
  Z"
/>
<path fill="#e3e3e3" d="
  M 96.80 141.15
  L 129.22 188.83
  A 6.73 6.73 0.0 0 1 128.10 197.66
  L 121.09 203.83
  A 6.73 6.73 0.0 0 1 111.87 203.51
  L 63.85 155.05
  A 6.73 6.73 0.0 0 1 67.07 143.77
  L 89.68 138.38
  A 6.73 6.73 0.0 0 1 96.80 141.15
  Z"
/>
<path fill="#d4d4d8" fill-opacity="0.957" d="
  M 46.87 177.91
  L 106.01 216.89
  A 1.44 1.44 0.0 0 1 106.42 218.89
  L 97.23 232.72
  A 1.44 1.44 0.0 0 1 95.55 233.28
  L 43.45 214.59
  A 1.44 1.44 0.0 0 1 42.50 213.14
  L 44.64 179.02
  A 1.44 1.44 0.0 0 1 46.87 177.91
  Z"
/>
<path fill="#e3e3e3" d="
  M 237.76 234.73
  A 0.29 0.29 0.0 0 1 237.77 235.14
  L 237.65 235.27
  A 10.44 10.03 42.5 0 1 223.18 235.61
  L 222.65 235.13
  A 10.44 10.03 42.5 0 1 221.73 220.68
  L 221.85 220.55
  A 0.29 0.29 0.0 0 1 222.26 220.53
  L 237.76 234.73
  Z"
/>
<path fill="#d4d4d8" fill-opacity="0.957" d="
  M 82.31 270.91
  L 43.10 273.80
  A 2.44 2.44 0.0 0 1 40.48 271.36
  L 40.51 244.97
  A 2.44 2.44 0.0 0 1 43.28 242.55
  L 86.92 248.57
  A 2.44 2.44 0.0 0 1 88.95 251.59
  L 84.49 269.08
  A 2.44 2.44 0.0 0 1 82.31 270.91
  Z"
/>
<path fill="#d4d4d8" fill-opacity="0.957" d="
  M 80.36 315.36
  L 52.35 331.97
  A 1.35 1.35 0.0 0 1 50.36 331.19
  L 42.35 303.58
  A 1.35 1.35 0.0 0 1 43.23 301.92
  L 79.20 290.40
  A 1.35 1.35 0.0 0 1 80.96 291.69
  L 81.02 314.20
  A 1.35 1.35 0.0 0 1 80.36 315.36
  Z"
/>
<path fill="#e3e3e3" d="
  M 266.30 308.12
  L 256.23 308.10
  A 1.29 1.29 0.0 0 1 255.01 307.21
  L 251.88 297.64
  A 1.29 1.29 0.0 0 1 253.86 296.19
  L 267.06 305.79
  A 1.29 1.29 0.0 0 1 266.30 308.12
  Z"
/>
<path fill="#e3e3e3" d="
  M 84.39 344.08
  L 92.78 375.86
  A 1.34 1.34 0.0 0 1 90.60 377.20
  L 69.29 358.41
  A 1.34 1.34 0.0 0 1 69.22 356.46
  L 82.14 343.48
  A 1.34 1.34 0.0 0 1 84.39 344.08
  Z"
/>
</svg>
