<?xml version="1.0" encoding="UTF-8"?>
<!DOCTYPE svg PUBLIC "-//W3C//DTD SVG 1.1//EN" "http://www.w3.org/Graphics/SVG/1.1/DTD/svg11.dtd">
<svg xmlns="http://www.w3.org/2000/svg" version="1.1" width="348px" height="496px" style="shape-rendering:geometricPrecision; text-rendering:geometricPrecision; image-rendering:optimizeQuality; fill-rule:evenodd; clip-rule:evenodd" xmlns:xlink="http://www.w3.org/1999/xlink">
<g><path style="opacity:1" fill="#dadada" d="M 191.5,273.5 C 191.427,275.027 192.094,276.027 193.5,276.5C 202.228,283.288 211.728,288.955 222,293.5C 225.803,303.076 229.303,312.742 232.5,322.5C 231.756,325.95 233.09,327.616 236.5,327.5C 238.5,327.5 240.5,327.5 242.5,327.5C 240.902,322.299 238.735,317.299 236,312.5C 235.231,307.522 237.064,306.355 241.5,309C 248.03,313.696 254.697,318.196 261.5,322.5C 264.853,319.478 268.187,316.478 271.5,313.5C 272.906,313.027 273.573,312.027 273.5,310.5C 274.141,309.518 274.807,308.518 275.5,307.5C 265.725,286.285 256.225,264.951 247,243.5C 244.43,237.155 243.93,230.655 245.5,224C 244.35,222.019 243.016,220.186 241.5,218.5C 241.027,217.094 240.027,216.427 238.5,216.5C 237.5,216.167 236.833,215.5 236.5,214.5C 236.027,213.094 235.027,212.427 233.5,212.5C 232.5,212.167 231.833,211.5 231.5,210.5C 230.738,208.738 229.404,207.738 227.5,207.5C 226.5,207.167 225.833,206.5 225.5,205.5C 225.027,204.094 224.027,203.427 222.5,203.5C 221.5,203.167 220.833,202.5 220.5,201.5C 220.027,200.094 219.027,199.427 217.5,199.5C 216.5,199.167 215.833,198.5 215.5,197.5C 214.738,195.738 213.404,194.738 211.5,194.5C 210.5,194.167 209.833,193.5 209.5,192.5C 209.027,191.094 208.027,190.427 206.5,190.5C 203.808,189.409 203.142,187.743 204.5,185.5C 207.167,184.833 208.833,183.167 209.5,180.5C 209.833,179.5 210.5,178.833 211.5,178.5C 212.906,178.027 213.573,177.027 213.5,175.5C 216.427,167.367 216.094,159.367 212.5,151.5C 211.833,151.167 211.167,150.833 210.5,150.5C 201.378,158.452 192.378,166.618 183.5,175C 182.216,175.684 181.049,175.517 180,174.5C 177.098,157.813 178.431,141.48 184,125.5C 184.408,123.59 185.575,122.59 187.5,122.5C 225.282,139.891 262.949,157.557 300.5,175.5C 301.7,213.87 300.867,252.203 298,290.5C 296.608,317.014 288.274,341.014 273,362.5C 266.717,369.789 259.551,375.956 251.5,381C 249.833,381.667 248.167,381.667 246.5,381C 233.877,362.92 221.377,344.754 209,326.5C 202.333,319.167 195.667,311.833 189,304.5C 177.501,287.668 175.667,269.834 183.5,251C 184.448,250.517 185.448,250.351 186.5,250.5C 186.783,258.492 188.45,266.159 191.5,273.5 Z"/></g>
<g><path style="opacity:0.957" fill="#c8c8c9" d="M 149.5,184.5 C 147.097,184.552 144.764,184.219 142.5,183.5C 135.427,167.183 128.76,150.683 122.5,134C 122.354,131.812 123.354,130.479 125.5,130C 133.798,128.009 142.132,126.175 150.5,124.5C 152.029,124.529 153.196,125.196 154,126.5C 157.678,142.88 161.512,159.213 165.5,175.5C 164.96,176.748 164.293,177.915 163.5,179C 158.924,181.124 154.257,182.957 149.5,184.5 Z"/></g>
<g><path style="opacity:1" fill="#d8d8d8" d="M 96.5,140.5 C 96.427,142.027 97.0937,143.027 98.5,143.5C 98.427,145.027 99.0937,146.027 100.5,146.5C 100.427,148.027 101.094,149.027 102.5,149.5C 102.427,151.027 103.094,152.027 104.5,152.5C 107.857,156.535 110.857,160.868 113.5,165.5C 113.427,167.027 114.094,168.027 115.5,168.5C 115.427,170.027 116.094,171.027 117.5,171.5C 117.427,173.027 118.094,174.027 119.5,174.5C 119.427,176.027 120.094,177.027 121.5,177.5C 124.223,180.586 126.723,183.92 129,187.5C 130.373,189.695 130.706,192.029 130,194.5C 126.312,201.241 120.812,204.741 113.5,205C 96.3618,188.862 79.5285,172.362 63,155.5C 59.4716,150.427 60.3049,146.26 65.5,143C 74.9954,140.033 84.6621,138.366 94.5,138C 95.3805,138.708 96.0472,139.542 96.5,140.5 Z"/></g>
<g><path style="opacity:0.427" fill="#515151" d="M 96.5,140.5 C 97.9063,140.973 98.573,141.973 98.5,143.5C 97.0937,143.027 96.427,142.027 96.5,140.5 Z"/></g>
<g><path style="opacity:0.467" fill="#575757" d="M 98.5,143.5 C 99.9063,143.973 100.573,144.973 100.5,146.5C 99.0937,146.027 98.427,145.027 98.5,143.5 Z"/></g>
<g><path style="opacity:0.506" fill="#5e5e5e" d="M 100.5,146.5 C 101.906,146.973 102.573,147.973 102.5,149.5C 101.094,149.027 100.427,148.027 100.5,146.5 Z"/></g>
<g><path style="opacity:0.545" fill="#646464" d="M 102.5,149.5 C 103.906,149.973 104.573,150.973 104.5,152.5C 103.094,152.027 102.427,151.027 102.5,149.5 Z"/></g>
<g><path style="opacity:0.424" fill="#515151" d="M 113.5,165.5 C 114.906,165.973 115.573,166.973 115.5,168.5C 114.094,168.027 113.427,167.027 113.5,165.5 Z"/></g>
<g><path style="opacity:0.467" fill="#575757" d="M 115.5,168.5 C 116.906,168.973 117.573,169.973 117.5,171.5C 116.094,171.027 115.427,170.027 115.5,168.5 Z"/></g>
<g><path style="opacity:0.506" fill="#5e5e5e" d="M 117.5,171.5 C 118.906,171.973 119.573,172.973 119.5,174.5C 118.094,174.027 117.427,173.027 117.5,171.5 Z"/></g>
<g><path style="opacity:0.545" fill="#646464" d="M 119.5,174.5 C 120.906,174.973 121.573,175.973 121.5,177.5C 120.094,177.027 119.427,176.027 119.5,174.5 Z"/></g>
<g><path style="opacity:0.957" fill="#c9c9ca" d="M 103.5,214.5 C 104.502,216.011 105.169,217.678 105.5,219.5C 102.71,224.768 99.2102,229.435 95,233.5C 77.6193,227.432 60.4526,221.099 43.5,214.5C 42.5863,211.272 42.2529,207.939 42.5,204.5C 42.4601,195.472 42.9601,186.472 44,177.5C 44.414,177.043 44.914,176.709 45.5,176.5C 65.1441,188.833 84.4775,201.5 103.5,214.5 Z"/></g>
<g><path style="opacity:0.502" fill="#636363" d="M 213.5,175.5 C 213.573,177.027 212.906,178.027 211.5,178.5C 211.427,176.973 212.094,175.973 213.5,175.5 Z"/></g>
<g><path style="opacity:0.718" fill="#6c6c6c" d="M 209.5,180.5 C 208.833,183.167 207.167,184.833 204.5,185.5C 205.833,183.5 207.5,181.833 209.5,180.5 Z"/></g>
<g><path style="opacity:0.753" fill="#767677" d="M 142.5,183.5 C 144.764,184.219 147.097,184.552 149.5,184.5C 148.726,185.147 147.726,185.48 146.5,185.5C 144.645,185.66 143.312,184.993 142.5,183.5 Z"/></g>
<g><path style="opacity:0.796" fill="#666666" d="M 206.5,190.5 C 208.027,190.427 209.027,191.094 209.5,192.5C 207.973,192.573 206.973,191.906 206.5,190.5 Z"/></g>
<g><path style="opacity:0.835" fill="#5f5f5f" d="M 211.5,194.5 C 213.404,194.738 214.738,195.738 215.5,197.5C 213.596,197.262 212.262,196.262 211.5,194.5 Z"/></g>
<g><path style="opacity:0.741" fill="#5d5d5d" d="M 217.5,199.5 C 219.027,199.427 220.027,200.094 220.5,201.5C 218.973,201.573 217.973,200.906 217.5,199.5 Z"/></g>
<g><path style="opacity:0.784" fill="#646464" d="M 222.5,203.5 C 224.027,203.427 225.027,204.094 225.5,205.5C 223.973,205.573 222.973,204.906 222.5,203.5 Z"/></g>
<g><path style="opacity:0.824" fill="#5c5c5c" d="M 227.5,207.5 C 229.404,207.738 230.738,208.738 231.5,210.5C 229.596,210.262 228.262,209.262 227.5,207.5 Z"/></g>
<g><path style="opacity:0.467" fill="#474747" d="M 42.5,204.5 C 42.2529,207.939 42.5863,211.272 43.5,214.5C 42.2227,213.306 41.5561,211.64 41.5,209.5C 41.5068,207.631 41.8401,205.964 42.5,204.5 Z"/></g>
<g><path style="opacity:0.725" fill="#5a5a5a" d="M 233.5,212.5 C 235.027,212.427 236.027,213.094 236.5,214.5C 234.973,214.573 233.973,213.906 233.5,212.5 Z"/></g>
<g><path style="opacity:0.502" fill="#595959" d="M 103.5,214.5 C 106.2,215.544 106.867,217.21 105.5,219.5C 105.169,217.678 104.502,216.011 103.5,214.5 Z"/></g>
<g><path style="opacity:0.769" fill="#626262" d="M 238.5,216.5 C 240.027,216.427 241.027,217.094 241.5,218.5C 239.973,218.573 238.973,217.906 238.5,216.5 Z"/></g>
<g><path style="opacity:1" fill="#c1c1c1" d="M 220.5,219.5 C 226.695,223.182 232.195,227.849 237,233.5C 237.507,234.996 237.007,236.163 235.5,237C 229.505,239.618 224.338,238.451 220,233.5C 217.921,228.725 218.088,224.059 220.5,219.5 Z"/></g>
<g><path style="opacity:0.957" fill="#c7c7c8" d="M 87.5,248.5 C 87.5,250.833 87.5,253.167 87.5,255.5C 87.0196,260.59 85.6863,265.424 83.5,270C 71.4045,271.623 59.2378,272.79 47,273.5C 44.5759,273.47 42.2426,273.137 40,272.5C 39.1814,262.256 39.348,252.09 40.5,242C 56.402,243.201 72.0686,245.367 87.5,248.5 Z"/></g>
<g><path style="opacity:0.918" fill="#6f6f70" d="M 87.5,248.5 C 88.2891,248.783 88.9558,249.283 89.5,250C 88.8906,251.948 88.224,253.782 87.5,255.5C 87.5,253.167 87.5,250.833 87.5,248.5 Z"/></g>
<g><path style="opacity:0.561" fill="#626262" d="M 191.5,273.5 C 192.906,273.973 193.573,274.973 193.5,276.5C 192.094,276.027 191.427,275.027 191.5,273.5 Z"/></g>
<g><path style="opacity:0.957" fill="#c6c6c7" d="M 48.5,299.5 C 54.1662,298.61 59.4995,296.943 64.5,294.5C 69.5005,292.057 74.8338,290.39 80.5,289.5C 80.9498,297.839 81.1165,306.172 81,314.5C 71.25,320.626 61.4167,326.626 51.5,332.5C 50.2011,331.91 49.3678,330.91 49,329.5C 46.196,320.921 43.696,312.255 41.5,303.5C 42.8113,300.701 45.1446,299.368 48.5,299.5 Z"/></g>
<g><path style="opacity:1" fill="#acacac" d="M 251.5,294.5 C 256.959,297.069 261.959,300.402 266.5,304.5C 267.583,305.365 267.749,306.365 267,307.5C 262.864,308.809 258.698,308.809 254.5,307.5C 253.016,303.905 251.683,300.238 250.5,296.5C 250.863,295.817 251.196,295.15 251.5,294.5 Z"/></g>
<g><path style="opacity:0.925" fill="#888888" d="M 64.5,294.5 C 59.4995,296.943 54.1662,298.61 48.5,299.5C 53.5005,297.057 58.8338,295.39 64.5,294.5 Z"/></g>
<g><path style="opacity:0.671" fill="#565656" d="M 273.5,310.5 C 273.573,312.027 272.906,313.027 271.5,313.5C 271.427,311.973 272.094,310.973 273.5,310.5 Z"/></g>
<g><path style="opacity:0.969" fill="#707070" d="M 232.5,322.5 C 233.13,324.707 234.464,326.374 236.5,327.5C 233.09,327.616 231.756,325.95 232.5,322.5 Z"/></g>
<g><path style="opacity:1" fill="#cfcfcf" d="M 86.5,353.5 C 86.4095,356.152 87.0762,358.485 88.5,360.5C 89.7682,362.905 90.4349,365.572 90.5,368.5C 90.5111,370.547 90.8444,372.547 91.5,374.5C 91.2528,375.713 90.5862,376.38 89.5,376.5C 85.2092,373.877 81.5425,370.544 78.5,366.5C 77.7377,364.738 76.4044,363.738 74.5,363.5C 71.8544,361.521 69.5211,359.188 67.5,356.5C 71.6513,351.848 75.9847,347.348 80.5,343C 81.7932,342.51 83.1266,342.343 84.5,342.5C 85.3255,346.136 85.9922,349.803 86.5,353.5 Z"/></g>
<g><path style="opacity:0.753" fill="#7c7c7c" d="M 86.5,353.5 C 87.9238,355.515 88.5905,357.848 88.5,360.5C 87.0762,358.485 86.4095,356.152 86.5,353.5 Z"/></g>
<g><path style="opacity:0.765" fill="#595959" d="M 74.5,363.5 C 76.4044,363.738 77.7377,364.738 78.5,366.5C 76.5956,366.262 75.2623,365.262 74.5,363.5 Z"/></g>
<g><path style="opacity:0.918" fill="#6f6f6f" d="M 90.5,368.5 C 92.1181,371.171 92.7847,374.171 92.5,377.5C 91.209,377.737 90.209,377.404 89.5,376.5C 90.5862,376.38 91.2528,375.713 91.5,374.5C 90.8444,372.547 90.5111,370.547 90.5,368.5 Z"/></g>
</svg>
