<?xml version="1.0" encoding="UTF-8"?>
<!DOCTYPE svg PUBLIC "-//W3C//DTD SVG 1.1//EN" "http://www.w3.org/Graphics/SVG/1.1/DTD/svg11.dtd">
<svg xmlns="http://www.w3.org/2000/svg" version="1.1" width="512px" height="512px" style="shape-rendering:geometricPrecision; text-rendering:geometricPrecision; image-rendering:optimizeQuality; fill-rule:evenodd; clip-rule:evenodd" xmlns:xlink="http://www.w3.org/1999/xlink">
<g><path style="opacity:0.997" fill="#fff" d="M 252.5,89.5 C 264.189,89.0954 273.689,93.4287 281,102.5C 330.333,187.833 379.667,273.167 429,358.5C 439.412,375.878 437.246,391.378 422.5,405C 418.186,407.66 413.519,409.327 408.5,410C 306.5,410.667 204.5,410.667 102.5,410C 82.4681,405.442 73.6348,392.942 76,372.5C 77.4433,367.611 79.4433,362.945 82,358.5C 131.333,273.167 180.667,187.833 230,102.5C 235.891,95.1451 243.391,90.8117 252.5,89.5 Z"/></g>
<g><path style="opacity:1" fill="#0b2447" d="M 248.5,185.5 C 255.549,184.718 262.216,185.885 268.5,189C 270.7,191.234 272.533,193.734 274,196.5C 274.667,227.5 274.667,258.5 274,289.5C 272.464,296.369 268.298,300.536 261.5,302C 249.261,305.3 241.095,301.133 237,289.5C 236.333,258.5 236.333,227.5 237,196.5C 239.437,191.226 243.271,187.56 248.5,185.5 Z"/></g>
<g><path style="opacity:1" fill="#0b2447" d="M 248.5,330.5 C 269.85,329.343 277.683,339.009 272,359.5C 265.618,367.946 257.452,370.446 247.5,367C 236.158,359.465 233.658,349.632 240,337.5C 242.628,334.79 245.461,332.456 248.5,330.5 Z"/></g>
</svg>
